# Wavefront .OBJ file for tesselated shape: Part2_flywheel-1 path: C:\Users\Jamiul\OneDrive - UW-Madison\Design\chronoMotor\Part2_flywheel.SLDPRT

g body_1
v -30.493563 0.626586 -175.000000
v -30.493563 0.626586 175.000000
v -29.632504 7.222513 175.000000
v -29.632504 7.222513 -175.000000
v -27.361965 13.474898 175.000000
v -27.361965 13.474898 -175.000000
v -23.789944 19.086345 175.000000
v -23.789944 19.086345 -175.000000
v -19.086345 23.789944 175.000000
v -19.086345 23.789944 -175.000000
v -13.474898 27.361965 175.000000
v -13.474898 27.361965 -175.000000
v -7.222513 29.632504 175.000000
v -7.222513 29.632504 -175.000000
v -0.626586 30.493563 175.000000
v -0.626586 30.493563 -175.000000
v -30.493563 0.626586 175.000000
v -30.493563 0.626586 -175.000000
v -29.500000 0.000000 -175.000000
v -29.500000 0.000000 175.000000
v -30.493563 -0.626586 -175.000000
v -30.493563 -0.626586 175.000000
v -29.500000 0.000000 175.000000
v -29.500000 0.000000 -175.000000
v -0.626586 -30.493563 -175.000000
v -0.626586 -30.493563 175.000000
v -7.222513 -29.632504 175.000000
v -7.222513 -29.632504 -175.000000
v -13.474898 -27.361965 175.000000
v -13.474898 -27.361965 -175.000000
v -19.086345 -23.789944 175.000000
v -19.086345 -23.789944 -175.000000
v -23.789944 -19.086345 175.000000
v -23.789944 -19.086345 -175.000000
v -27.361965 -13.474898 175.000000
v -27.361965 -13.474898 -175.000000
v -29.632504 -7.222513 175.000000
v -29.632504 -7.222513 -175.000000
v -30.493563 -0.626586 175.000000
v -30.493563 -0.626586 -175.000000
v -0.626586 -30.493563 175.000000
v -0.626586 -30.493563 -175.000000
v 0.000000 -29.500000 -175.000000
v 0.000000 -29.500000 175.000000
v 0.626586 -30.493563 -175.000000
v 0.626586 -30.493563 175.000000
v 0.000000 -29.500000 175.000000
v 0.000000 -29.500000 -175.000000
v 30.493563 -0.626586 -175.000000
v 30.493563 -0.626586 175.000000
v 29.632504 -7.222513 175.000000
v 29.632504 -7.222513 -175.000000
v 27.361965 -13.474898 175.000000
v 27.361965 -13.474898 -175.000000
v 23.789944 -19.086345 175.000000
v 23.789944 -19.086345 -175.000000
v 19.086345 -23.789944 175.000000
v 19.086345 -23.789944 -175.000000
v 13.474898 -27.361965 175.000000
v 13.474898 -27.361965 -175.000000
v 7.222513 -29.632504 175.000000
v 7.222513 -29.632504 -175.000000
v 0.626586 -30.493563 175.000000
v 0.626586 -30.493563 -175.000000
v 30.493563 -0.626586 175.000000
v 30.493563 -0.626586 -175.000000
v 29.500000 0.000000 -175.000000
v 29.500000 0.000000 175.000000
v 30.493563 0.626586 -175.000000
v 30.493563 0.626586 175.000000
v 29.500000 0.000000 175.000000
v 29.500000 0.000000 -175.000000
v -27.361965 -13.474898 175.000000
v -23.789944 -19.086345 175.000000
v -19.086345 -23.789944 175.000000
v 29.500000 0.000000 175.000000
v 23.789944 19.086345 175.000000
v 19.086345 23.789944 175.000000
v 30.493563 0.626586 175.000000
v 29.632504 7.222513 175.000000
v 27.361965 -13.474898 175.000000
v 29.632504 -7.222513 175.000000
v 19.086345 -23.789944 175.000000
v 23.789944 -19.086345 175.000000
v -13.474898 -27.361965 175.000000
v -29.500000 0.000000 175.000000
v -13.474898 27.361965 175.000000
v -29.632504 7.222513 175.000000
v 13.474898 27.361965 175.000000
v 27.361965 13.474898 175.000000
v 0.000000 -29.500000 175.000000
v 7.222513 29.632504 175.000000
v 7.222513 -29.632504 175.000000
v 13.474898 -27.361965 175.000000
v -7.222513 -29.632504 175.000000
v -29.632504 -7.222513 175.000000
v -30.493563 -0.626586 175.000000
v 0.000000 29.500000 175.000000
v -27.361965 13.474898 175.000000
v -19.086345 23.789944 175.000000
v -0.626586 30.493563 175.000000
v -7.222513 29.632504 175.000000
v 0.626586 30.493563 175.000000
v 0.626586 -30.493563 175.000000
v -0.626586 -30.493563 175.000000
v -23.789944 19.086345 175.000000
v 30.493563 -0.626586 175.000000
v -30.493563 0.626586 175.000000
v -29.500000 0.000000 -175.000000
v -13.474898 -27.361965 -175.000000
v -29.632504 -7.222513 -175.000000
v 0.000000 -29.500000 -175.000000
v 19.086345 -23.789944 -175.000000
v 13.474898 -27.361965 -175.000000
v -27.361965 -13.474898 -175.000000
v -19.086345 -23.789944 -175.000000
v 7.222513 -29.632504 -175.000000
v 27.361965 -13.474898 -175.000000
v 23.789944 -19.086345 -175.000000
v 7.222513 29.632504 -175.000000
v 23.789944 19.086345 -175.000000
v 27.361965 13.474898 -175.000000
v 13.474898 27.361965 -175.000000
v 0.000000 29.500000 -175.000000
v -27.361965 13.474898 -175.000000
v -7.222513 29.632504 -175.000000
v -23.789944 -19.086345 -175.000000
v 29.500000 0.000000 -175.000000
v 29.632504 -7.222513 -175.000000
v 19.086345 23.789944 -175.000000
v 0.626586 30.493563 -175.000000
v 29.632504 7.222513 -175.000000
v -13.474898 27.361965 -175.000000
v -23.789944 19.086345 -175.000000
v -19.086345 23.789944 -175.000000
v -30.493563 0.626586 -175.000000
v -29.632504 7.222513 -175.000000
v -7.222513 -29.632504 -175.000000
v -0.626586 -30.493563 -175.000000
v 30.493563 0.626586 -175.000000
v 0.626586 -30.493563 -175.000000
v 30.493563 -0.626586 -175.000000
v -0.626586 30.493563 -175.000000
v -30.493563 -0.626586 -175.000000
v 0.626586 30.493563 -175.000000
v 0.626586 30.493563 175.000000
v 7.222513 29.632504 175.000000
v 7.222513 29.632504 -175.000000
v 13.474898 27.361965 175.000000
v 13.474898 27.361965 -175.000000
v 19.086345 23.789944 175.000000
v 19.086345 23.789944 -175.000000
v 23.789944 19.086345 175.000000
v 23.789944 19.086345 -175.000000
v 27.361965 13.474898 175.000000
v 27.361965 13.474898 -175.000000
v 29.632504 7.222513 175.000000
v 29.632504 7.222513 -175.000000
v 30.493563 0.626586 175.000000
v 30.493563 0.626586 -175.000000
v -0.626586 30.493563 -175.000000
v -0.626586 30.493563 175.000000
v 0.000000 29.500000 175.000000
v 0.000000 29.500000 -175.000000
v 0.626586 30.493563 175.000000
v 0.626586 30.493563 -175.000000
v 0.000000 29.500000 -175.000000
v 0.000000 29.500000 175.000000
vn -1.000 0.021 0.000
vn -1.000 0.021 0.000
vn -0.972 0.237 0.000
vn -0.972 0.237 0.000
vn -0.897 0.442 0.000
vn -0.897 0.442 0.000
vn -0.780 0.626 0.000
vn -0.780 0.626 0.000
vn -0.626 0.780 0.000
vn -0.626 0.780 0.000
vn -0.442 0.897 0.000
vn -0.442 0.897 0.000
vn -0.237 0.972 0.000
vn -0.237 0.972 0.000
vn -0.021 1.000 0.000
vn -0.021 1.000 0.000
vn -0.533 -0.846 0.000
vn -0.533 -0.846 0.000
vn -0.533 -0.846 0.000
vn -0.533 -0.846 0.000
vn -0.533 0.846 0.000
vn -0.533 0.846 0.000
vn -0.533 0.846 0.000
vn -0.533 0.846 0.000
vn -0.021 -1.000 0.000
vn -0.021 -1.000 0.000
vn -0.237 -0.972 0.000
vn -0.237 -0.972 0.000
vn -0.442 -0.897 0.000
vn -0.442 -0.897 0.000
vn -0.626 -0.780 0.000
vn -0.626 -0.780 0.000
vn -0.780 -0.626 0.000
vn -0.780 -0.626 0.000
vn -0.897 -0.442 0.000
vn -0.897 -0.442 0.000
vn -0.972 -0.237 0.000
vn -0.972 -0.237 0.000
vn -1.000 -0.021 0.000
vn -1.000 -0.021 0.000
vn 0.846 -0.533 0.000
vn 0.846 -0.533 0.000
vn 0.846 -0.533 0.000
vn 0.846 -0.533 0.000
vn -0.846 -0.533 0.000
vn -0.846 -0.533 0.000
vn -0.846 -0.533 0.000
vn -0.846 -0.533 0.000
vn 1.000 -0.021 0.000
vn 1.000 -0.021 0.000
vn 0.972 -0.237 0.000
vn 0.972 -0.237 0.000
vn 0.897 -0.442 0.000
vn 0.897 -0.442 0.000
vn 0.780 -0.626 0.000
vn 0.780 -0.626 0.000
vn 0.626 -0.780 0.000
vn 0.626 -0.780 0.000
vn 0.442 -0.897 0.000
vn 0.442 -0.897 0.000
vn 0.237 -0.972 0.000
vn 0.237 -0.972 0.000
vn 0.021 -1.000 0.000
vn 0.021 -1.000 0.000
vn 0.533 0.846 0.000
vn 0.533 0.846 0.000
vn 0.533 0.846 0.000
vn 0.533 0.846 0.000
vn 0.533 -0.846 0.000
vn 0.533 -0.846 0.000
vn 0.533 -0.846 0.000
vn 0.533 -0.846 0.000
vn 0.000 0.000 1.000
vn 0.000 0.000 1.000
vn 0.000 0.000 1.000
vn 0.000 0.000 1.000
vn 0.000 0.000 1.000
vn 0.000 0.000 1.000
vn 0.000 0.000 1.000
vn 0.000 0.000 1.000
vn 0.000 0.000 1.000
vn 0.000 0.000 1.000
vn 0.000 0.000 1.000
vn 0.000 0.000 1.000
vn 0.000 0.000 1.000
vn 0.000 0.000 1.000
vn 0.000 0.000 1.000
vn 0.000 0.000 1.000
vn 0.000 0.000 1.000
vn 0.000 0.000 1.000
vn 0.000 0.000 1.000
vn 0.000 0.000 1.000
vn 0.000 0.000 1.000
vn 0.000 0.000 1.000
vn 0.000 0.000 1.000
vn 0.000 0.000 1.000
vn 0.000 0.000 1.000
vn 0.000 0.000 1.000
vn 0.000 0.000 1.000
vn 0.000 0.000 1.000
vn 0.000 0.000 1.000
vn 0.000 0.000 1.000
vn 0.000 0.000 1.000
vn 0.000 0.000 1.000
vn 0.000 0.000 1.000
vn 0.000 0.000 1.000
vn 0.000 0.000 1.000
vn 0.000 0.000 1.000
vn 0.000 0.000 -1.000
vn 0.000 0.000 -1.000
vn 0.000 0.000 -1.000
vn 0.000 0.000 -1.000
vn 0.000 0.000 -1.000
vn 0.000 0.000 -1.000
vn 0.000 0.000 -1.000
vn 0.000 0.000 -1.000
vn 0.000 0.000 -1.000
vn 0.000 0.000 -1.000
vn 0.000 0.000 -1.000
vn 0.000 0.000 -1.000
vn 0.000 0.000 -1.000
vn 0.000 0.000 -1.000
vn 0.000 0.000 -1.000
vn 0.000 0.000 -1.000
vn 0.000 0.000 -1.000
vn 0.000 0.000 -1.000
vn 0.000 0.000 -1.000
vn 0.000 0.000 -1.000
vn 0.000 0.000 -1.000
vn 0.000 0.000 -1.000
vn 0.000 0.000 -1.000
vn 0.000 0.000 -1.000
vn 0.000 0.000 -1.000
vn 0.000 0.000 -1.000
vn 0.000 0.000 -1.000
vn 0.000 0.000 -1.000
vn 0.000 0.000 -1.000
vn 0.000 0.000 -1.000
vn 0.000 0.000 -1.000
vn 0.000 0.000 -1.000
vn 0.000 0.000 -1.000
vn 0.000 0.000 -1.000
vn 0.000 0.000 -1.000
vn 0.000 0.000 -1.000
vn 0.021 1.000 0.000
vn 0.021 1.000 0.000
vn 0.237 0.972 0.000
vn 0.237 0.972 0.000
vn 0.442 0.897 0.000
vn 0.442 0.897 0.000
vn 0.626 0.780 0.000
vn 0.626 0.780 0.000
vn 0.780 0.626 0.000
vn 0.780 0.626 0.000
vn 0.897 0.442 0.000
vn 0.897 0.442 0.000
vn 0.972 0.237 0.000
vn 0.972 0.237 0.000
vn 1.000 0.021 0.000
vn 1.000 0.021 0.000
vn 0.846 0.533 0.000
vn 0.846 0.533 0.000
vn 0.846 0.533 0.000
vn 0.846 0.533 0.000
vn -0.846 0.533 0.000
vn -0.846 0.533 0.000
vn -0.846 0.533 0.000
vn -0.846 0.533 0.000
vt 0.0205 0.3500 0
vt 0.0205 0.0000 0
vt 0.2391 0.0000 0
vt 0.2391 0.3500 0
vt 0.4576 0.0000 0
vt 0.4576 0.3500 0
vt 0.6761 0.0000 0
vt 0.6761 0.3500 0
vt 0.8947 0.0000 0
vt 0.8947 0.3500 0
vt 1.1132 0.0000 0
vt 1.1132 0.3500 0
vt 1.3317 0.0000 0
vt 1.3317 0.3500 0
vt 1.5503 0.0000 0
vt 1.5503 0.3500 0
vt -0.0027 0.0000 0
vt -0.0027 -0.3500 0
vt -0.0039 -0.3500 0
vt -0.0039 0.0000 0
vt -0.0012 -0.3500 0
vt -0.0012 0.0000 0
vt 0.0000 0.0000 0
vt 0.0000 -0.3500 0
vt 4.7329 0.3500 0
vt 4.7329 0.0000 0
vt 4.9515 0.0000 0
vt 4.9515 0.3500 0
vt 5.1700 0.0000 0
vt 5.1700 0.3500 0
vt 5.3885 0.0000 0
vt 5.3885 0.3500 0
vt 5.6071 0.0000 0
vt 5.6071 0.3500 0
vt 5.8256 0.0000 0
vt 5.8256 0.3500 0
vt 6.0441 0.0000 0
vt 6.0441 0.3500 0
vt 6.2626 0.0000 0
vt 6.2626 0.3500 0
vt -0.0027 0.0000 0
vt -0.0027 -0.3500 0
vt -0.0039 -0.3500 0
vt -0.0039 0.0000 0
vt -0.0012 -0.3500 0
vt -0.0012 0.0000 0
vt 0.0000 0.0000 0
vt 0.0000 -0.3500 0
vt 3.1621 0.3500 0
vt 3.1621 0.0000 0
vt 3.3807 0.0000 0
vt 3.3807 0.3500 0
vt 3.5992 0.0000 0
vt 3.5992 0.3500 0
vt 3.8177 0.0000 0
vt 3.8177 0.3500 0
vt 4.0363 0.0000 0
vt 4.0363 0.3500 0
vt 4.2548 0.0000 0
vt 4.2548 0.3500 0
vt 4.4733 0.0000 0
vt 4.4733 0.3500 0
vt 4.6918 0.0000 0
vt 4.6918 0.3500 0
vt -0.0027 0.0000 0
vt -0.0027 -0.3500 0
vt -0.0039 -0.3500 0
vt -0.0039 0.0000 0
vt -0.0012 -0.3500 0
vt -0.0012 0.0000 0
vt 0.0000 0.0000 0
vt 0.0000 -0.3500 0
vt -0.0274 -0.0135 0
vt -0.0238 -0.0191 0
vt -0.0191 -0.0238 0
vt 0.0295 0.0000 0
vt 0.0238 0.0191 0
vt 0.0191 0.0238 0
vt 0.0305 0.0006 0
vt 0.0296 0.0072 0
vt 0.0274 -0.0135 0
vt 0.0296 -0.0072 0
vt 0.0191 -0.0238 0
vt 0.0238 -0.0191 0
vt -0.0135 -0.0274 0
vt -0.0295 0.0000 0
vt -0.0135 0.0274 0
vt -0.0296 0.0072 0
vt 0.0135 0.0274 0
vt 0.0274 0.0135 0
vt 0.0000 -0.0295 0
vt 0.0072 0.0296 0
vt 0.0072 -0.0296 0
vt 0.0135 -0.0274 0
vt -0.0072 -0.0296 0
vt -0.0296 -0.0072 0
vt -0.0305 -0.0006 0
vt 0.0000 0.0295 0
vt -0.0274 0.0135 0
vt -0.0191 0.0238 0
vt -0.0006 0.0305 0
vt -0.0072 0.0296 0
vt 0.0006 0.0305 0
vt 0.0006 -0.0305 0
vt -0.0006 -0.0305 0
vt -0.0238 0.0191 0
vt 0.0305 -0.0006 0
vt -0.0305 0.0006 0
vt -0.0295 0.0000 0
vt -0.0135 -0.0274 0
vt -0.0296 -0.0072 0
vt 0.0000 -0.0295 0
vt 0.0191 -0.0238 0
vt 0.0135 -0.0274 0
vt -0.0274 -0.0135 0
vt -0.0191 -0.0238 0
vt 0.0072 -0.0296 0
vt 0.0274 -0.0135 0
vt 0.0238 -0.0191 0
vt 0.0072 0.0296 0
vt 0.0238 0.0191 0
vt 0.0274 0.0135 0
vt 0.0135 0.0274 0
vt 0.0000 0.0295 0
vt -0.0274 0.0135 0
vt -0.0072 0.0296 0
vt -0.0238 -0.0191 0
vt 0.0295 0.0000 0
vt 0.0296 -0.0072 0
vt 0.0191 0.0238 0
vt 0.0006 0.0305 0
vt 0.0296 0.0072 0
vt -0.0135 0.0274 0
vt -0.0238 0.0191 0
vt -0.0191 0.0238 0
vt -0.0305 0.0006 0
vt -0.0296 0.0072 0
vt -0.0072 -0.0296 0
vt -0.0006 -0.0305 0
vt 0.0305 0.0006 0
vt 0.0006 -0.0305 0
vt 0.0305 -0.0006 0
vt -0.0006 0.0305 0
vt -0.0305 -0.0006 0
vt 1.5913 0.3500 0
vt 1.5913 0.0000 0
vt 1.8099 0.0000 0
vt 1.8099 0.3500 0
vt 2.0284 0.0000 0
vt 2.0284 0.3500 0
vt 2.2469 0.0000 0
vt 2.2469 0.3500 0
vt 2.4655 0.0000 0
vt 2.4655 0.3500 0
vt 2.6840 0.0000 0
vt 2.6840 0.3500 0
vt 2.9025 0.0000 0
vt 2.9025 0.3500 0
vt 3.1210 0.0000 0
vt 3.1210 0.3500 0
vt -0.0012 -0.3500 0
vt -0.0012 0.0000 0
vt 0.0000 0.0000 0
vt 0.0000 -0.3500 0
vt -0.0027 0.0000 0
vt -0.0027 -0.3500 0
vt -0.0039 -0.3500 0
vt -0.0039 0.0000 0
f 6/6/6 7/7/7 8/8/8
f 8/8/8 9/9/9 10/10/10
f 10/10/10 11/11/11 12/12/12
f 12/12/12 13/13/13 14/14/14
f 14/14/14 15/15/15 16/16/16
f 15/15/15 14/14/14 13/13/13
f 13/13/13 12/12/12 11/11/11
f 11/11/11 10/10/10 9/9/9
f 9/9/9 8/8/8 7/7/7
f 7/7/7 6/6/6 5/5/5
f 4/4/4 5/5/5 6/6/6
f 1/1/1 3/3/3 4/4/4
f 5/5/5 4/4/4 3/3/3
f 3/3/3 1/1/1 2/2/2
f 30/30/30 31/31/31 32/32/32
f 32/32/32 33/33/33 34/34/34
f 34/34/34 35/35/35 36/36/36
f 36/36/36 37/37/37 38/38/38
f 38/38/38 39/39/39 40/40/40
f 39/39/39 38/38/38 37/37/37
f 37/37/37 36/36/36 35/35/35
f 35/35/35 34/34/34 33/33/33
f 33/33/33 32/32/32 31/31/31
f 31/31/31 30/30/30 29/29/29
f 29/29/29 28/28/28 27/27/27
f 27/27/27 25/25/25 26/26/26
f 25/25/25 27/27/27 28/28/28
f 28/28/28 29/29/29 30/30/30
f 54/54/54 55/55/55 56/56/56
f 56/56/56 57/57/57 58/58/58
f 58/58/58 59/59/59 60/60/60
f 60/60/60 61/61/61 62/62/62
f 62/62/62 63/63/63 64/64/64
f 52/52/52 53/53/53 54/54/54
f 61/61/61 60/60/60 59/59/59
f 59/59/59 58/58/58 57/57/57
f 57/57/57 56/56/56 55/55/55
f 55/55/55 54/54/54 53/53/53
f 53/53/53 52/52/52 51/51/51
f 51/51/51 49/49/49 50/50/50
f 63/63/63 62/62/62 61/61/61
f 49/49/49 51/51/51 52/52/52
f 155/155/155 154/154/154 153/153/153
f 153/153/153 152/152/152 151/151/151
f 145/145/145 147/147/147 148/148/148
f 151/151/151 150/150/150 149/149/149
f 148/148/148 149/149/149 150/150/150
f 150/150/150 151/151/151 152/152/152
f 152/152/152 153/153/153 154/154/154
f 154/154/154 155/155/155 156/156/156
f 147/147/147 145/145/145 146/146/146
f 149/149/149 148/148/148 147/147/147
f 156/156/156 157/157/157 158/158/158
f 158/158/158 159/159/159 160/160/160
f 159/159/159 158/158/158 157/157/157
f 157/157/157 156/156/156 155/155/155
f 100/100/100 99/99/99 87/87/87
f 94/94/94 76/76/76 93/93/93
f 76/76/76 84/84/84 81/81/81
f 92/92/92 91/91/91 76/76/76
f 76/76/76 80/80/80 90/90/90
f 76/76/76 78/78/78 89/89/89
f 88/88/88 86/86/86 87/87/87
f 73/73/73 75/75/75 85/85/85
f 76/76/76 89/89/89 92/92/92
f 73/73/73 85/85/85 95/95/95
f 86/86/86 88/88/88 108/108/108
f 76/76/76 82/82/82 107/107/107
f 86/86/86 102/102/102 87/87/87
f 98/98/98 95/95/95 91/91/91
f 91/91/91 93/93/93 76/76/76
f 91/91/91 92/92/92 98/98/98
f 98/98/98 102/102/102 86/86/86
f 99/99/99 100/100/100 106/106/106
f 91/91/91 95/95/95 105/105/105
f 86/86/86 96/96/96 95/95/95
f 84/84/84 76/76/76 83/83/83
f 82/82/82 76/76/76 81/81/81
f 80/80/80 76/76/76 79/79/79
f 78/78/78 76/76/76 77/77/77
f 75/75/75 73/73/73 74/74/74
f 96/96/96 86/86/86 97/97/97
f 95/95/95 98/98/98 86/86/86
f 88/88/88 87/87/87 99/99/99
f 102/102/102 98/98/98 101/101/101
f 76/76/76 90/90/90 77/77/77
f 98/98/98 92/92/92 103/103/103
f 76/76/76 94/94/94 83/83/83
f 93/93/93 91/91/91 104/104/104
f 73/73/73 95/95/95 96/96/96
f 128/128/128 132/132/132 140/140/140
f 125/125/125 135/135/135 133/133/133
f 118/118/118 112/112/112 129/129/129
f 109/109/109 129/129/129 112/112/112
f 138/138/138 112/112/112 139/139/139
f 110/110/110 109/109/109 138/138/138
f 137/137/137 109/109/109 136/136/136
f 135/135/135 125/125/125 134/134/134
f 126/126/126 125/125/125 133/133/133
f 132/132/132 109/109/109 124/124/124
f 120/120/120 124/124/124 131/131/131
f 121/121/121 123/123/123 130/130/130
f 112/112/112 119/119/119 113/113/113
f 129/129/129 109/109/109 128/128/128
f 115/115/115 116/116/116 127/127/127
f 126/126/126 124/124/124 125/125/125
f 109/109/109 137/137/137 124/124/124
f 112/112/112 138/138/138 109/109/109
f 112/112/112 117/117/117 141/141/141
f 109/109/109 132/132/132 128/128/128
f 124/124/124 137/137/137 125/125/125
f 129/129/129 128/128/128 142/142/142
f 124/124/124 126/126/126 143/143/143
f 120/120/120 122/122/122 132/132/132
f 109/109/109 111/111/111 144/144/144
f 111/111/111 109/109/109 110/110/110
f 114/114/114 112/112/112 113/113/113
f 111/111/111 110/110/110 115/115/115
f 116/116/116 115/115/115 110/110/110
f 112/112/112 114/114/114 117/117/117
f 119/119/119 112/112/112 118/118/118
f 122/122/122 120/120/120 121/121/121
f 124/124/124 120/120/120 132/132/132
f 123/123/123 121/121/121 120/120/120
f 71/71/71 69/69/69 70/70/70
f 69/69/69 71/71/71 72/72/72
f 65/65/65 67/67/67 68/68/68
f 67/67/67 65/65/65 66/66/66
f 45/45/45 47/47/47 48/48/48
f 47/47/47 45/45/45 46/46/46
f 41/41/41 43/43/43 44/44/44
f 43/43/43 41/41/41 42/42/42
f 23/23/23 21/21/21 22/22/22
f 21/21/21 23/23/23 24/24/24
f 17/17/17 19/19/19 20/20/20
f 19/19/19 17/17/17 18/18/18
f 163/163/163 161/161/161 162/162/162
f 161/161/161 163/163/163 164/164/164
f 167/167/167 165/165/165 166/166/166
f 165/165/165 167/167/167 168/168/168
