# Wavefront .OBJ file for tesselated shape: GearF-1 path: C:\Users\Jamiul\OneDrive - UW-Madison\Design\chronoMotor\GearF.SLDPRT

g body_1
v 0.000000 0.000000 -63.800000
v -18.194487 2.742378 -63.800000
v -17.582540 5.423495 -63.800000
v -16.577827 7.983461 -63.800000
v -15.202793 10.365089 -63.800000
v -13.488154 12.515178 -63.800000
v -11.472212 14.385699 -63.800000
v -9.200000 15.934867 -63.800000
v -6.722275 17.128077 -63.800000
v -4.094385 17.938674 -63.800000
v -1.375034 18.348550 -63.800000
v 1.375034 18.348550 -63.800000
v 4.094385 17.938674 -63.800000
v 6.722275 17.128077 -63.800000
v 9.200000 15.934867 -63.800000
v 11.472212 14.385699 -63.800000
v 13.488154 12.515178 -63.800000
v 15.202793 10.365089 -63.800000
v 16.577827 7.983461 -63.800000
v 17.582540 5.423495 -63.800000
v 18.194487 2.742378 -63.800000
v 18.400000 0.000000 -63.800000
v 18.194487 -2.742378 -63.800000
v 17.582540 -5.423495 -63.800000
v 16.577827 -7.983461 -63.800000
v 15.202793 -10.365089 -63.800000
v 13.488154 -12.515178 -63.800000
v 11.472212 -14.385699 -63.800000
v 9.200000 -15.934867 -63.800000
v 6.722275 -17.128077 -63.800000
v 4.094385 -17.938674 -63.800000
v 1.375034 -18.348550 -63.800000
v -1.375034 -18.348550 -63.800000
v -4.094385 -17.938674 -63.800000
v -6.722275 -17.128077 -63.800000
v -9.200000 -15.934867 -63.800000
v -11.472212 -14.385699 -63.800000
v -13.488154 -12.515178 -63.800000
v -15.202793 -10.365089 -63.800000
v -16.577827 -7.983461 -63.800000
v -17.582540 -5.423495 -63.800000
v -18.194487 -2.742378 -63.800000
v -18.400000 0.000000 -63.800000
v -18.400000 0.000000 -63.800000
v -18.400000 0.000000 -18.000000
v -18.194487 2.742378 -18.000000
v -18.194487 2.742378 -63.800000
v -17.582540 5.423495 -18.000000
v -17.582540 5.423495 -63.800000
v -16.577827 7.983461 -18.000000
v -16.577827 7.983461 -63.800000
v -15.202793 10.365089 -18.000000
v -15.202793 10.365089 -63.800000
v -13.488154 12.515178 -18.000000
v -13.488154 12.515178 -63.800000
v -11.472212 14.385699 -18.000000
v -11.472212 14.385699 -63.800000
v -9.200000 15.934867 -18.000000
v -9.200000 15.934867 -63.800000
v -6.722275 17.128077 -18.000000
v -6.722275 17.128077 -63.800000
v -4.094385 17.938674 -18.000000
v -4.094385 17.938674 -63.800000
v -1.375034 18.348550 -18.000000
v -1.375034 18.348550 -63.800000
v 1.375034 18.348550 -18.000000
v 1.375034 18.348550 -63.800000
v 4.094385 17.938674 -18.000000
v 4.094385 17.938674 -63.800000
v 6.722275 17.128077 -18.000000
v 6.722275 17.128077 -63.800000
v 9.200000 15.934867 -18.000000
v 9.200000 15.934867 -63.800000
v 11.472212 14.385699 -18.000000
v 11.472212 14.385699 -63.800000
v 13.488154 12.515178 -18.000000
v 13.488154 12.515178 -63.800000
v 15.202793 10.365089 -18.000000
v 15.202793 10.365089 -63.800000
v 16.577827 7.983461 -18.000000
v 16.577827 7.983461 -63.800000
v 17.582540 5.423495 -18.000000
v 17.582540 5.423495 -63.800000
v 18.194487 2.742378 -18.000000
v 18.194487 2.742378 -63.800000
v 18.400000 0.000000 -18.000000
v 18.400000 0.000000 -63.800000
v 18.194487 -2.742378 -18.000000
v 18.194487 -2.742378 -63.800000
v 17.582540 -5.423495 -18.000000
v 17.582540 -5.423495 -63.800000
v 16.577827 -7.983461 -18.000000
v 16.577827 -7.983461 -63.800000
v 15.202793 -10.365089 -18.000000
v 15.202793 -10.365089 -63.800000
v 13.488154 -12.515178 -18.000000
v 13.488154 -12.515178 -63.800000
v 11.472212 -14.385699 -18.000000
v 11.472212 -14.385699 -63.800000
v 9.200000 -15.934867 -18.000000
v 9.200000 -15.934867 -63.800000
v 6.722275 -17.128077 -18.000000
v 6.722275 -17.128077 -63.800000
v 4.094385 -17.938674 -18.000000
v 4.094385 -17.938674 -63.800000
v 1.375034 -18.348550 -18.000000
v 1.375034 -18.348550 -63.800000
v -1.375034 -18.348550 -18.000000
v -1.375034 -18.348550 -63.800000
v -4.094385 -17.938674 -18.000000
v -4.094385 -17.938674 -63.800000
v -6.722275 -17.128077 -18.000000
v -6.722275 -17.128077 -63.800000
v -9.200000 -15.934867 -18.000000
v -9.200000 -15.934867 -63.800000
v -11.472212 -14.385699 -18.000000
v -11.472212 -14.385699 -63.800000
v -13.488154 -12.515178 -18.000000
v -13.488154 -12.515178 -63.800000
v -15.202793 -10.365089 -18.000000
v -15.202793 -10.365089 -63.800000
v -16.577827 -7.983461 -18.000000
v -16.577827 -7.983461 -63.800000
v -17.582540 -5.423495 -18.000000
v -17.582540 -5.423495 -63.800000
v -18.194487 -2.742378 -18.000000
v -18.194487 -2.742378 -63.800000
v -18.194487 2.742378 -18.000000
v -4.000000 0.000000 -18.000000
v -3.804226 1.236068 -18.000000
v -18.194487 -2.742378 -18.000000
v -17.582540 -5.423495 -18.000000
v -3.804226 -1.236068 -18.000000
v -13.488154 -12.515178 -18.000000
v -11.472212 -14.385699 -18.000000
v -2.351141 -3.236068 -18.000000
v -9.200000 -15.934867 -18.000000
v -6.722275 -17.128077 -18.000000
v -1.236068 -3.804226 -18.000000
v -17.582540 5.423495 -18.000000
v -18.400000 0.000000 -18.000000
v -16.577827 -7.983461 -18.000000
v -15.202793 -10.365089 -18.000000
v -3.236068 -2.351141 -18.000000
v -4.094385 -17.938674 -18.000000
v -1.375034 -18.348550 -18.000000
v 0.000000 -4.000000 -18.000000
v 4.094385 -17.938674 -18.000000
v 1.236068 -3.804226 -18.000000
v 1.375034 -18.348550 -18.000000
v 9.200000 -15.934867 -18.000000
v 2.351141 -3.236068 -18.000000
v 18.194487 2.742378 -18.000000
v 17.582540 5.423495 -18.000000
v 3.804226 1.236068 -18.000000
v 16.577827 7.983461 -18.000000
v 15.202793 10.365089 -18.000000
v 3.236068 2.351141 -18.000000
v 13.488154 12.515178 -18.000000
v 11.472212 14.385699 -18.000000
v 2.351141 3.236068 -18.000000
v 9.200000 15.934867 -18.000000
v 6.722275 17.128077 -18.000000
v 1.236068 3.804226 -18.000000
v 4.094385 17.938674 -18.000000
v 1.375034 18.348550 -18.000000
v 0.000000 4.000000 -18.000000
v 6.722275 -17.128077 -18.000000
v 4.000000 0.000000 -18.000000
v 18.400000 0.000000 -18.000000
v -4.094385 17.938674 -18.000000
v -1.236068 3.804226 -18.000000
v -9.200000 15.934867 -18.000000
v -2.351141 3.236068 -18.000000
v -13.488154 12.515178 -18.000000
v -3.236068 2.351141 -18.000000
v 11.472212 -14.385699 -18.000000
v 13.488154 -12.515178 -18.000000
v 3.236068 -2.351141 -18.000000
v -1.375034 18.348550 -18.000000
v -6.722275 17.128077 -18.000000
v -11.472212 14.385699 -18.000000
v -16.577827 7.983461 -18.000000
v 16.577827 -7.983461 -18.000000
v 3.804226 -1.236068 -18.000000
v -15.202793 10.365089 -18.000000
v 15.202793 -10.365089 -18.000000
v 18.194487 -2.742378 -18.000000
v 17.582540 -5.423495 -18.000000
v 4.000000 0.000000 0.000000
v 4.000000 0.000000 -18.000000
v 3.804226 1.236068 -18.000000
v 3.804226 1.236068 0.000000
v 3.236068 2.351141 -18.000000
v 3.236068 2.351141 0.000000
v 2.351141 3.236068 -18.000000
v 2.351141 3.236068 0.000000
v 1.236068 3.804226 -18.000000
v 1.236068 3.804226 0.000000
v 0.000000 4.000000 -18.000000
v 0.000000 4.000000 0.000000
v -1.236068 3.804226 -18.000000
v -1.236068 3.804226 0.000000
v -2.351141 3.236068 -18.000000
v -2.351141 3.236068 0.000000
v -3.236068 2.351141 -18.000000
v -3.236068 2.351141 0.000000
v -3.804226 1.236068 -18.000000
v -3.804226 1.236068 0.000000
v -4.000000 0.000000 -18.000000
v -4.000000 0.000000 0.000000
v -3.804226 -1.236068 -18.000000
v -3.804226 -1.236068 0.000000
v -3.236068 -2.351141 -18.000000
v -3.236068 -2.351141 0.000000
v -2.351141 -3.236068 -18.000000
v -2.351141 -3.236068 0.000000
v -1.236068 -3.804226 -18.000000
v -1.236068 -3.804226 0.000000
v 0.000000 -4.000000 -18.000000
v 0.000000 -4.000000 0.000000
v 1.236068 -3.804226 -18.000000
v 1.236068 -3.804226 0.000000
v 2.351141 -3.236068 -18.000000
v 2.351141 -3.236068 0.000000
v 3.236068 -2.351141 -18.000000
v 3.236068 -2.351141 0.000000
v 3.804226 -1.236068 -18.000000
v 3.804226 -1.236068 0.000000
v 1.451543 7.964558 0.000000
v 2.351141 3.236068 0.000000
v 1.236068 3.804226 0.000000
v 7.964558 1.451543 0.000000
v 3.236068 2.351141 0.000000
v 1.451543 -7.964558 0.000000
v 3.236068 -2.351141 0.000000
v -1.451543 -7.964558 0.000000
v -2.351141 -3.236068 0.000000
v -1.236068 -3.804226 0.000000
v 3.804226 -1.236068 0.000000
v -3.236068 -2.351141 0.000000
v 0.512578 -7.553111 0.000000
v -0.512578 -7.553111 0.000000
v 0.000000 -4.000000 0.000000
v 3.804226 1.236068 0.000000
v 2.351141 -3.236068 0.000000
v 1.236068 -3.804226 0.000000
v -3.804226 -1.236068 0.000000
v 4.000000 0.000000 0.000000
v -1.451543 7.964558 0.000000
v -2.351141 3.236068 0.000000
v -3.236068 2.351141 0.000000
v -0.512578 7.553111 0.000000
v -1.236068 3.804226 0.000000
v 2.146430 8.718267 0.000000
v 8.718267 2.146430 0.000000
v 0.512578 7.553111 0.000000
v 0.000000 4.000000 0.000000
v -7.553111 -0.512578 0.000000
v -8.718267 2.146430 0.000000
v -7.071068 7.071068 0.000000
v -5.705297 8.212770 0.000000
v -9.094224 4.158736 0.000000
v -8.212770 5.705297 0.000000
v -2.146430 8.718267 0.000000
v -4.158736 9.094224 0.000000
v 9.094224 4.158736 0.000000
v -3.804226 1.236068 0.000000
v -2.480392 9.687500 0.000000
v -7.553111 0.512578 0.000000
v 8.718267 -2.146430 0.000000
v 8.212770 -5.705297 0.000000
v 7.071068 -7.071068 0.000000
v -2.146430 -8.718267 0.000000
v -7.071068 -7.071068 0.000000
v -8.212770 -5.705297 0.000000
v -4.158736 -9.094224 0.000000
v -5.705297 -8.212770 0.000000
v -7.964558 -1.451543 0.000000
v -8.718267 -2.146430 0.000000
v -9.094224 -4.158736 0.000000
v 7.071068 7.071068 0.000000
v 8.212770 5.705297 0.000000
v 4.158736 9.094224 0.000000
v 5.705297 8.212770 0.000000
v 9.687500 2.480392 0.000000
v -4.000000 0.000000 0.000000
v -9.687500 2.480392 0.000000
v -7.964558 1.451543 0.000000
v 9.094224 -4.158736 0.000000
v -9.687500 -2.480392 0.000000
v 9.687500 -2.480392 0.000000
v 2.146430 -8.718267 0.000000
v 4.158736 -9.094224 0.000000
v -2.480392 -9.687500 0.000000
v 2.480392 9.687500 0.000000
v 5.705297 -8.212770 0.000000
v 2.480392 -9.687500 0.000000
v 7.553111 0.512578 0.000000
v 7.964558 -1.451543 0.000000
v 7.553111 -0.512578 0.000000
v -2.480392 -9.687500 0.000000
v -2.480392 -9.687500 4.000000
v -4.158736 -9.094224 4.000000
v -4.158736 -9.094224 0.000000
v -5.705297 -8.212770 4.000000
v -5.705297 -8.212770 0.000000
v -7.071068 -7.071068 4.000000
v -7.071068 -7.071068 0.000000
v -8.212770 -5.705297 4.000000
v -8.212770 -5.705297 0.000000
v -9.094224 -4.158736 4.000000
v -9.094224 -4.158736 0.000000
v -9.687500 -2.480392 4.000000
v -9.687500 -2.480392 0.000000
v -8.718267 -2.146430 4.000000
v -9.687500 -2.480392 4.000000
v -9.094224 -4.158736 4.000000
v -7.087188 -4.824272 4.000000
v -8.212770 -5.705297 4.000000
v -2.146430 -8.718267 4.000000
v -3.416749 -7.863056 4.000000
v -6.062253 -6.062253 4.000000
v -4.824272 -7.087188 4.000000
v -7.071068 -7.071068 4.000000
v -5.705297 -8.212770 4.000000
v -1.889152 -8.362592 4.000000
v -7.863056 -3.416749 4.000000
v -8.362592 -1.889152 4.000000
v -4.158736 -9.094224 4.000000
v -2.480392 -9.687500 4.000000
v -9.687500 2.480392 0.000000
v -9.687500 2.480392 4.000000
v -9.094224 4.158736 4.000000
v -9.094224 4.158736 0.000000
v -8.212770 5.705297 4.000000
v -8.212770 5.705297 0.000000
v -7.071068 7.071068 4.000000
v -7.071068 7.071068 0.000000
v -5.705297 8.212770 4.000000
v -5.705297 8.212770 0.000000
v -4.158736 9.094224 4.000000
v -4.158736 9.094224 0.000000
v -2.480392 9.687500 4.000000
v -2.480392 9.687500 0.000000
v -8.718267 2.146430 4.000000
v -7.087188 4.824272 4.000000
v -9.094224 4.158736 4.000000
v -8.212770 5.705297 4.000000
v -4.824272 7.087188 4.000000
v -3.416749 7.863056 4.000000
v -9.687500 2.480392 4.000000
v -2.146430 8.718267 4.000000
v -6.062253 6.062253 4.000000
v -5.705297 8.212770 4.000000
v -7.071068 7.071068 4.000000
v -2.480392 9.687500 4.000000
v -4.158736 9.094224 4.000000
v -8.362592 1.889152 4.000000
v -7.863056 3.416749 4.000000
v -1.889152 8.362592 4.000000
v -8.718267 2.146430 4.000000
v -9.687500 2.480392 4.000000
v -9.687500 2.480392 0.000000
v -9.687500 -2.480392 4.000000
v -8.718267 -2.146430 4.000000
v -8.718267 -2.146430 0.000000
v -7.964558 -1.451543 0.000000
v -8.362592 -1.889152 2.000000
v -8.362592 -1.889152 4.000000
v -7.964558 -1.451543 2.000000
v -7.553111 -0.512578 2.000000
v -7.553111 -0.512578 0.000000
v -7.553111 0.512578 2.000000
v -7.553111 0.512578 0.000000
v -7.964558 1.451543 2.000000
v -7.964558 1.451543 0.000000
v -8.718267 2.146430 0.000000
v -8.362592 1.889152 2.000000
v -8.362592 1.889152 4.000000
v -9.687500 -2.480392 0.000000
v -3.416749 -7.863056 4.000000
v -1.889152 -8.362592 4.000000
v -1.889152 -8.362592 2.000000
v -4.824272 -7.087188 4.000000
v -3.416749 -7.863056 2.000000
v -6.062253 -6.062253 4.000000
v -4.824272 -7.087188 2.000000
v -7.087188 -4.824272 4.000000
v -6.062253 -6.062253 2.000000
v -7.863056 -3.416749 4.000000
v -7.087188 -4.824272 2.000000
v -8.362592 -1.889152 4.000000
v -7.863056 -3.416749 2.000000
v -8.362592 -1.889152 2.000000
v -7.863056 3.416749 4.000000
v -8.362592 1.889152 4.000000
v -8.362592 1.889152 2.000000
v -7.087188 4.824272 4.000000
v -7.863056 3.416749 2.000000
v -6.062253 6.062253 4.000000
v -7.087188 4.824272 2.000000
v -4.824272 7.087188 4.000000
v -6.062253 6.062253 2.000000
v -3.416749 7.863056 4.000000
v -4.824272 7.087188 2.000000
v -1.889152 8.362592 4.000000
v -3.416749 7.863056 2.000000
v -1.889152 8.362592 2.000000
v 2.480392 9.687500 0.000000
v 2.480392 9.687500 4.000000
v 4.158736 9.094224 4.000000
v 4.158736 9.094224 0.000000
v 5.705297 8.212770 4.000000
v 5.705297 8.212770 0.000000
v 7.071068 7.071068 4.000000
v 7.071068 7.071068 0.000000
v 8.212770 5.705297 4.000000
v 8.212770 5.705297 0.000000
v 9.094224 4.158736 4.000000
v 9.094224 4.158736 0.000000
v 9.687500 2.480392 4.000000
v 9.687500 2.480392 0.000000
v 2.146430 8.718267 4.000000
v 2.480392 9.687500 4.000000
v 2.480392 9.687500 0.000000
v -2.480392 9.687500 4.000000
v -2.146430 8.718267 4.000000
v -2.146430 8.718267 0.000000
v -1.451543 7.964558 0.000000
v -1.889152 8.362592 2.000000
v -1.889152 8.362592 4.000000
v -1.451543 7.964558 2.000000
v -0.512578 7.553111 2.000000
v -0.512578 7.553111 0.000000
v 0.512578 7.553111 2.000000
v 0.512578 7.553111 0.000000
v 1.451543 7.964558 2.000000
v 1.451543 7.964558 0.000000
v 2.146430 8.718267 0.000000
v 1.889152 8.362592 2.000000
v 1.889152 8.362592 4.000000
v -2.480392 9.687500 0.000000
v 8.718267 2.146430 4.000000
v 9.687500 2.480392 4.000000
v 9.094224 4.158736 4.000000
v 7.087188 4.824272 4.000000
v 8.212770 5.705297 4.000000
v 2.146430 8.718267 4.000000
v 3.416749 7.863056 4.000000
v 6.062253 6.062253 4.000000
v 4.824272 7.087188 4.000000
v 7.071068 7.071068 4.000000
v 5.705297 8.212770 4.000000
v 1.889152 8.362592 4.000000
v 7.863056 3.416749 4.000000
v 8.362592 1.889152 4.000000
v 4.158736 9.094224 4.000000
v 2.480392 9.687500 4.000000
v 3.416749 7.863056 4.000000
v 1.889152 8.362592 4.000000
v 1.889152 8.362592 2.000000
v 4.824272 7.087188 4.000000
v 3.416749 7.863056 2.000000
v 6.062253 6.062253 4.000000
v 4.824272 7.087188 2.000000
v 7.087188 4.824272 4.000000
v 6.062253 6.062253 2.000000
v 7.863056 3.416749 4.000000
v 7.087188 4.824272 2.000000
v 8.362592 1.889152 4.000000
v 7.863056 3.416749 2.000000
v 8.362592 1.889152 2.000000
v 9.687500 -2.480392 0.000000
v 9.687500 -2.480392 4.000000
v 9.094224 -4.158736 4.000000
v 9.094224 -4.158736 0.000000
v 8.212770 -5.705297 4.000000
v 8.212770 -5.705297 0.000000
v 7.071068 -7.071068 4.000000
v 7.071068 -7.071068 0.000000
v 5.705297 -8.212770 4.000000
v 5.705297 -8.212770 0.000000
v 4.158736 -9.094224 4.000000
v 4.158736 -9.094224 0.000000
v 2.480392 -9.687500 4.000000
v 2.480392 -9.687500 0.000000
v 8.718267 -2.146430 4.000000
v 9.687500 -2.480392 4.000000
v 9.687500 -2.480392 0.000000
v 9.687500 2.480392 4.000000
v 8.718267 2.146430 4.000000
v 8.718267 2.146430 0.000000
v 7.964558 1.451543 0.000000
v 8.362592 1.889152 2.000000
v 8.362592 1.889152 4.000000
v 7.964558 1.451543 2.000000
v 7.553111 0.512578 2.000000
v 7.553111 0.512578 0.000000
v 7.553111 -0.512578 2.000000
v 7.553111 -0.512578 0.000000
v 7.964558 -1.451543 2.000000
v 7.964558 -1.451543 0.000000
v 8.718267 -2.146430 0.000000
v 8.362592 -1.889152 2.000000
v 8.362592 -1.889152 4.000000
v 9.687500 2.480392 0.000000
v -2.146430 -8.718267 4.000000
v -2.480392 -9.687500 4.000000
v -2.480392 -9.687500 0.000000
v 2.480392 -9.687500 4.000000
v 2.146430 -8.718267 4.000000
v 2.146430 -8.718267 0.000000
v 1.451543 -7.964558 0.000000
v 1.889152 -8.362592 2.000000
v 1.889152 -8.362592 4.000000
v 1.451543 -7.964558 2.000000
v 0.512578 -7.553111 2.000000
v 0.512578 -7.553111 0.000000
v -0.512578 -7.553111 2.000000
v -0.512578 -7.553111 0.000000
v -1.451543 -7.964558 2.000000
v -1.451543 -7.964558 0.000000
v -2.146430 -8.718267 0.000000
v -1.889152 -8.362592 2.000000
v -1.889152 -8.362592 4.000000
v 2.480392 -9.687500 0.000000
v 8.212770 -5.705297 4.000000
v 4.824272 -7.087188 4.000000
v 3.416749 -7.863056 4.000000
v 8.718267 -2.146430 4.000000
v 7.087188 -4.824272 4.000000
v 9.094224 -4.158736 4.000000
v 2.146430 -8.718267 4.000000
v 6.062253 -6.062253 4.000000
v 9.687500 -2.480392 4.000000
v 5.705297 -8.212770 4.000000
v 7.071068 -7.071068 4.000000
v 2.480392 -9.687500 4.000000
v 4.158736 -9.094224 4.000000
v 8.362592 -1.889152 4.000000
v 7.863056 -3.416749 4.000000
v 1.889152 -8.362592 4.000000
v 7.863056 -3.416749 4.000000
v 8.362592 -1.889152 4.000000
v 8.362592 -1.889152 2.000000
v 7.087188 -4.824272 4.000000
v 7.863056 -3.416749 2.000000
v 6.062253 -6.062253 4.000000
v 7.087188 -4.824272 2.000000
v 4.824272 -7.087188 4.000000
v 6.062253 -6.062253 2.000000
v 3.416749 -7.863056 4.000000
v 4.824272 -7.087188 2.000000
v 1.889152 -8.362592 4.000000
v 3.416749 -7.863056 2.000000
v 1.889152 -8.362592 2.000000
v 7.863056 3.416749 2.000000
v 1.299038 0.750000 2.000000
v 7.964558 1.451543 2.000000
v 3.416749 7.863056 2.000000
v 1.889152 8.362592 2.000000
v 1.451543 7.964558 2.000000
v 8.362592 1.889152 2.000000
v 1.500000 0.000000 2.000000
v 7.553111 0.512578 2.000000
v 6.062253 6.062253 2.000000
v 4.824272 7.087188 2.000000
v 0.750000 1.299038 2.000000
v 7.087188 4.824272 2.000000
v 0.512578 7.553111 2.000000
v -0.512578 7.553111 2.000000
v 0.000000 1.500000 2.000000
v -3.416749 7.863056 2.000000
v -0.750000 1.299038 2.000000
v -1.451543 7.964558 2.000000
v -7.863056 -3.416749 2.000000
v -1.299038 -0.750000 2.000000
v -7.964558 -1.451543 2.000000
v -3.416749 -7.863056 2.000000
v -1.889152 -8.362592 2.000000
v -1.451543 -7.964558 2.000000
v 3.416749 -7.863056 2.000000
v 0.750000 -1.299038 2.000000
v 1.451543 -7.964558 2.000000
v 7.863056 -3.416749 2.000000
v 8.362592 -1.889152 2.000000
v 7.964558 -1.451543 2.000000
v -1.889152 8.362592 2.000000
v -7.863056 3.416749 2.000000
v -8.362592 1.889152 2.000000
v -7.964558 1.451543 2.000000
v -8.362592 -1.889152 2.000000
v -1.500000 0.000000 2.000000
v -7.553111 -0.512578 2.000000
v -6.062253 -6.062253 2.000000
v -4.824272 -7.087188 2.000000
v -0.750000 -1.299038 2.000000
v 1.889152 -8.362592 2.000000
v 0.000000 -1.500000 2.000000
v 0.512578 -7.553111 2.000000
v 6.062253 -6.062253 2.000000
v 7.087188 -4.824272 2.000000
v 1.299038 -0.750000 2.000000
v -6.062253 6.062253 2.000000
v -7.087188 4.824272 2.000000
v -1.299038 0.750000 2.000000
v -7.087188 -4.824272 2.000000
v -0.512578 -7.553111 2.000000
v 4.824272 -7.087188 2.000000
v 7.553111 -0.512578 2.000000
v -4.824272 7.087188 2.000000
v -7.553111 0.512578 2.000000
v -1.299038 -0.750000 -18.000000
v -1.500000 0.000000 -18.000000
v -1.500000 0.000000 2.000000
v -0.750000 -1.299038 -18.000000
v -1.299038 -0.750000 2.000000
v 0.000000 -1.500000 -18.000000
v -0.750000 -1.299038 2.000000
v 0.750000 -1.299038 -18.000000
v 0.000000 -1.500000 2.000000
v 1.299038 -0.750000 -18.000000
v 0.750000 -1.299038 2.000000
v 1.500000 0.000000 -18.000000
v 1.299038 -0.750000 2.000000
v 1.299038 0.750000 -18.000000
v 1.500000 0.000000 2.000000
v 0.750000 1.299038 -18.000000
v 1.299038 0.750000 2.000000
v 0.000000 1.500000 -18.000000
v 0.750000 1.299038 2.000000
v -0.750000 1.299038 -18.000000
v 0.000000 1.500000 2.000000
v -1.299038 0.750000 -18.000000
v -0.750000 1.299038 2.000000
v -1.299038 0.750000 2.000000
v 0.000000 0.000000 -18.000000
v -1.299038 -0.750000 -18.000000
v -0.750000 -1.299038 -18.000000
v 0.000000 -1.500000 -18.000000
v 0.750000 -1.299038 -18.000000
v 1.299038 -0.750000 -18.000000
v 1.500000 0.000000 -18.000000
v 1.299038 0.750000 -18.000000
v 0.750000 1.299038 -18.000000
v 0.000000 1.500000 -18.000000
v -0.750000 1.299038 -18.000000
v -1.299038 0.750000 -18.000000
v -1.500000 0.000000 -18.000000
vn 0.000 0.000 -1.000
vn 0.000 0.000 -1.000
vn 0.000 0.000 -1.000
vn 0.000 0.000 -1.000
vn 0.000 0.000 -1.000
vn 0.000 0.000 -1.000
vn 0.000 0.000 -1.000
vn 0.000 0.000 -1.000
vn 0.000 0.000 -1.000
vn 0.000 0.000 -1.000
vn 0.000 0.000 -1.000
vn 0.000 0.000 -1.000
vn 0.000 0.000 -1.000
vn 0.000 0.000 -1.000
vn 0.000 0.000 -1.000
vn 0.000 0.000 -1.000
vn 0.000 0.000 -1.000
vn 0.000 0.000 -1.000
vn 0.000 0.000 -1.000
vn 0.000 0.000 -1.000
vn 0.000 0.000 -1.000
vn 0.000 0.000 -1.000
vn 0.000 0.000 -1.000
vn 0.000 0.000 -1.000
vn 0.000 0.000 -1.000
vn 0.000 0.000 -1.000
vn 0.000 0.000 -1.000
vn 0.000 0.000 -1.000
vn 0.000 0.000 -1.000
vn 0.000 0.000 -1.000
vn 0.000 0.000 -1.000
vn 0.000 0.000 -1.000
vn 0.000 0.000 -1.000
vn 0.000 0.000 -1.000
vn 0.000 0.000 -1.000
vn 0.000 0.000 -1.000
vn 0.000 0.000 -1.000
vn 0.000 0.000 -1.000
vn 0.000 0.000 -1.000
vn 0.000 0.000 -1.000
vn 0.000 0.000 -1.000
vn 0.000 0.000 -1.000
vn 0.000 0.000 -1.000
vn -1.000 0.000 0.000
vn -1.000 0.000 0.000
vn -0.989 0.149 0.000
vn -0.989 0.149 0.000
vn -0.956 0.295 0.000
vn -0.956 0.295 0.000
vn -0.901 0.434 0.000
vn -0.901 0.434 0.000
vn -0.826 0.563 0.000
vn -0.826 0.563 0.000
vn -0.733 0.680 0.000
vn -0.733 0.680 0.000
vn -0.623 0.782 0.000
vn -0.623 0.782 0.000
vn -0.500 0.866 0.000
vn -0.500 0.866 0.000
vn -0.365 0.931 0.000
vn -0.365 0.931 0.000
vn -0.223 0.975 0.000
vn -0.223 0.975 0.000
vn -0.075 0.997 0.000
vn -0.075 0.997 0.000
vn 0.075 0.997 0.000
vn 0.075 0.997 0.000
vn 0.223 0.975 0.000
vn 0.223 0.975 0.000
vn 0.365 0.931 0.000
vn 0.365 0.931 0.000
vn 0.500 0.866 0.000
vn 0.500 0.866 0.000
vn 0.623 0.782 0.000
vn 0.623 0.782 0.000
vn 0.733 0.680 0.000
vn 0.733 0.680 0.000
vn 0.826 0.563 0.000
vn 0.826 0.563 0.000
vn 0.901 0.434 0.000
vn 0.901 0.434 0.000
vn 0.956 0.295 0.000
vn 0.956 0.295 0.000
vn 0.989 0.149 0.000
vn 0.989 0.149 0.000
vn 1.000 0.000 0.000
vn 1.000 0.000 0.000
vn 0.989 -0.149 0.000
vn 0.989 -0.149 0.000
vn 0.956 -0.295 0.000
vn 0.956 -0.295 0.000
vn 0.901 -0.434 0.000
vn 0.901 -0.434 0.000
vn 0.826 -0.563 0.000
vn 0.826 -0.563 0.000
vn 0.733 -0.680 0.000
vn 0.733 -0.680 0.000
vn 0.623 -0.782 0.000
vn 0.623 -0.782 0.000
vn 0.500 -0.866 0.000
vn 0.500 -0.866 0.000
vn 0.365 -0.931 0.000
vn 0.365 -0.931 0.000
vn 0.223 -0.975 0.000
vn 0.223 -0.975 0.000
vn 0.075 -0.997 0.000
vn 0.075 -0.997 0.000
vn -0.075 -0.997 0.000
vn -0.075 -0.997 0.000
vn -0.223 -0.975 0.000
vn -0.223 -0.975 0.000
vn -0.365 -0.931 0.000
vn -0.365 -0.931 0.000
vn -0.500 -0.866 0.000
vn -0.500 -0.866 0.000
vn -0.623 -0.782 0.000
vn -0.623 -0.782 0.000
vn -0.733 -0.680 0.000
vn -0.733 -0.680 0.000
vn -0.826 -0.563 0.000
vn -0.826 -0.563 0.000
vn -0.901 -0.434 0.000
vn -0.901 -0.434 0.000
vn -0.956 -0.295 0.000
vn -0.956 -0.295 0.000
vn -0.989 -0.149 0.000
vn -0.989 -0.149 0.000
vn 0.000 0.000 1.000
vn 0.000 0.000 1.000
vn 0.000 0.000 1.000
vn 0.000 0.000 1.000
vn 0.000 0.000 1.000
vn 0.000 0.000 1.000
vn 0.000 0.000 1.000
vn 0.000 0.000 1.000
vn 0.000 0.000 1.000
vn 0.000 0.000 1.000
vn 0.000 0.000 1.000
vn 0.000 0.000 1.000
vn 0.000 0.000 1.000
vn 0.000 0.000 1.000
vn 0.000 0.000 1.000
vn 0.000 0.000 1.000
vn 0.000 0.000 1.000
vn 0.000 0.000 1.000
vn 0.000 0.000 1.000
vn 0.000 0.000 1.000
vn 0.000 0.000 1.000
vn 0.000 0.000 1.000
vn 0.000 0.000 1.000
vn 0.000 0.000 1.000
vn 0.000 0.000 1.000
vn 0.000 0.000 1.000
vn 0.000 0.000 1.000
vn 0.000 0.000 1.000
vn 0.000 0.000 1.000
vn 0.000 0.000 1.000
vn 0.000 0.000 1.000
vn 0.000 0.000 1.000
vn 0.000 0.000 1.000
vn 0.000 0.000 1.000
vn 0.000 0.000 1.000
vn 0.000 0.000 1.000
vn 0.000 0.000 1.000
vn 0.000 0.000 1.000
vn 0.000 0.000 1.000
vn 0.000 0.000 1.000
vn 0.000 0.000 1.000
vn 0.000 0.000 1.000
vn 0.000 0.000 1.000
vn 0.000 0.000 1.000
vn 0.000 0.000 1.000
vn 0.000 0.000 1.000
vn 0.000 0.000 1.000
vn 0.000 0.000 1.000
vn 0.000 0.000 1.000
vn 0.000 0.000 1.000
vn 0.000 0.000 1.000
vn 0.000 0.000 1.000
vn 0.000 0.000 1.000
vn 0.000 0.000 1.000
vn 0.000 0.000 1.000
vn 0.000 0.000 1.000
vn 0.000 0.000 1.000
vn 0.000 0.000 1.000
vn 0.000 0.000 1.000
vn 0.000 0.000 1.000
vn 0.000 0.000 1.000
vn 0.000 0.000 1.000
vn 1.000 0.000 0.000
vn 1.000 0.000 0.000
vn 0.951 0.309 0.000
vn 0.951 0.309 0.000
vn 0.809 0.588 0.000
vn 0.809 0.588 0.000
vn 0.588 0.809 0.000
vn 0.588 0.809 0.000
vn 0.309 0.951 0.000
vn 0.309 0.951 0.000
vn 0.000 1.000 0.000
vn 0.000 1.000 0.000
vn -0.309 0.951 0.000
vn -0.309 0.951 0.000
vn -0.588 0.809 0.000
vn -0.588 0.809 0.000
vn -0.809 0.588 0.000
vn -0.809 0.588 0.000
vn -0.951 0.309 0.000
vn -0.951 0.309 0.000
vn -1.000 0.000 0.000
vn -1.000 0.000 0.000
vn -0.951 -0.309 0.000
vn -0.951 -0.309 0.000
vn -0.809 -0.588 0.000
vn -0.809 -0.588 0.000
vn -0.588 -0.809 0.000
vn -0.588 -0.809 0.000
vn -0.309 -0.951 0.000
vn -0.309 -0.951 0.000
vn 0.000 -1.000 0.000
vn 0.000 -1.000 0.000
vn 0.309 -0.951 0.000
vn 0.309 -0.951 0.000
vn 0.588 -0.809 0.000
vn 0.588 -0.809 0.000
vn 0.809 -0.588 0.000
vn 0.809 -0.588 0.000
vn 0.951 -0.309 0.000
vn 0.951 -0.309 0.000
vn 0.000 0.000 -1.000
vn 0.000 0.000 -1.000
vn 0.000 0.000 -1.000
vn 0.000 0.000 -1.000
vn 0.000 0.000 -1.000
vn 0.000 0.000 -1.000
vn 0.000 0.000 -1.000
vn 0.000 0.000 -1.000
vn 0.000 0.000 -1.000
vn 0.000 0.000 -1.000
vn 0.000 0.000 -1.000
vn 0.000 0.000 -1.000
vn 0.000 0.000 -1.000
vn 0.000 0.000 -1.000
vn 0.000 0.000 -1.000
vn 0.000 0.000 -1.000
vn 0.000 0.000 -1.000
vn 0.000 0.000 -1.000
vn 0.000 0.000 -1.000
vn 0.000 0.000 -1.000
vn 0.000 0.000 -1.000
vn 0.000 0.000 -1.000
vn 0.000 0.000 -1.000
vn 0.000 0.000 -1.000
vn 0.000 0.000 -1.000
vn 0.000 0.000 -1.000
vn 0.000 0.000 -1.000
vn 0.000 0.000 -1.000
vn 0.000 0.000 -1.000
vn 0.000 0.000 -1.000
vn 0.000 0.000 -1.000
vn 0.000 0.000 -1.000
vn 0.000 0.000 -1.000
vn 0.000 0.000 -1.000
vn 0.000 0.000 -1.000
vn 0.000 0.000 -1.000
vn 0.000 0.000 -1.000
vn 0.000 0.000 -1.000
vn 0.000 0.000 -1.000
vn 0.000 0.000 -1.000
vn 0.000 0.000 -1.000
vn 0.000 0.000 -1.000
vn 0.000 0.000 -1.000
vn 0.000 0.000 -1.000
vn 0.000 0.000 -1.000
vn 0.000 0.000 -1.000
vn 0.000 0.000 -1.000
vn 0.000 0.000 -1.000
vn 0.000 0.000 -1.000
vn 0.000 0.000 -1.000
vn 0.000 0.000 -1.000
vn 0.000 0.000 -1.000
vn 0.000 0.000 -1.000
vn 0.000 0.000 -1.000
vn 0.000 0.000 -1.000
vn 0.000 0.000 -1.000
vn 0.000 0.000 -1.000
vn 0.000 0.000 -1.000
vn 0.000 0.000 -1.000
vn 0.000 0.000 -1.000
vn 0.000 0.000 -1.000
vn 0.000 0.000 -1.000
vn 0.000 0.000 -1.000
vn 0.000 0.000 -1.000
vn 0.000 0.000 -1.000
vn 0.000 0.000 -1.000
vn 0.000 0.000 -1.000
vn 0.000 0.000 -1.000
vn 0.000 0.000 -1.000
vn 0.000 0.000 -1.000
vn 0.000 0.000 -1.000
vn 0.000 0.000 -1.000
vn -0.248 -0.969 0.000
vn -0.248 -0.969 0.000
vn -0.416 -0.909 0.000
vn -0.416 -0.909 0.000
vn -0.571 -0.821 0.000
vn -0.571 -0.821 0.000
vn -0.707 -0.707 0.000
vn -0.707 -0.707 0.000
vn -0.821 -0.571 0.000
vn -0.821 -0.571 0.000
vn -0.909 -0.416 0.000
vn -0.909 -0.416 0.000
vn -0.969 -0.248 0.000
vn -0.969 -0.248 0.000
vn 0.000 0.000 1.000
vn 0.000 0.000 1.000
vn 0.000 0.000 1.000
vn 0.000 0.000 1.000
vn 0.000 0.000 1.000
vn 0.000 0.000 1.000
vn 0.000 0.000 1.000
vn 0.000 0.000 1.000
vn 0.000 0.000 1.000
vn 0.000 0.000 1.000
vn 0.000 0.000 1.000
vn 0.000 0.000 1.000
vn 0.000 0.000 1.000
vn 0.000 0.000 1.000
vn 0.000 0.000 1.000
vn 0.000 0.000 1.000
vn -0.969 0.248 0.000
vn -0.969 0.248 0.000
vn -0.909 0.416 0.000
vn -0.909 0.416 0.000
vn -0.821 0.571 0.000
vn -0.821 0.571 0.000
vn -0.707 0.707 0.000
vn -0.707 0.707 0.000
vn -0.571 0.821 0.000
vn -0.571 0.821 0.000
vn -0.416 0.909 0.000
vn -0.416 0.909 0.000
vn -0.248 0.969 0.000
vn -0.248 0.969 0.000
vn 0.000 0.000 1.000
vn 0.000 0.000 1.000
vn 0.000 0.000 1.000
vn 0.000 0.000 1.000
vn 0.000 0.000 1.000
vn 0.000 0.000 1.000
vn 0.000 0.000 1.000
vn 0.000 0.000 1.000
vn 0.000 0.000 1.000
vn 0.000 0.000 1.000
vn 0.000 0.000 1.000
vn 0.000 0.000 1.000
vn 0.000 0.000 1.000
vn 0.000 0.000 1.000
vn 0.000 0.000 1.000
vn 0.000 0.000 1.000
vn -0.513 -0.859 0.000
vn -0.125 -0.992 0.000
vn -0.125 -0.992 0.000
vn -0.125 0.992 0.000
vn -0.513 0.859 0.000
vn -0.513 0.859 0.000
vn -0.814 0.581 0.000
vn -0.655 0.756 0.000
vn -0.655 0.756 0.000
vn -0.814 0.581 0.000
vn -0.979 0.205 0.000
vn -0.979 0.205 0.000
vn -0.979 -0.205 0.000
vn -0.979 -0.205 0.000
vn -0.814 -0.581 0.000
vn -0.814 -0.581 0.000
vn -0.513 -0.859 0.000
vn -0.655 -0.756 0.000
vn -0.655 -0.756 0.000
vn -0.125 0.992 0.000
vn 0.399 0.917 0.000
vn 0.220 0.975 0.000
vn 0.220 0.975 0.000
vn 0.563 0.827 0.000
vn 0.399 0.917 0.000
vn 0.707 0.707 0.000
vn 0.563 0.827 0.000
vn 0.827 0.563 0.000
vn 0.707 0.707 0.000
vn 0.917 0.399 0.000
vn 0.827 0.563 0.000
vn 0.975 0.220 0.000
vn 0.917 0.399 0.000
vn 0.975 0.220 0.000
vn 0.917 -0.399 0.000
vn 0.975 -0.220 0.000
vn 0.975 -0.220 0.000
vn 0.827 -0.563 0.000
vn 0.917 -0.399 0.000
vn 0.707 -0.707 0.000
vn 0.827 -0.563 0.000
vn 0.563 -0.827 0.000
vn 0.707 -0.707 0.000
vn 0.399 -0.917 0.000
vn 0.563 -0.827 0.000
vn 0.220 -0.975 0.000
vn 0.399 -0.917 0.000
vn 0.220 -0.975 0.000
vn 0.248 0.969 0.000
vn 0.248 0.969 0.000
vn 0.416 0.909 0.000
vn 0.416 0.909 0.000
vn 0.571 0.821 0.000
vn 0.571 0.821 0.000
vn 0.707 0.707 0.000
vn 0.707 0.707 0.000
vn 0.821 0.571 0.000
vn 0.821 0.571 0.000
vn 0.909 0.416 0.000
vn 0.909 0.416 0.000
vn 0.969 0.248 0.000
vn 0.969 0.248 0.000
vn -0.859 0.513 0.000
vn -0.992 0.125 0.000
vn -0.992 0.125 0.000
vn 0.992 0.125 0.000
vn 0.859 0.513 0.000
vn 0.859 0.513 0.000
vn 0.581 0.814 0.000
vn 0.756 0.655 0.000
vn 0.756 0.655 0.000
vn 0.581 0.814 0.000
vn 0.205 0.979 0.000
vn 0.205 0.979 0.000
vn -0.205 0.979 0.000
vn -0.205 0.979 0.000
vn -0.581 0.814 0.000
vn -0.581 0.814 0.000
vn -0.859 0.513 0.000
vn -0.756 0.655 0.000
vn -0.756 0.655 0.000
vn 0.992 0.125 0.000
vn 0.000 0.000 1.000
vn 0.000 0.000 1.000
vn 0.000 0.000 1.000
vn 0.000 0.000 1.000
vn 0.000 0.000 1.000
vn 0.000 0.000 1.000
vn 0.000 0.000 1.000
vn 0.000 0.000 1.000
vn 0.000 0.000 1.000
vn 0.000 0.000 1.000
vn 0.000 0.000 1.000
vn 0.000 0.000 1.000
vn 0.000 0.000 1.000
vn 0.000 0.000 1.000
vn 0.000 0.000 1.000
vn 0.000 0.000 1.000
vn -0.399 -0.917 0.000
vn -0.220 -0.975 0.000
vn -0.220 -0.975 0.000
vn -0.563 -0.827 0.000
vn -0.399 -0.917 0.000
vn -0.707 -0.707 0.000
vn -0.563 -0.827 0.000
vn -0.827 -0.563 0.000
vn -0.707 -0.707 0.000
vn -0.917 -0.399 0.000
vn -0.827 -0.563 0.000
vn -0.975 -0.220 0.000
vn -0.917 -0.399 0.000
vn -0.975 -0.220 0.000
vn 0.969 -0.248 0.000
vn 0.969 -0.248 0.000
vn 0.909 -0.416 0.000
vn 0.909 -0.416 0.000
vn 0.821 -0.571 0.000
vn 0.821 -0.571 0.000
vn 0.707 -0.707 0.000
vn 0.707 -0.707 0.000
vn 0.571 -0.821 0.000
vn 0.571 -0.821 0.000
vn 0.416 -0.909 0.000
vn 0.416 -0.909 0.000
vn 0.248 -0.969 0.000
vn 0.248 -0.969 0.000
vn 0.513 0.859 0.000
vn 0.125 0.992 0.000
vn 0.125 0.992 0.000
vn 0.125 -0.992 0.000
vn 0.513 -0.859 0.000
vn 0.513 -0.859 0.000
vn 0.814 -0.581 0.000
vn 0.655 -0.756 0.000
vn 0.655 -0.756 0.000
vn 0.814 -0.581 0.000
vn 0.979 -0.205 0.000
vn 0.979 -0.205 0.000
vn 0.979 0.205 0.000
vn 0.979 0.205 0.000
vn 0.814 0.581 0.000
vn 0.814 0.581 0.000
vn 0.513 0.859 0.000
vn 0.655 0.756 0.000
vn 0.655 0.756 0.000
vn 0.125 -0.992 0.000
vn 0.859 -0.513 0.000
vn 0.992 -0.125 0.000
vn 0.992 -0.125 0.000
vn -0.992 -0.125 0.000
vn -0.859 -0.513 0.000
vn -0.859 -0.513 0.000
vn -0.581 -0.814 0.000
vn -0.756 -0.655 0.000
vn -0.756 -0.655 0.000
vn -0.581 -0.814 0.000
vn -0.205 -0.979 0.000
vn -0.205 -0.979 0.000
vn 0.205 -0.979 0.000
vn 0.205 -0.979 0.000
vn 0.581 -0.814 0.000
vn 0.581 -0.814 0.000
vn 0.859 -0.513 0.000
vn 0.756 -0.655 0.000
vn 0.756 -0.655 0.000
vn -0.992 -0.125 0.000
vn 0.000 0.000 1.000
vn 0.000 0.000 1.000
vn 0.000 0.000 1.000
vn 0.000 0.000 1.000
vn 0.000 0.000 1.000
vn 0.000 0.000 1.000
vn 0.000 0.000 1.000
vn 0.000 0.000 1.000
vn 0.000 0.000 1.000
vn 0.000 0.000 1.000
vn 0.000 0.000 1.000
vn 0.000 0.000 1.000
vn 0.000 0.000 1.000
vn 0.000 0.000 1.000
vn 0.000 0.000 1.000
vn 0.000 0.000 1.000
vn -0.917 0.399 0.000
vn -0.975 0.220 0.000
vn -0.975 0.220 0.000
vn -0.827 0.563 0.000
vn -0.917 0.399 0.000
vn -0.707 0.707 0.000
vn -0.827 0.563 0.000
vn -0.563 0.827 0.000
vn -0.707 0.707 0.000
vn -0.399 0.917 0.000
vn -0.563 0.827 0.000
vn -0.220 0.975 0.000
vn -0.399 0.917 0.000
vn -0.220 0.975 0.000
vn 0.000 0.000 1.000
vn 0.000 0.000 1.000
vn 0.000 0.000 1.000
vn 0.000 0.000 1.000
vn 0.000 0.000 1.000
vn 0.000 0.000 1.000
vn 0.000 0.000 1.000
vn 0.000 0.000 1.000
vn 0.000 0.000 1.000
vn 0.000 0.000 1.000
vn 0.000 0.000 1.000
vn 0.000 0.000 1.000
vn 0.000 0.000 1.000
vn 0.000 0.000 1.000
vn 0.000 0.000 1.000
vn 0.000 0.000 1.000
vn 0.000 0.000 1.000
vn 0.000 0.000 1.000
vn 0.000 0.000 1.000
vn 0.000 0.000 1.000
vn 0.000 0.000 1.000
vn 0.000 0.000 1.000
vn 0.000 0.000 1.000
vn 0.000 0.000 1.000
vn 0.000 0.000 1.000
vn 0.000 0.000 1.000
vn 0.000 0.000 1.000
vn 0.000 0.000 1.000
vn 0.000 0.000 1.000
vn 0.000 0.000 1.000
vn 0.000 0.000 1.000
vn 0.000 0.000 1.000
vn 0.000 0.000 1.000
vn 0.000 0.000 1.000
vn 0.000 0.000 1.000
vn 0.000 0.000 1.000
vn 0.000 0.000 1.000
vn 0.000 0.000 1.000
vn 0.000 0.000 1.000
vn 0.000 0.000 1.000
vn 0.000 0.000 1.000
vn 0.000 0.000 1.000
vn 0.000 0.000 1.000
vn 0.000 0.000 1.000
vn 0.000 0.000 1.000
vn 0.000 0.000 1.000
vn 0.000 0.000 1.000
vn 0.000 0.000 1.000
vn 0.000 0.000 1.000
vn 0.000 0.000 1.000
vn 0.000 0.000 1.000
vn 0.000 0.000 1.000
vn 0.000 0.000 1.000
vn 0.000 0.000 1.000
vn 0.000 0.000 1.000
vn 0.000 0.000 1.000
vn 0.866 0.500 0.000
vn 1.000 0.000 0.000
vn 1.000 0.000 0.000
vn 0.500 0.866 0.000
vn 0.866 0.500 0.000
vn 0.000 1.000 0.000
vn 0.500 0.866 0.000
vn -0.500 0.866 0.000
vn 0.000 1.000 0.000
vn -0.866 0.500 0.000
vn -0.500 0.866 0.000
vn -1.000 0.000 0.000
vn -0.866 0.500 0.000
vn -0.866 -0.500 0.000
vn -1.000 0.000 0.000
vn -0.500 -0.866 0.000
vn -0.866 -0.500 0.000
vn 0.000 -1.000 0.000
vn -0.500 -0.866 0.000
vn 0.500 -0.866 0.000
vn 0.000 -1.000 0.000
vn 0.866 -0.500 0.000
vn 0.500 -0.866 0.000
vn 0.866 -0.500 0.000
vn 0.000 0.000 1.000
vn 0.000 0.000 1.000
vn 0.000 0.000 1.000
vn 0.000 0.000 1.000
vn 0.000 0.000 1.000
vn 0.000 0.000 1.000
vn 0.000 0.000 1.000
vn 0.000 0.000 1.000
vn 0.000 0.000 1.000
vn 0.000 0.000 1.000
vn 0.000 0.000 1.000
vn 0.000 0.000 1.000
vn 0.000 0.000 1.000
vt -0.0184 0.0000 0
vt -0.0366 0.0027 0
vt -0.0360 0.0054 0
vt -0.0350 0.0080 0
vt -0.0336 0.0104 0
vt -0.0319 0.0125 0
vt -0.0299 0.0144 0
vt -0.0276 0.0159 0
vt -0.0251 0.0171 0
vt -0.0225 0.0179 0
vt -0.0198 0.0183 0
vt -0.0170 0.0183 0
vt -0.0143 0.0179 0
vt -0.0117 0.0171 0
vt -0.0092 0.0159 0
vt -0.0069 0.0144 0
vt -0.0049 0.0125 0
vt -0.0032 0.0104 0
vt -0.0018 0.0080 0
vt -0.0008 0.0054 0
vt -0.0002 0.0027 0
vt 0.0000 0.0000 0
vt -0.0002 -0.0027 0
vt -0.0008 -0.0054 0
vt -0.0018 -0.0080 0
vt -0.0032 -0.0104 0
vt -0.0049 -0.0125 0
vt -0.0069 -0.0144 0
vt -0.0092 -0.0159 0
vt -0.0117 -0.0171 0
vt -0.0143 -0.0179 0
vt -0.0170 -0.0183 0
vt -0.0198 -0.0183 0
vt -0.0225 -0.0179 0
vt -0.0251 -0.0171 0
vt -0.0276 -0.0159 0
vt -0.0299 -0.0144 0
vt -0.0319 -0.0125 0
vt -0.0336 -0.0104 0
vt -0.0350 -0.0080 0
vt -0.0360 -0.0054 0
vt -0.0366 -0.0027 0
vt -0.0368 0.0000 0
vt 6.2832 0.0000 0
vt 6.2832 -0.0458 0
vt 6.4328 -0.0458 0
vt 6.4328 0.0000 0
vt 0.2992 -0.0458 0
vt 0.2992 0.0000 0
vt 0.4488 -0.0458 0
vt 0.4488 0.0000 0
vt 0.5984 -0.0458 0
vt 0.5984 0.0000 0
vt 0.7480 -0.0458 0
vt 0.7480 0.0000 0
vt 0.8976 -0.0458 0
vt 0.8976 0.0000 0
vt 1.0472 -0.0458 0
vt 1.0472 0.0000 0
vt 1.1968 -0.0458 0
vt 1.1968 0.0000 0
vt 1.3464 -0.0458 0
vt 1.3464 0.0000 0
vt 1.4960 -0.0458 0
vt 1.4960 0.0000 0
vt 1.6456 -0.0458 0
vt 1.6456 0.0000 0
vt 1.7952 -0.0458 0
vt 1.7952 0.0000 0
vt 1.9448 -0.0458 0
vt 1.9448 0.0000 0
vt 2.0944 -0.0458 0
vt 2.0944 0.0000 0
vt 2.2440 -0.0458 0
vt 2.2440 0.0000 0
vt 2.3936 -0.0458 0
vt 2.3936 0.0000 0
vt 2.5432 -0.0458 0
vt 2.5432 0.0000 0
vt 2.6928 -0.0458 0
vt 2.6928 0.0000 0
vt 2.8424 -0.0458 0
vt 2.8424 0.0000 0
vt 2.9920 -0.0458 0
vt 2.9920 0.0000 0
vt 3.1416 -0.0458 0
vt 3.1416 0.0000 0
vt 3.2912 -0.0458 0
vt 3.2912 0.0000 0
vt 3.4408 -0.0458 0
vt 3.4408 0.0000 0
vt 3.5904 -0.0458 0
vt 3.5904 0.0000 0
vt 3.7400 -0.0458 0
vt 3.7400 0.0000 0
vt 3.8896 -0.0458 0
vt 3.8896 0.0000 0
vt 4.0392 -0.0458 0
vt 4.0392 0.0000 0
vt 4.1888 -0.0458 0
vt 4.1888 0.0000 0
vt 4.3384 -0.0458 0
vt 4.3384 0.0000 0
vt 4.4880 -0.0458 0
vt 4.4880 0.0000 0
vt 4.6376 -0.0458 0
vt 4.6376 0.0000 0
vt 4.7872 -0.0458 0
vt 4.7872 0.0000 0
vt 4.9368 -0.0458 0
vt 4.9368 0.0000 0
vt 5.0864 -0.0458 0
vt 5.0864 0.0000 0
vt 5.2360 -0.0458 0
vt 5.2360 0.0000 0
vt 5.3856 -0.0458 0
vt 5.3856 0.0000 0
vt 5.5352 -0.0458 0
vt 5.5352 0.0000 0
vt 5.6848 -0.0458 0
vt 5.6848 0.0000 0
vt 5.8344 -0.0458 0
vt 5.8344 0.0000 0
vt 5.9840 -0.0458 0
vt 5.9840 0.0000 0
vt 6.1336 -0.0458 0
vt 6.1336 0.0000 0
vt 0.0182 0.0027 0
vt 0.0040 0.0000 0
vt 0.0038 0.0012 0
vt 0.0182 -0.0027 0
vt 0.0176 -0.0054 0
vt 0.0038 -0.0012 0
vt 0.0135 -0.0125 0
vt 0.0115 -0.0144 0
vt 0.0024 -0.0032 0
vt 0.0092 -0.0159 0
vt 0.0067 -0.0171 0
vt 0.0012 -0.0038 0
vt 0.0176 0.0054 0
vt 0.0184 0.0000 0
vt 0.0166 -0.0080 0
vt 0.0152 -0.0104 0
vt 0.0032 -0.0024 0
vt 0.0041 -0.0179 0
vt 0.0014 -0.0183 0
vt 0.0000 -0.0040 0
vt -0.0041 -0.0179 0
vt -0.0012 -0.0038 0
vt -0.0014 -0.0183 0
vt -0.0092 -0.0159 0
vt -0.0024 -0.0032 0
vt -0.0182 0.0027 0
vt -0.0176 0.0054 0
vt -0.0038 0.0012 0
vt -0.0166 0.0080 0
vt -0.0152 0.0104 0
vt -0.0032 0.0024 0
vt -0.0135 0.0125 0
vt -0.0115 0.0144 0
vt -0.0024 0.0032 0
vt -0.0092 0.0159 0
vt -0.0067 0.0171 0
vt -0.0012 0.0038 0
vt -0.0041 0.0179 0
vt -0.0014 0.0183 0
vt 0.0000 0.0040 0
vt -0.0067 -0.0171 0
vt -0.0040 0.0000 0
vt -0.0184 0.0000 0
vt 0.0041 0.0179 0
vt 0.0012 0.0038 0
vt 0.0092 0.0159 0
vt 0.0024 0.0032 0
vt 0.0135 0.0125 0
vt 0.0032 0.0024 0
vt -0.0115 -0.0144 0
vt -0.0135 -0.0125 0
vt -0.0032 -0.0024 0
vt 0.0014 0.0183 0
vt 0.0067 0.0171 0
vt 0.0115 0.0144 0
vt 0.0166 0.0080 0
vt -0.0166 -0.0080 0
vt -0.0038 -0.0012 0
vt 0.0152 0.0104 0
vt -0.0152 -0.0104 0
vt -0.0182 -0.0027 0
vt -0.0176 -0.0054 0
vt 0.0000 0.0400 0
vt 0.0000 0.0220 0
vt 0.3142 0.0220 0
vt 0.3142 0.0400 0
vt 0.6283 0.0220 0
vt 0.6283 0.0400 0
vt 0.9425 0.0220 0
vt 0.9425 0.0400 0
vt 1.2566 0.0220 0
vt 1.2566 0.0400 0
vt 1.5708 0.0220 0
vt 1.5708 0.0400 0
vt 1.8850 0.0220 0
vt 1.8850 0.0400 0
vt 2.1991 0.0220 0
vt 2.1991 0.0400 0
vt 2.5133 0.0220 0
vt 2.5133 0.0400 0
vt 2.8274 0.0220 0
vt 2.8274 0.0400 0
vt 3.1416 0.0220 0
vt 3.1416 0.0400 0
vt 3.4558 0.0220 0
vt 3.4558 0.0400 0
vt 3.7699 0.0220 0
vt 3.7699 0.0400 0
vt 4.0841 0.0220 0
vt 4.0841 0.0400 0
vt 4.3982 0.0220 0
vt 4.3982 0.0400 0
vt 4.7124 0.0220 0
vt 4.7124 0.0400 0
vt 5.0265 0.0220 0
vt 5.0265 0.0400 0
vt 5.3407 0.0220 0
vt 5.3407 0.0400 0
vt 5.6549 0.0220 0
vt 5.6549 0.0400 0
vt 5.9690 0.0220 0
vt 5.9690 0.0400 0
vt 0.0015 0.0080 0
vt 0.0024 0.0032 0
vt 0.0012 0.0038 0
vt 0.0080 0.0015 0
vt 0.0032 0.0024 0
vt 0.0015 -0.0080 0
vt 0.0032 -0.0024 0
vt -0.0015 -0.0080 0
vt -0.0024 -0.0032 0
vt -0.0012 -0.0038 0
vt 0.0038 -0.0012 0
vt -0.0032 -0.0024 0
vt 0.0005 -0.0076 0
vt -0.0005 -0.0076 0
vt 0.0000 -0.0040 0
vt 0.0038 0.0012 0
vt 0.0024 -0.0032 0
vt 0.0012 -0.0038 0
vt -0.0038 -0.0012 0
vt 0.0040 0.0000 0
vt -0.0015 0.0080 0
vt -0.0024 0.0032 0
vt -0.0032 0.0024 0
vt -0.0005 0.0076 0
vt -0.0012 0.0038 0
vt 0.0021 0.0087 0
vt 0.0087 0.0021 0
vt 0.0005 0.0076 0
vt 0.0000 0.0040 0
vt -0.0076 -0.0005 0
vt -0.0087 0.0021 0
vt -0.0071 0.0071 0
vt -0.0057 0.0082 0
vt -0.0091 0.0042 0
vt -0.0082 0.0057 0
vt -0.0021 0.0087 0
vt -0.0042 0.0091 0
vt 0.0091 0.0042 0
vt -0.0038 0.0012 0
vt -0.0025 0.0097 0
vt -0.0076 0.0005 0
vt 0.0087 -0.0021 0
vt 0.0082 -0.0057 0
vt 0.0071 -0.0071 0
vt -0.0021 -0.0087 0
vt -0.0071 -0.0071 0
vt -0.0082 -0.0057 0
vt -0.0042 -0.0091 0
vt -0.0057 -0.0082 0
vt -0.0080 -0.0015 0
vt -0.0087 -0.0021 0
vt -0.0091 -0.0042 0
vt 0.0071 0.0071 0
vt 0.0082 0.0057 0
vt 0.0042 0.0091 0
vt 0.0057 0.0082 0
vt 0.0097 0.0025 0
vt -0.0040 0.0000 0
vt -0.0097 0.0025 0
vt -0.0080 0.0015 0
vt 0.0091 -0.0042 0
vt -0.0097 -0.0025 0
vt 0.0097 -0.0025 0
vt 0.0021 -0.0087 0
vt 0.0042 -0.0091 0
vt -0.0025 -0.0097 0
vt 0.0025 0.0097 0
vt 0.0057 -0.0082 0
vt 0.0025 -0.0097 0
vt 0.0076 0.0005 0
vt 0.0080 -0.0015 0
vt 0.0076 -0.0005 0
vt 4.9630 0.0040 0
vt 4.9630 0.0000 0
vt 5.1413 0.0000 0
vt 5.1413 0.0040 0
vt 5.3195 0.0000 0
vt 5.3195 0.0040 0
vt 5.4978 0.0000 0
vt 5.4978 0.0040 0
vt 5.6760 0.0000 0
vt 5.6760 0.0040 0
vt 5.8543 0.0000 0
vt 5.8543 0.0040 0
vt 6.0325 0.0000 0
vt 6.0325 0.0040 0
vt -0.0087 -0.0021 0
vt -0.0097 -0.0025 0
vt -0.0091 -0.0042 0
vt -0.0071 -0.0048 0
vt -0.0082 -0.0057 0
vt -0.0021 -0.0087 0
vt -0.0034 -0.0079 0
vt -0.0061 -0.0061 0
vt -0.0048 -0.0071 0
vt -0.0071 -0.0071 0
vt -0.0057 -0.0082 0
vt -0.0019 -0.0084 0
vt -0.0079 -0.0034 0
vt -0.0084 -0.0019 0
vt -0.0042 -0.0091 0
vt -0.0025 -0.0097 0
vt 0.2507 0.0040 0
vt 0.2507 0.0000 0
vt 0.4289 0.0000 0
vt 0.4289 0.0040 0
vt 0.6072 0.0000 0
vt 0.6072 0.0040 0
vt 0.7854 0.0000 0
vt 0.7854 0.0040 0
vt 0.9636 0.0000 0
vt 0.9636 0.0040 0
vt 1.1419 0.0000 0
vt 1.1419 0.0040 0
vt 1.3201 0.0000 0
vt 1.3201 0.0040 0
vt -0.0087 0.0021 0
vt -0.0071 0.0048 0
vt -0.0091 0.0042 0
vt -0.0082 0.0057 0
vt -0.0048 0.0071 0
vt -0.0034 0.0079 0
vt -0.0097 0.0025 0
vt -0.0021 0.0087 0
vt -0.0061 0.0061 0
vt -0.0057 0.0082 0
vt -0.0071 0.0071 0
vt -0.0025 0.0097 0
vt -0.0042 0.0091 0
vt -0.0084 0.0019 0
vt -0.0079 0.0034 0
vt -0.0019 0.0084 0
vt 7.3157 0.0440 0
vt 7.7287 0.0440 0
vt 7.7287 0.0400 0
vt 4.8377 0.0440 0
vt 5.2507 0.0440 0
vt 5.2507 0.0400 0
vt 5.6637 0.0400 0
vt 5.4265 0.0420 0
vt 5.4265 0.0440 0
vt 5.6637 0.0420 0
vt 6.0767 0.0420 0
vt 6.0767 0.0400 0
vt 6.4897 0.0420 0
vt 6.4897 0.0400 0
vt 6.9027 0.0420 0
vt 6.9027 0.0400 0
vt 7.3157 0.0400 0
vt 7.1398 0.0420 0
vt 7.1398 0.0440 0
vt 4.8377 0.0400 0
vt 4.3025 0.0020 0
vt 4.4902 0.0020 0
vt 4.4902 0.0000 0
vt 4.1147 0.0020 0
vt 4.3025 0.0000 0
vt 3.9270 0.0020 0
vt 4.1147 0.0000 0
vt 3.7392 0.0020 0
vt 3.9270 0.0000 0
vt 3.5515 0.0020 0
vt 3.7392 0.0000 0
vt 3.3638 0.0020 0
vt 3.5515 0.0000 0
vt 3.3638 0.0000 0
vt 2.7317 0.0020 0
vt 2.9194 0.0020 0
vt 2.9194 0.0000 0
vt 2.5439 0.0020 0
vt 2.7317 0.0000 0
vt 2.3562 0.0020 0
vt 2.5439 0.0000 0
vt 2.1685 0.0020 0
vt 2.3562 0.0000 0
vt 1.9807 0.0020 0
vt 2.1685 0.0000 0
vt 1.7930 0.0020 0
vt 1.9807 0.0000 0
vt 1.7930 0.0000 0
vt 1.8215 0.0040 0
vt 1.8215 0.0000 0
vt 1.9997 0.0000 0
vt 1.9997 0.0040 0
vt 2.1779 0.0000 0
vt 2.1779 0.0040 0
vt 2.3562 0.0000 0
vt 2.3562 0.0040 0
vt 2.5344 0.0000 0
vt 2.5344 0.0040 0
vt 2.7127 0.0000 0
vt 2.7127 0.0040 0
vt 2.8909 0.0000 0
vt 2.8909 0.0040 0
vt 5.7449 0.0440 0
vt 6.1579 0.0440 0
vt 6.1579 0.0400 0
vt 3.2669 0.0440 0
vt 3.6799 0.0440 0
vt 3.6799 0.0400 0
vt 4.0929 0.0400 0
vt 3.8557 0.0420 0
vt 3.8557 0.0440 0
vt 4.0929 0.0420 0
vt 4.5059 0.0420 0
vt 4.5059 0.0400 0
vt 4.9189 0.0420 0
vt 4.9189 0.0400 0
vt 5.3319 0.0420 0
vt 5.3319 0.0400 0
vt 5.7449 0.0400 0
vt 5.5691 0.0420 0
vt 5.5691 0.0440 0
vt 3.2669 0.0400 0
vt 0.0087 0.0021 0
vt 0.0097 0.0025 0
vt 0.0091 0.0042 0
vt 0.0071 0.0048 0
vt 0.0082 0.0057 0
vt 0.0021 0.0087 0
vt 0.0034 0.0079 0
vt 0.0061 0.0061 0
vt 0.0048 0.0071 0
vt 0.0071 0.0071 0
vt 0.0057 0.0082 0
vt 0.0019 0.0084 0
vt 0.0079 0.0034 0
vt 0.0084 0.0019 0
vt 0.0042 0.0091 0
vt 0.0025 0.0097 0
vt 1.1609 0.0020 0
vt 1.3486 0.0020 0
vt 1.3486 0.0000 0
vt 0.9731 0.0020 0
vt 1.1609 0.0000 0
vt 0.7854 0.0020 0
vt 0.9731 0.0000 0
vt 0.5977 0.0020 0
vt 0.7854 0.0000 0
vt 0.4099 0.0020 0
vt 0.5977 0.0000 0
vt 0.2222 0.0020 0
vt 0.4099 0.0000 0
vt 0.2222 0.0000 0
vt 3.3922 0.0040 0
vt 3.3922 0.0000 0
vt 3.5705 0.0000 0
vt 3.5705 0.0040 0
vt 3.7487 0.0000 0
vt 3.7487 0.0040 0
vt 3.9270 0.0000 0
vt 3.9270 0.0040 0
vt 4.1052 0.0000 0
vt 4.1052 0.0040 0
vt 4.2835 0.0000 0
vt 4.2835 0.0040 0
vt 4.4617 0.0000 0
vt 4.4617 0.0040 0
vt 4.1741 0.0440 0
vt 4.5871 0.0440 0
vt 4.5871 0.0400 0
vt 1.6961 0.0440 0
vt 2.1091 0.0440 0
vt 2.1091 0.0400 0
vt 2.5221 0.0400 0
vt 2.2849 0.0420 0
vt 2.2849 0.0440 0
vt 2.5221 0.0420 0
vt 2.9351 0.0420 0
vt 2.9351 0.0400 0
vt 3.3481 0.0420 0
vt 3.3481 0.0400 0
vt 3.7611 0.0420 0
vt 3.7611 0.0400 0
vt 4.1741 0.0400 0
vt 3.9983 0.0420 0
vt 3.9983 0.0440 0
vt 1.6961 0.0400 0
vt 2.6033 0.0440 0
vt 3.0163 0.0440 0
vt 3.0163 0.0400 0
vt 0.1253 0.0440 0
vt 0.5383 0.0440 0
vt 0.5383 0.0400 0
vt 0.9513 0.0400 0
vt 0.7141 0.0420 0
vt 0.7141 0.0440 0
vt 0.9513 0.0420 0
vt 1.3643 0.0420 0
vt 1.3643 0.0400 0
vt 1.7773 0.0420 0
vt 1.7773 0.0400 0
vt 2.1903 0.0420 0
vt 2.1903 0.0400 0
vt 2.6033 0.0400 0
vt 2.4275 0.0420 0
vt 2.4275 0.0440 0
vt 0.1253 0.0400 0
vt 0.0082 -0.0057 0
vt 0.0048 -0.0071 0
vt 0.0034 -0.0079 0
vt 0.0087 -0.0021 0
vt 0.0071 -0.0048 0
vt 0.0091 -0.0042 0
vt 0.0021 -0.0087 0
vt 0.0061 -0.0061 0
vt 0.0097 -0.0025 0
vt 0.0057 -0.0082 0
vt 0.0071 -0.0071 0
vt 0.0025 -0.0097 0
vt 0.0042 -0.0091 0
vt 0.0084 -0.0019 0
vt 0.0079 -0.0034 0
vt 0.0019 -0.0084 0
vt 5.8733 0.0020 0
vt 6.0610 0.0020 0
vt 6.0610 0.0000 0
vt 5.6855 0.0020 0
vt 5.8733 0.0000 0
vt 5.4978 0.0020 0
vt 5.6855 0.0000 0
vt 5.3100 0.0020 0
vt 5.4978 0.0000 0
vt 5.1223 0.0020 0
vt 5.3100 0.0000 0
vt 4.9346 0.0020 0
vt 5.1223 0.0000 0
vt 4.9346 0.0000 0
vt 0.0079 0.0034 0
vt 0.0013 0.0008 0
vt 0.0080 0.0015 0
vt 0.0034 0.0079 0
vt 0.0019 0.0084 0
vt 0.0015 0.0080 0
vt 0.0084 0.0019 0
vt 0.0015 0.0000 0
vt 0.0076 0.0005 0
vt 0.0061 0.0061 0
vt 0.0048 0.0071 0
vt 0.0008 0.0013 0
vt 0.0071 0.0048 0
vt 0.0005 0.0076 0
vt -0.0005 0.0076 0
vt 0.0000 0.0015 0
vt -0.0034 0.0079 0
vt -0.0008 0.0013 0
vt -0.0015 0.0080 0
vt -0.0079 -0.0034 0
vt -0.0013 -0.0008 0
vt -0.0080 -0.0015 0
vt -0.0034 -0.0079 0
vt -0.0019 -0.0084 0
vt -0.0015 -0.0080 0
vt 0.0034 -0.0079 0
vt 0.0008 -0.0013 0
vt 0.0015 -0.0080 0
vt 0.0079 -0.0034 0
vt 0.0084 -0.0019 0
vt 0.0080 -0.0015 0
vt -0.0019 0.0084 0
vt -0.0079 0.0034 0
vt -0.0084 0.0019 0
vt -0.0080 0.0015 0
vt -0.0084 -0.0019 0
vt -0.0015 0.0000 0
vt -0.0076 -0.0005 0
vt -0.0061 -0.0061 0
vt -0.0048 -0.0071 0
vt -0.0007 -0.0013 0
vt 0.0019 -0.0084 0
vt 0.0000 -0.0015 0
vt 0.0005 -0.0076 0
vt 0.0061 -0.0061 0
vt 0.0071 -0.0048 0
vt 0.0013 -0.0007 0
vt -0.0061 0.0061 0
vt -0.0071 0.0048 0
vt -0.0013 0.0008 0
vt -0.0071 -0.0048 0
vt -0.0005 -0.0076 0
vt 0.0048 -0.0071 0
vt 0.0076 -0.0005 0
vt -0.0048 0.0071 0
vt -0.0076 0.0005 0
vt -0.5236 0.0220 0
vt 0.0000 0.0220 0
vt 0.0000 0.0020 0
vt -1.0472 0.0220 0
vt -0.5236 0.0020 0
vt 4.7124 0.0220 0
vt -1.0472 0.0020 0
vt 4.1888 0.0220 0
vt 4.7124 0.0020 0
vt 3.6652 0.0220 0
vt 4.1888 0.0020 0
vt 3.1416 0.0220 0
vt 3.6652 0.0020 0
vt 2.6180 0.0220 0
vt 3.1416 0.0020 0
vt 2.0944 0.0220 0
vt 2.6180 0.0020 0
vt 1.5708 0.0220 0
vt 2.0944 0.0020 0
vt 1.0472 0.0220 0
vt 1.5708 0.0020 0
vt 0.5236 0.0220 0
vt 1.0472 0.0020 0
vt 0.5236 0.0020 0
vt 0.0000 0.0000 0
vt 0.0013 -0.0008 0
vt 0.0008 -0.0013 0
vt 0.0000 -0.0015 0
vt -0.0007 -0.0013 0
vt -0.0013 -0.0007 0
vt -0.0015 0.0000 0
vt -0.0013 0.0008 0
vt -0.0007 0.0013 0
vt 0.0000 0.0015 0
vt 0.0008 0.0013 0
vt 0.0013 0.0008 0
vt 0.0015 0.0000 0
f 634/634/634 633/633/633 631/631/631
f 617/617/617 618/618/618 620/620/620
f 619/619/619 620/620/620 622/622/622
f 621/621/621 622/622/622 624/624/624
f 623/623/623 624/624/624 626/626/626
f 625/625/625 626/626/626 628/628/628
f 616/616/616 614/614/614 615/615/615
f 618/618/618 617/617/617 614/614/614
f 620/620/620 619/619/619 617/617/617
f 622/622/622 621/621/621 619/619/619
f 624/624/624 623/623/623 621/621/621
f 626/626/626 625/625/625 623/623/623
f 628/628/628 627/627/627 625/625/625
f 630/630/630 629/629/629 627/627/627
f 632/632/632 631/631/631 629/629/629
f 614/614/614 616/616/616 618/618/618
f 636/636/636 635/635/635 633/633/633
f 637/637/637 615/615/615 635/635/635
f 615/615/615 637/637/637 616/616/616
f 635/635/635 636/636/636 637/637/637
f 633/633/633 634/634/634 636/636/636
f 631/631/631 632/632/632 634/634/634
f 629/629/629 630/630/630 632/632/632
f 627/627/627 628/628/628 630/630/630
f 199/199/199 200/200/200 201/201/201
f 197/197/197 198/198/198 199/199/199
f 195/195/195 196/196/196 197/197/197
f 193/193/193 194/194/194 195/195/195
f 202/202/202 201/201/201 200/200/200
f 201/201/201 202/202/202 203/203/203
f 192/192/192 190/190/190 191/191/191
f 194/194/194 193/193/193 192/192/192
f 196/196/196 195/195/195 194/194/194
f 198/198/198 197/197/197 196/196/196
f 200/200/200 199/199/199 198/198/198
f 190/190/190 192/192/192 193/193/193
f 204/204/204 203/203/203 202/202/202
f 206/206/206 205/205/205 204/204/204
f 208/208/208 207/207/207 206/206/206
f 210/210/210 209/209/209 208/208/208
f 212/212/212 211/211/211 210/210/210
f 214/214/214 213/213/213 212/212/212
f 216/216/216 215/215/215 214/214/214
f 218/218/218 217/217/217 216/216/216
f 220/220/220 219/219/219 218/218/218
f 222/222/222 221/221/221 220/220/220
f 224/224/224 223/223/223 222/222/222
f 226/226/226 225/225/225 224/224/224
f 228/228/228 227/227/227 226/226/226
f 191/191/191 229/229/229 228/228/228
f 229/229/229 191/191/191 190/190/190
f 227/227/227 228/228/228 229/229/229
f 225/225/225 226/226/226 227/227/227
f 223/223/223 224/224/224 225/225/225
f 221/221/221 222/222/222 223/223/223
f 219/219/219 220/220/220 221/221/221
f 217/217/217 218/218/218 219/219/219
f 215/215/215 216/216/216 217/217/217
f 213/213/213 214/214/214 215/215/215
f 211/211/211 212/212/212 213/213/213
f 209/209/209 210/210/210 211/211/211
f 207/207/207 208/208/208 209/209/209
f 205/205/205 206/206/206 207/207/207
f 203/203/203 204/204/204 205/205/205
f 530/530/530 528/528/528 529/529/529
f 533/533/533 531/531/531 532/532/532
f 528/528/528 530/530/530 534/534/534
f 533/533/533 532/532/532 528/528/528
f 529/529/529 528/528/528 535/535/535
f 531/531/531 533/533/533 536/536/536
f 538/538/538 534/534/534 537/537/537
f 540/540/540 534/534/534 539/539/539
f 542/542/542 531/531/531 541/541/541
f 528/528/528 532/532/532 535/535/535
f 534/534/534 540/540/540 537/537/537
f 534/534/534 530/530/530 543/543/543
f 531/531/531 542/542/542 532/532/532
f 534/534/534 538/538/538 528/528/528
f 353/353/353 356/356/356 349/349/349
f 346/346/346 360/360/360 347/347/347
f 353/353/353 351/351/351 361/361/361
f 353/353/353 358/358/358 355/355/355
f 349/349/349 354/354/354 350/350/350
f 360/360/360 346/346/346 359/359/359
f 358/358/358 353/353/353 357/357/357
f 356/356/356 353/353/353 355/355/355
f 349/349/349 347/347/347 354/354/354
f 349/349/349 351/351/351 353/353/353
f 346/346/346 348/348/348 352/352/352
f 351/351/351 349/349/349 350/350/350
f 348/348/348 347/347/347 349/349/349
f 348/348/348 346/346/346 347/347/347
f 318/318/318 316/316/316 317/317/317
f 316/316/316 318/318/318 319/319/319
f 322/322/322 320/320/320 321/321/321
f 319/319/319 320/320/320 323/323/323
f 320/320/320 322/322/322 324/324/324
f 320/320/320 324/324/324 323/323/323
f 326/326/326 321/321/321 325/325/325
f 322/322/322 321/321/321 327/327/327
f 328/328/328 316/316/316 319/319/319
f 325/325/325 321/321/321 320/320/320
f 316/316/316 328/328/328 329/329/329
f 321/321/321 326/326/326 330/330/330
f 321/321/321 330/330/330 331/331/331
f 319/319/319 318/318/318 320/320/320
f 308/308/308 307/307/307 306/306/306
f 306/306/306 305/305/305 304/304/304
f 304/304/304 302/302/302 303/303/303
f 312/312/312 311/311/311 310/310/310
f 313/313/313 314/314/314 315/315/315
f 311/311/311 312/312/312 313/313/313
f 314/314/314 313/313/313 312/312/312
f 310/310/310 309/309/309 308/308/308
f 302/302/302 304/304/304 305/305/305
f 305/305/305 306/306/306 307/307/307
f 307/307/307 308/308/308 309/309/309
f 309/309/309 310/310/310 311/311/311
f 341/341/341 342/342/342 343/343/343
f 343/343/343 344/344/344 345/345/345
f 344/344/344 343/343/343 342/342/342
f 342/342/342 341/341/341 340/340/340
f 339/339/339 340/340/340 341/341/341
f 337/337/337 338/338/338 339/339/339
f 335/335/335 336/336/336 337/337/337
f 332/332/332 334/334/334 335/335/335
f 336/336/336 335/335/335 334/334/334
f 338/338/338 337/337/337 336/336/336
f 334/334/334 332/332/332 333/333/333
f 340/340/340 339/339/339 338/338/338
f 412/412/412 410/410/410 411/411/411
f 414/414/414 413/413/413 412/412/412
f 416/416/416 415/415/415 414/414/414
f 418/418/418 417/417/417 416/416/416
f 420/420/420 419/419/419 418/418/418
f 422/422/422 421/421/421 420/420/420
f 421/421/421 422/422/422 423/423/423
f 419/419/419 420/420/420 421/421/421
f 415/415/415 416/416/416 417/417/417
f 413/413/413 414/414/414 415/415/415
f 410/410/410 412/412/412 413/413/413
f 417/417/417 418/418/418 419/419/419
f 544/544/544 546/546/546 548/548/548
f 547/547/547 548/548/548 550/550/550
f 549/549/549 550/550/550 552/552/552
f 551/551/551 552/552/552 554/554/554
f 553/553/553 554/554/554 556/556/556
f 555/555/555 556/556/556 557/557/557
f 556/556/556 555/555/555 553/553/553
f 554/554/554 553/553/553 551/551/551
f 548/548/548 547/547/547 544/544/544
f 550/550/550 549/549/549 547/547/547
f 552/552/552 551/551/551 549/549/549
f 546/546/546 544/544/544 545/545/545
f 384/384/384 382/382/382 383/383/383
f 386/386/386 385/385/385 382/382/382
f 388/388/388 387/387/387 385/385/385
f 390/390/390 389/389/389 387/387/387
f 392/392/392 391/391/391 389/389/389
f 394/394/394 393/393/393 391/391/391
f 393/393/393 394/394/394 395/395/395
f 391/391/391 392/392/392 394/394/394
f 382/382/382 384/384/384 386/386/386
f 385/385/385 386/386/386 388/388/388
f 387/387/387 388/388/388 390/390/390
f 389/389/389 390/390/390 392/392/392
f 403/403/403 404/404/404 406/406/406
f 399/399/399 400/400/400 402/402/402
f 401/401/401 402/402/402 404/404/404
f 405/405/405 406/406/406 408/408/408
f 407/407/407 408/408/408 409/409/409
f 408/408/408 407/407/407 405/405/405
f 406/406/406 405/405/405 403/403/403
f 404/404/404 403/403/403 401/401/401
f 402/402/402 401/401/401 399/399/399
f 400/400/400 399/399/399 396/396/396
f 398/398/398 396/396/396 397/397/397
f 396/396/396 398/398/398 400/400/400
f 234/234/234 233/233/233 245/245/245
f 236/236/236 235/235/235 246/246/246
f 247/247/247 235/235/235 242/242/242
f 241/241/241 237/237/237 248/248/248
f 244/244/244 243/243/243 239/239/239
f 245/245/245 233/233/233 249/249/249
f 235/235/235 247/247/247 246/246/246
f 252/252/252 250/250/250 251/251/251
f 254/254/254 250/250/250 253/253/253
f 242/242/242 244/244/244 247/247/247
f 233/233/233 240/240/240 249/249/249
f 250/250/250 254/254/254 251/251/251
f 233/233/233 255/255/255 256/256/256
f 230/230/230 232/232/232 257/257/257
f 258/258/258 257/257/257 232/232/232
f 250/250/250 252/252/252 259/259/259
f 262/262/262 260/260/260 261/261/261
f 264/264/264 260/260/260 263/263/263
f 250/250/250 260/260/260 265/265/265
f 266/266/266 265/265/265 260/260/260
f 237/237/237 239/239/239 243/243/243
f 267/267/267 256/256/256 255/255/255
f 257/257/257 258/258/258 253/253/253
f 259/259/259 252/252/252 268/268/268
f 260/260/260 264/264/264 261/261/261
f 265/265/265 266/266/266 269/269/269
f 270/270/270 250/250/250 259/259/259
f 273/273/273 271/271/271 272/272/272
f 276/276/276 274/274/274 275/275/275
f 278/278/278 274/274/274 277/277/277
f 259/259/259 248/248/248 279/279/279
f 279/279/279 274/274/274 280/280/280
f 281/281/281 280/280/280 274/274/274
f 283/283/283 255/255/255 282/282/282
f 285/285/285 255/255/255 284/284/284
f 256/256/256 267/267/267 286/286/286
f 259/259/259 268/268/268 287/287/287
f 263/263/263 260/260/260 288/288/288
f 250/250/250 270/270/270 289/289/289
f 272/272/272 271/271/271 290/290/290
f 274/274/274 278/278/278 275/275/275
f 248/248/248 259/259/259 287/287/287
f 280/280/280 281/281/281 291/291/291
f 255/255/255 285/285/285 282/282/282
f 253/253/253 258/258/258 254/254/254
f 260/260/260 250/250/250 289/289/289
f 290/290/290 271/271/271 292/292/292
f 235/235/235 271/271/271 293/293/293
f 294/294/294 293/293/293 271/271/271
f 277/277/277 274/274/274 295/295/295
f 274/274/274 279/279/279 237/237/237
f 284/284/284 255/255/255 296/296/296
f 260/260/260 262/262/262 266/266/266
f 271/271/271 273/273/273 297/297/297
f 293/293/293 294/294/294 298/298/298
f 299/299/299 235/235/235 233/233/233
f 279/279/279 248/248/248 237/237/237
f 255/255/255 233/233/233 230/230/230
f 271/271/271 235/235/235 300/300/300
f 235/235/235 299/299/299 301/301/301
f 255/255/255 283/283/283 267/267/267
f 235/235/235 301/301/301 300/300/300
f 271/271/271 297/297/297 294/294/294
f 274/274/274 276/276/276 281/281/281
f 244/244/244 242/242/242 243/243/243
f 238/238/238 237/237/237 241/241/241
f 230/230/230 234/234/234 231/231/231
f 239/239/239 237/237/237 238/238/238
f 236/236/236 233/233/233 235/235/235
f 234/234/234 230/230/230 233/233/233
f 232/232/232 230/230/230 231/231/231
f 233/233/233 236/236/236 240/240/240
f 449/449/449 458/458/458 459/459/459
f 449/449/449 454/454/454 458/458/458
f 444/444/444 456/456/456 457/457/457
f 453/453/453 449/449/449 448/448/448
f 456/456/456 444/444/444 447/447/447
f 447/447/447 446/446/446 448/448/448
f 444/444/444 446/446/446 447/447/447
f 450/450/450 448/448/448 449/449/449
f 447/447/447 448/448/448 451/451/451
f 448/448/448 450/450/450 452/452/452
f 448/448/448 452/452/452 451/451/451
f 446/446/446 444/444/444 445/445/445
f 454/454/454 449/449/449 453/453/453
f 450/450/450 449/449/449 455/455/455
f 479/479/479 480/480/480 481/481/481
f 474/474/474 476/476/476 477/477/477
f 481/481/481 482/482/482 483/483/483
f 483/483/483 484/484/484 485/485/485
f 485/485/485 486/486/486 487/487/487
f 486/486/486 485/485/485 484/484/484
f 484/484/484 483/483/483 482/482/482
f 482/482/482 481/481/481 480/480/480
f 480/480/480 479/479/479 478/478/478
f 478/478/478 477/477/477 476/476/476
f 476/476/476 474/474/474 475/475/475
f 477/477/477 478/478/478 479/479/479
f 463/463/463 464/464/464 466/466/466
f 460/460/460 462/462/462 464/464/464
f 464/464/464 463/463/463 460/460/460
f 466/466/466 465/465/465 463/463/463
f 468/468/468 467/467/467 465/465/465
f 470/470/470 469/469/469 467/467/467
f 472/472/472 471/471/471 469/469/469
f 471/471/471 472/472/472 473/473/473
f 469/469/469 470/470/470 472/472/472
f 467/467/467 468/468/468 470/470/470
f 465/465/465 466/466/466 468/468/468
f 462/462/462 460/460/460 461/461/461
f 600/600/600 609/609/609 601/601/601
f 580/580/580 582/582/582 598/598/598
f 567/567/567 569/569/569 559/559/559
f 588/588/588 586/586/586 587/587/587
f 585/585/585 583/583/583 584/584/584
f 582/582/582 580/580/580 581/581/581
f 579/579/579 577/577/577 578/578/578
f 576/576/576 574/574/574 575/575/575
f 561/561/561 563/563/563 569/569/569
f 573/573/573 571/571/571 572/572/572
f 560/560/560 558/558/558 559/559/559
f 563/563/563 561/561/561 562/562/562
f 558/558/558 560/560/560 564/564/564
f 566/566/566 559/559/559 565/565/565
f 584/584/584 601/601/601 585/585/585
f 602/602/602 584/584/584 610/610/610
f 565/565/565 611/611/611 566/566/566
f 586/586/586 588/588/588 604/604/604
f 596/596/596 578/578/578 608/608/608
f 605/605/605 575/575/575 612/612/612
f 594/594/594 613/613/613 595/595/595
f 590/590/590 592/592/592 607/607/607
f 596/596/596 598/598/598 578/578/578
f 598/598/598 582/582/582 609/609/609
f 602/602/602 604/604/604 584/584/584
f 604/604/604 588/588/588 611/611/611
f 605/605/605 607/607/607 575/575/575
f 607/607/607 592/592/592 613/613/613
f 567/567/567 559/559/559 570/570/570
f 569/569/569 567/567/567 568/568/568
f 561/561/561 569/569/569 568/568/568
f 559/559/559 566/566/566 560/560/560
f 578/578/578 595/595/595 579/579/579
f 590/590/590 607/607/607 606/606/606
f 607/607/607 605/605/605 606/606/606
f 575/575/575 572/572/572 576/576/576
f 571/571/571 573/573/573 569/569/569
f 586/586/586 604/604/604 603/603/603
f 604/604/604 602/602/602 603/603/603
f 601/601/601 584/584/584 600/600/600
f 609/609/609 600/600/600 598/598/598
f 611/611/611 565/565/565 604/604/604
f 613/613/613 594/594/594 607/607/607
f 584/584/584 583/583/583 610/610/610
f 578/578/578 577/577/577 608/608/608
f 559/559/559 558/558/558 570/570/570
f 583/583/583 585/585/585 599/599/599
f 580/580/580 598/598/598 597/597/597
f 598/598/598 596/596/596 597/597/597
f 569/569/569 563/563/563 571/571/571
f 574/574/574 576/576/576 589/589/589
f 572/572/572 575/575/575 573/573/573
f 592/592/592 590/590/590 591/591/591
f 595/595/595 578/578/578 594/594/594
f 575/575/575 574/574/574 612/612/612
f 577/577/577 579/579/579 593/593/593
f 490/490/490 488/488/488 489/489/489
f 495/495/495 494/494/494 493/493/493
f 495/495/495 492/492/492 496/496/496
f 492/492/492 495/495/495 493/493/493
f 499/499/499 497/497/497 498/498/498
f 501/501/501 498/498/498 500/500/500
f 503/503/503 500/500/500 502/502/502
f 505/505/505 488/488/488 504/504/504
f 505/505/505 503/503/503 502/502/502
f 503/503/503 505/505/505 504/504/504
f 488/488/488 505/505/505 506/506/506
f 500/500/500 503/503/503 501/501/501
f 498/498/498 501/501/501 499/499/499
f 497/497/497 499/499/499 494/494/494
f 494/494/494 495/495/495 497/497/497
f 491/491/491 493/493/493 507/507/507
f 488/488/488 490/490/490 504/504/504
f 493/493/493 491/491/491 492/492/492
f 429/429/429 427/427/427 428/428/428
f 431/431/431 430/430/430 429/429/429
f 431/431/431 428/428/428 432/432/432
f 428/428/428 431/431/431 429/429/429
f 435/435/435 433/433/433 434/434/434
f 437/437/437 434/434/434 436/436/436
f 439/439/439 436/436/436 438/438/438
f 441/441/441 424/424/424 440/440/440
f 441/441/441 439/439/439 438/438/438
f 439/439/439 441/441/441 440/440/440
f 424/424/424 441/441/441 442/442/442
f 436/436/436 439/439/439 437/437/437
f 434/434/434 437/437/437 435/435/435
f 430/430/430 431/431/431 433/433/433
f 427/427/427 429/429/429 443/443/443
f 433/433/433 435/435/435 430/430/430
f 424/424/424 426/426/426 440/440/440
f 426/426/426 424/424/424 425/425/425
f 379/379/379 362/362/362 378/378/378
f 377/377/377 374/374/374 376/376/376
f 375/375/375 372/372/372 374/374/374
f 379/379/379 377/377/377 376/376/376
f 366/366/366 369/369/369 367/367/367
f 369/369/369 366/366/366 370/370/370
f 377/377/377 379/379/379 378/378/378
f 362/362/362 379/379/379 380/380/380
f 374/374/374 377/377/377 375/375/375
f 372/372/372 375/375/375 373/373/373
f 371/371/371 373/373/373 368/368/368
f 369/369/369 368/368/368 367/367/367
f 368/368/368 369/369/369 371/371/371
f 365/365/365 367/367/367 381/381/381
f 362/362/362 364/364/364 378/378/378
f 364/364/364 362/362/362 363/363/363
f 367/367/367 365/365/365 366/366/366
f 373/373/373 371/371/371 372/372/372
f 508/508/508 525/525/525 526/526/526
f 523/523/523 525/525/525 524/524/524
f 525/525/525 523/523/523 522/522/522
f 514/514/514 515/515/515 517/517/517
f 525/525/525 508/508/508 524/524/524
f 523/523/523 520/520/520 522/522/522
f 521/521/521 518/518/518 520/520/520
f 512/512/512 515/515/515 513/513/513
f 515/515/515 512/512/512 516/516/516
f 515/515/515 514/514/514 513/513/513
f 513/513/513 511/511/511 512/512/512
f 510/510/510 508/508/508 509/509/509
f 520/520/520 523/523/523 521/521/521
f 518/518/518 521/521/521 519/519/519
f 517/517/517 519/519/519 514/514/514
f 511/511/511 513/513/513 527/527/527
f 519/519/519 517/517/517 518/518/518
f 508/508/508 510/510/510 524/524/524
f 1/1/1 43/43/43 2/2/2
f 1/1/1 42/42/42 43/43/43
f 1/1/1 41/41/41 42/42/42
f 1/1/1 40/40/40 41/41/41
f 1/1/1 39/39/39 40/40/40
f 1/1/1 38/38/38 39/39/39
f 1/1/1 37/37/37 38/38/38
f 1/1/1 36/36/36 37/37/37
f 1/1/1 35/35/35 36/36/36
f 1/1/1 34/34/34 35/35/35
f 1/1/1 33/33/33 34/34/34
f 1/1/1 32/32/32 33/33/33
f 1/1/1 31/31/31 32/32/32
f 1/1/1 30/30/30 31/31/31
f 1/1/1 29/29/29 30/30/30
f 1/1/1 28/28/28 29/29/29
f 1/1/1 27/27/27 28/28/28
f 1/1/1 26/26/26 27/27/27
f 1/1/1 25/25/25 26/26/26
f 1/1/1 24/24/24 25/25/25
f 1/1/1 23/23/23 24/24/24
f 1/1/1 22/22/22 23/23/23
f 1/1/1 21/21/21 22/22/22
f 1/1/1 20/20/20 21/21/21
f 1/1/1 19/19/19 20/20/20
f 1/1/1 18/18/18 19/19/19
f 1/1/1 17/17/17 18/18/18
f 1/1/1 16/16/16 17/17/17
f 1/1/1 15/15/15 16/16/16
f 1/1/1 14/14/14 15/15/15
f 1/1/1 13/13/13 14/14/14
f 1/1/1 12/12/12 13/13/13
f 1/1/1 11/11/11 12/12/12
f 1/1/1 10/10/10 11/11/11
f 1/1/1 9/9/9 10/10/10
f 1/1/1 8/8/8 9/9/9
f 1/1/1 7/7/7 8/8/8
f 1/1/1 6/6/6 7/7/7
f 1/1/1 5/5/5 6/6/6
f 1/1/1 4/4/4 5/5/5
f 1/1/1 3/3/3 4/4/4
f 3/3/3 1/1/1 2/2/2
f 120/120/120 119/119/119 118/118/118
f 47/47/47 48/48/48 49/49/49
f 49/49/49 50/50/50 51/51/51
f 51/51/51 52/52/52 53/53/53
f 53/53/53 54/54/54 55/55/55
f 55/55/55 56/56/56 57/57/57
f 57/57/57 58/58/58 59/59/59
f 59/59/59 60/60/60 61/61/61
f 61/61/61 62/62/62 63/63/63
f 63/63/63 64/64/64 65/65/65
f 65/65/65 66/66/66 67/67/67
f 67/67/67 68/68/68 69/69/69
f 69/69/69 70/70/70 71/71/71
f 71/71/71 72/72/72 73/73/73
f 73/73/73 74/74/74 75/75/75
f 75/75/75 76/76/76 77/77/77
f 77/77/77 78/78/78 79/79/79
f 79/79/79 80/80/80 81/81/81
f 81/81/81 82/82/82 83/83/83
f 83/83/83 84/84/84 85/85/85
f 85/85/85 86/86/86 87/87/87
f 87/87/87 88/88/88 89/89/89
f 89/89/89 90/90/90 91/91/91
f 91/91/91 92/92/92 93/93/93
f 93/93/93 94/94/94 95/95/95
f 95/95/95 96/96/96 97/97/97
f 97/97/97 98/98/98 99/99/99
f 99/99/99 100/100/100 101/101/101
f 101/101/101 102/102/102 103/103/103
f 103/103/103 104/104/104 105/105/105
f 105/105/105 106/106/106 107/107/107
f 107/107/107 108/108/108 109/109/109
f 109/109/109 110/110/110 111/111/111
f 111/111/111 112/112/112 113/113/113
f 113/113/113 114/114/114 115/115/115
f 115/115/115 116/116/116 117/117/117
f 117/117/117 118/118/118 119/119/119
f 119/119/119 120/120/120 121/121/121
f 121/121/121 122/122/122 123/123/123
f 123/123/123 124/124/124 125/125/125
f 125/125/125 126/126/126 127/127/127
f 127/127/127 45/45/45 44/44/44
f 46/46/46 44/44/44 45/45/45
f 48/48/48 47/47/47 46/46/46
f 50/50/50 49/49/49 48/48/48
f 52/52/52 51/51/51 50/50/50
f 54/54/54 53/53/53 52/52/52
f 56/56/56 55/55/55 54/54/54
f 58/58/58 57/57/57 56/56/56
f 60/60/60 59/59/59 58/58/58
f 62/62/62 61/61/61 60/60/60
f 64/64/64 63/63/63 62/62/62
f 66/66/66 65/65/65 64/64/64
f 68/68/68 67/67/67 66/66/66
f 70/70/70 69/69/69 68/68/68
f 72/72/72 71/71/71 70/70/70
f 74/74/74 73/73/73 72/72/72
f 76/76/76 75/75/75 74/74/74
f 78/78/78 77/77/77 76/76/76
f 80/80/80 79/79/79 78/78/78
f 82/82/82 81/81/81 80/80/80
f 84/84/84 83/83/83 82/82/82
f 86/86/86 85/85/85 84/84/84
f 88/88/88 87/87/87 86/86/86
f 90/90/90 89/89/89 88/88/88
f 92/92/92 91/91/91 90/90/90
f 94/94/94 93/93/93 92/92/92
f 96/96/96 95/95/95 94/94/94
f 98/98/98 97/97/97 96/96/96
f 100/100/100 99/99/99 98/98/98
f 102/102/102 101/101/101 100/100/100
f 104/104/104 103/103/103 102/102/102
f 106/106/106 105/105/105 104/104/104
f 108/108/108 107/107/107 106/106/106
f 110/110/110 109/109/109 108/108/108
f 112/112/112 111/111/111 110/110/110
f 114/114/114 113/113/113 112/112/112
f 116/116/116 115/115/115 114/114/114
f 118/118/118 117/117/117 116/116/116
f 45/45/45 127/127/127 126/126/126
f 122/122/122 121/121/121 120/120/120
f 124/124/124 123/123/123 122/122/122
f 126/126/126 125/125/125 124/124/124
f 44/44/44 46/46/46 47/47/47
f 172/172/172 173/173/173 174/174/174
f 174/174/174 175/175/175 176/176/176
f 134/134/134 136/136/136 144/144/144
f 152/152/152 151/151/151 177/177/177
f 152/152/152 178/178/178 179/179/179
f 156/156/156 158/158/158 155/155/155
f 162/162/162 164/164/164 161/161/161
f 165/165/165 167/167/167 164/164/164
f 171/171/171 167/167/167 180/180/180
f 173/173/173 172/172/172 181/181/181
f 175/175/175 174/174/174 182/182/182
f 176/176/176 183/183/183 130/130/130
f 149/149/149 148/148/148 168/168/168
f 178/178/178 152/152/152 177/177/177
f 179/179/179 184/184/184 185/185/185
f 159/159/159 161/161/161 158/158/158
f 172/172/172 171/171/171 181/181/181
f 176/176/176 175/175/175 186/186/186
f 183/183/183 176/176/176 186/186/186
f 179/179/179 178/178/178 187/187/187
f 184/184/184 179/179/179 187/187/187
f 185/185/185 188/188/188 169/169/169
f 167/167/167 166/166/166 180/180/180
f 130/130/130 183/183/183 140/140/140
f 185/185/185 184/184/184 189/189/189
f 188/188/188 185/185/185 189/189/189
f 174/174/174 173/173/173 182/182/182
f 169/169/169 188/188/188 170/170/170
f 129/129/129 128/128/128 141/141/141
f 153/153/153 155/155/155 169/169/169
f 161/161/161 159/159/159 160/160/160
f 164/164/164 162/162/162 163/163/163
f 167/167/167 165/165/165 166/166/166
f 142/142/142 144/144/144 133/133/133
f 145/145/145 147/147/147 139/139/139
f 150/150/150 147/147/147 146/146/146
f 151/151/151 149/149/149 168/168/168
f 153/153/153 169/169/169 170/170/170
f 156/156/156 155/155/155 154/154/154
f 162/162/162 161/161/161 160/160/160
f 165/165/165 164/164/164 163/163/163
f 159/159/159 158/158/158 157/157/157
f 130/130/130 128/128/128 129/129/129
f 133/133/133 131/131/131 132/132/132
f 136/136/136 134/134/134 135/135/135
f 139/139/139 137/137/137 138/138/138
f 128/128/128 130/130/130 140/140/140
f 131/131/131 129/129/129 141/141/141
f 144/144/144 142/142/142 143/143/143
f 134/134/134 144/144/144 143/143/143
f 137/137/137 136/136/136 135/135/135
f 147/147/147 145/145/145 146/146/146
f 147/147/147 148/148/148 149/149/149
f 131/131/131 133/133/133 129/129/129
f 142/142/142 133/133/133 132/132/132
f 137/137/137 139/139/139 136/136/136
f 145/145/145 139/139/139 138/138/138
f 148/148/148 147/147/147 150/150/150
f 149/149/149 151/151/151 152/152/152
f 155/155/155 153/153/153 154/154/154
f 158/158/158 156/156/156 157/157/157
f 167/167/167 171/171/171 172/172/172
f 638/638/638 640/640/640 641/641/641
f 638/638/638 641/641/641 642/642/642
f 638/638/638 642/642/642 643/643/643
f 638/638/638 643/643/643 644/644/644
f 638/638/638 644/644/644 645/645/645
f 638/638/638 645/645/645 646/646/646
f 638/638/638 646/646/646 647/647/647
f 638/638/638 647/647/647 648/648/648
f 638/638/638 650/650/650 639/639/639
f 638/638/638 648/648/648 649/649/649
f 638/638/638 649/649/649 650/650/650
f 640/640/640 638/638/638 639/639/639
