# Wavefront .OBJ file for tesselated shape: GearA-2 path: C:\Users\Jamiul\OneDrive - UW-Madison\Design\chronoMotor\GearA.SLDPRT

g body_1
v 0.000000 0.000000 -72.800000
v -16.176325 2.699351 -72.800000
v -15.511403 5.325071 -72.800000
v -14.423370 7.805537 -72.800000
v -12.941904 10.073088 -72.800000
v -11.107418 12.065872 -72.800000
v -8.969950 13.729530 -72.800000
v -6.587805 15.018683 -72.800000
v -4.025962 15.898164 -72.800000
v -1.354301 16.343986 -72.800000
v 1.354301 16.343986 -72.800000
v 4.025962 15.898164 -72.800000
v 6.587805 15.018683 -72.800000
v 8.969950 13.729530 -72.800000
v 11.107418 12.065872 -72.800000
v 12.941904 10.073088 -72.800000
v 14.423370 7.805537 -72.800000
v 15.511403 5.325071 -72.800000
v 16.176325 2.699351 -72.800000
v 16.400000 0.000000 -72.800000
v 16.176325 -2.699351 -72.800000
v 15.511403 -5.325071 -72.800000
v 14.423370 -7.805537 -72.800000
v 12.941904 -10.073088 -72.800000
v 11.107418 -12.065872 -72.800000
v 8.969950 -13.729530 -72.800000
v 6.587805 -15.018683 -72.800000
v 4.025962 -15.898164 -72.800000
v 1.354301 -16.343986 -72.800000
v -1.354301 -16.343986 -72.800000
v -4.025962 -15.898164 -72.800000
v -6.587805 -15.018683 -72.800000
v -8.969950 -13.729530 -72.800000
v -11.107418 -12.065872 -72.800000
v -12.941904 -10.073088 -72.800000
v -14.423370 -7.805537 -72.800000
v -15.511403 -5.325071 -72.800000
v -16.176325 -2.699351 -72.800000
v -16.400000 0.000000 -72.800000
v -16.400000 0.000000 -72.800000
v -16.400000 0.000000 -18.000000
v -16.176325 2.699351 -18.000000
v -16.176325 2.699351 -72.800000
v -15.511403 5.325071 -18.000000
v -15.511403 5.325071 -72.800000
v -14.423370 7.805537 -18.000000
v -14.423370 7.805537 -72.800000
v -12.941904 10.073088 -18.000000
v -12.941904 10.073088 -72.800000
v -11.107418 12.065872 -18.000000
v -11.107418 12.065872 -72.800000
v -8.969950 13.729530 -18.000000
v -8.969950 13.729530 -72.800000
v -6.587805 15.018683 -18.000000
v -6.587805 15.018683 -72.800000
v -4.025962 15.898164 -18.000000
v -4.025962 15.898164 -72.800000
v -1.354301 16.343986 -18.000000
v -1.354301 16.343986 -72.800000
v 1.354301 16.343986 -18.000000
v 1.354301 16.343986 -72.800000
v 4.025962 15.898164 -18.000000
v 4.025962 15.898164 -72.800000
v 6.587805 15.018683 -18.000000
v 6.587805 15.018683 -72.800000
v 8.969950 13.729530 -18.000000
v 8.969950 13.729530 -72.800000
v 11.107418 12.065872 -18.000000
v 11.107418 12.065872 -72.800000
v 12.941904 10.073088 -18.000000
v 12.941904 10.073088 -72.800000
v 14.423370 7.805537 -18.000000
v 14.423370 7.805537 -72.800000
v 15.511403 5.325071 -18.000000
v 15.511403 5.325071 -72.800000
v 16.176325 2.699351 -18.000000
v 16.176325 2.699351 -72.800000
v 16.400000 0.000000 -18.000000
v 16.400000 0.000000 -72.800000
v 16.176325 -2.699351 -18.000000
v 16.176325 -2.699351 -72.800000
v 15.511403 -5.325071 -18.000000
v 15.511403 -5.325071 -72.800000
v 14.423370 -7.805537 -18.000000
v 14.423370 -7.805537 -72.800000
v 12.941904 -10.073088 -18.000000
v 12.941904 -10.073088 -72.800000
v 11.107418 -12.065872 -18.000000
v 11.107418 -12.065872 -72.800000
v 8.969950 -13.729530 -18.000000
v 8.969950 -13.729530 -72.800000
v 6.587805 -15.018683 -18.000000
v 6.587805 -15.018683 -72.800000
v 4.025962 -15.898164 -18.000000
v 4.025962 -15.898164 -72.800000
v 1.354301 -16.343986 -18.000000
v 1.354301 -16.343986 -72.800000
v -1.354301 -16.343986 -18.000000
v -1.354301 -16.343986 -72.800000
v -4.025962 -15.898164 -18.000000
v -4.025962 -15.898164 -72.800000
v -6.587805 -15.018683 -18.000000
v -6.587805 -15.018683 -72.800000
v -8.969950 -13.729530 -18.000000
v -8.969950 -13.729530 -72.800000
v -11.107418 -12.065872 -18.000000
v -11.107418 -12.065872 -72.800000
v -12.941904 -10.073088 -18.000000
v -12.941904 -10.073088 -72.800000
v -14.423370 -7.805537 -18.000000
v -14.423370 -7.805537 -72.800000
v -15.511403 -5.325071 -18.000000
v -15.511403 -5.325071 -72.800000
v -16.176325 -2.699351 -18.000000
v -16.176325 -2.699351 -72.800000
v -15.511403 5.325071 -18.000000
v -16.176325 2.699351 -18.000000
v -3.945445 0.658378 -18.000000
v -16.400000 0.000000 -18.000000
v -4.000000 0.000000 -18.000000
v -16.176325 -2.699351 -18.000000
v -3.945445 -0.658378 -18.000000
v -3.517895 1.903790 -18.000000
v -14.423370 7.805537 -18.000000
v -15.511403 -5.325071 -18.000000
v -3.517895 -1.903790 -18.000000
v 16.176325 2.699351 -18.000000
v 3.783269 1.298798 -18.000000
v 4.000000 0.000000 -18.000000
v 14.423370 7.805537 -18.000000
v 12.941904 10.073088 -18.000000
v 3.156562 2.456851 -18.000000
v 11.107418 12.065872 -18.000000
v 8.969950 13.729530 -18.000000
v 2.187793 3.348666 -18.000000
v 6.587805 15.018683 -18.000000
v 4.025962 15.898164 -18.000000
v 0.981942 3.877601 -18.000000
v -12.941904 -10.073088 -18.000000
v -2.709126 -2.942896 -18.000000
v -4.025962 -15.898164 -18.000000
v -0.330317 -3.986338 -18.000000
v -1.606782 -3.663093 -18.000000
v 1.354301 -16.343986 -18.000000
v 0.981942 -3.877601 -18.000000
v 16.400000 0.000000 -18.000000
v 15.511403 5.325071 -18.000000
v 1.354301 16.343986 -18.000000
v -1.354301 16.343986 -18.000000
v -0.330317 3.986338 -18.000000
v -4.025962 15.898164 -18.000000
v -6.587805 15.018683 -18.000000
v -1.606782 3.663093 -18.000000
v -14.423370 -7.805537 -18.000000
v -8.969950 -13.729530 -18.000000
v -6.587805 -15.018683 -18.000000
v -1.354301 -16.343986 -18.000000
v 6.587805 -15.018683 -18.000000
v 2.187793 -3.348666 -18.000000
v 11.107418 -12.065872 -18.000000
v 3.156562 -2.456851 -18.000000
v 14.423370 -7.805537 -18.000000
v 3.783269 -1.298798 -18.000000
v -8.969950 13.729530 -18.000000
v -11.107418 12.065872 -18.000000
v -2.709126 2.942896 -18.000000
v -12.941904 10.073088 -18.000000
v -11.107418 -12.065872 -18.000000
v 4.025962 -15.898164 -18.000000
v 8.969950 -13.729530 -18.000000
v 12.941904 -10.073088 -18.000000
v 16.176325 -2.699351 -18.000000
v 15.511403 -5.325071 -18.000000
v 4.000000 0.000000 0.000000
v 4.000000 0.000000 -18.000000
v 3.783269 1.298798 -18.000000
v 3.783269 1.298798 0.000000
v 3.156562 2.456851 -18.000000
v 3.156562 2.456851 0.000000
v 2.187793 3.348666 -18.000000
v 2.187793 3.348666 0.000000
v 0.981942 3.877601 -18.000000
v 0.981942 3.877601 0.000000
v -0.330317 3.986338 -18.000000
v -0.330317 3.986338 0.000000
v -1.606782 3.663093 -18.000000
v -1.606782 3.663093 0.000000
v -2.709126 2.942896 -18.000000
v -2.709126 2.942896 0.000000
v -3.517895 1.903790 -18.000000
v -3.517895 1.903790 0.000000
v -3.945445 0.658378 -18.000000
v -3.945445 -0.658378 0.000000
v -3.945445 0.658378 0.000000
v -4.000000 0.000000 -18.000000
v -3.945445 -0.658378 -18.000000
v -3.517895 -1.903790 -18.000000
v -3.517895 -1.903790 0.000000
v -2.709126 -2.942896 -18.000000
v -2.709126 -2.942896 0.000000
v -1.606782 -3.663093 -18.000000
v -1.606782 -3.663093 0.000000
v -0.330317 -3.986338 -18.000000
v -0.330317 -3.986338 0.000000
v 0.981942 -3.877601 -18.000000
v 0.981942 -3.877601 0.000000
v 2.187793 -3.348666 -18.000000
v 2.187793 -3.348666 0.000000
v 3.156562 -2.456851 -18.000000
v 3.156562 -2.456851 0.000000
v 3.783269 -1.298798 -18.000000
v 3.783269 -1.298798 0.000000
v 7.964558 1.451543 0.000000
v 1.451543 -7.964558 0.000000
v 3.156562 -2.456851 0.000000
v 1.451543 7.964558 0.000000
v 3.783269 1.298798 0.000000
v 2.187793 -3.348666 0.000000
v 0.981942 -3.877601 0.000000
v 0.512578 -7.553111 0.000000
v 4.000000 0.000000 0.000000
v 3.783269 -1.298798 0.000000
v -0.330317 -3.986338 0.000000
v -7.964558 -1.451543 0.000000
v -2.709126 -2.942896 0.000000
v -3.945445 -0.658378 0.000000
v -3.517895 -1.903790 0.000000
v -1.606782 -3.663093 0.000000
v -7.553111 -0.512578 0.000000
v -3.945445 0.658378 0.000000
v 0.512578 7.553111 0.000000
v 0.981942 3.877601 0.000000
v -0.330317 3.986338 0.000000
v 3.156562 2.456851 0.000000
v -7.964558 1.451543 0.000000
v -1.451543 7.964558 0.000000
v -2.709126 2.942896 0.000000
v -0.512578 7.553111 0.000000
v -1.606782 3.663093 0.000000
v 2.146430 8.718267 0.000000
v 8.718267 2.146430 0.000000
v 2.187793 3.348666 0.000000
v -7.553111 0.512578 0.000000
v -3.517895 1.903790 0.000000
v 9.094224 4.158736 0.000000
v -8.718267 2.146430 0.000000
v -2.146430 8.718267 0.000000
v -7.071068 7.071068 0.000000
v -5.705297 8.212770 0.000000
v -9.094224 4.158736 0.000000
v -8.212770 5.705297 0.000000
v 9.687500 2.480392 0.000000
v 8.718267 -2.146430 0.000000
v 8.212770 -5.705297 0.000000
v 7.071068 -7.071068 0.000000
v 7.071068 7.071068 0.000000
v 8.212770 5.705297 0.000000
v 4.158736 9.094224 0.000000
v 5.705297 8.212770 0.000000
v -4.158736 9.094224 0.000000
v -2.146430 -8.718267 0.000000
v -8.718267 -2.146430 0.000000
v -9.094224 -4.158736 0.000000
v 9.094224 -4.158736 0.000000
v -9.687500 2.480392 0.000000
v -2.480392 9.687500 0.000000
v -9.687500 -2.480392 0.000000
v 9.687500 -2.480392 0.000000
v 2.146430 -8.718267 0.000000
v 4.158736 -9.094224 0.000000
v -7.071068 -7.071068 0.000000
v -8.212770 -5.705297 0.000000
v -4.158736 -9.094224 0.000000
v -5.705297 -8.212770 0.000000
v 2.480392 9.687500 0.000000
v -0.512578 -7.553111 0.000000
v -1.451543 -7.964558 0.000000
v 5.705297 -8.212770 0.000000
v 2.480392 -9.687500 0.000000
v 7.964558 -1.451543 0.000000
v -2.480392 -9.687500 0.000000
v 7.553111 -0.512578 0.000000
v 7.553111 0.512578 0.000000
v -2.480392 -9.687500 0.000000
v -2.480392 -9.687500 4.000000
v -4.158736 -9.094224 4.000000
v -4.158736 -9.094224 0.000000
v -5.705297 -8.212770 4.000000
v -5.705297 -8.212770 0.000000
v -7.071068 -7.071068 4.000000
v -7.071068 -7.071068 0.000000
v -8.212770 -5.705297 4.000000
v -8.212770 -5.705297 0.000000
v -9.094224 -4.158736 4.000000
v -9.094224 -4.158736 0.000000
v -9.687500 -2.480392 4.000000
v -9.687500 -2.480392 0.000000
v -9.687500 2.480392 0.000000
v -9.687500 2.480392 4.000000
v -9.094224 4.158736 4.000000
v -9.094224 4.158736 0.000000
v -8.212770 5.705297 4.000000
v -8.212770 5.705297 0.000000
v -7.071068 7.071068 4.000000
v -7.071068 7.071068 0.000000
v -5.705297 8.212770 4.000000
v -5.705297 8.212770 0.000000
v -4.158736 9.094224 4.000000
v -4.158736 9.094224 0.000000
v -2.480392 9.687500 4.000000
v -2.480392 9.687500 0.000000
v 2.480392 9.687500 0.000000
v 2.480392 9.687500 4.000000
v 4.158736 9.094224 4.000000
v 4.158736 9.094224 0.000000
v 5.705297 8.212770 4.000000
v 5.705297 8.212770 0.000000
v 7.071068 7.071068 4.000000
v 7.071068 7.071068 0.000000
v 8.212770 5.705297 4.000000
v 8.212770 5.705297 0.000000
v 9.094224 4.158736 4.000000
v 9.094224 4.158736 0.000000
v 9.687500 2.480392 4.000000
v 9.687500 2.480392 0.000000
v -8.718267 2.146430 4.000000
v -6.705269 5.342396 4.000000
v -9.094224 4.158736 4.000000
v -8.212770 5.705297 4.000000
v -5.342396 6.705269 4.000000
v -3.709515 7.729252 4.000000
v -2.146430 8.718267 4.000000
v -9.687500 2.480392 4.000000
v -5.705297 8.212770 4.000000
v -7.071068 7.071068 4.000000
v -2.480392 9.687500 4.000000
v -4.158736 9.094224 4.000000
v -8.362592 1.889152 4.000000
v -7.729252 3.709515 4.000000
v -1.889152 8.362592 4.000000
v -9.094224 -4.158736 4.000000
v -7.729252 -3.709515 4.000000
v -8.718267 -2.146430 4.000000
v -8.212770 -5.705297 4.000000
v -6.705269 -5.342396 4.000000
v -5.342396 -6.705269 4.000000
v -2.146430 -8.718267 4.000000
v -3.709515 -7.729252 4.000000
v -7.071068 -7.071068 4.000000
v -5.705297 -8.212770 4.000000
v -1.889152 -8.362592 4.000000
v -8.362592 -1.889152 4.000000
v -9.687500 -2.480392 4.000000
v -4.158736 -9.094224 4.000000
v -2.480392 -9.687500 4.000000
v -8.718267 2.146430 4.000000
v -9.687500 2.480392 4.000000
v -9.687500 2.480392 0.000000
v -9.687500 -2.480392 4.000000
v -8.718267 -2.146430 4.000000
v -8.718267 -2.146430 0.000000
v -7.964558 -1.451543 0.000000
v -8.362592 -1.889152 2.000000
v -8.362592 -1.889152 4.000000
v -7.964558 -1.451543 2.000000
v -7.553111 -0.512578 2.000000
v -7.553111 -0.512578 0.000000
v -7.553111 0.512578 2.000000
v -7.553111 0.512578 0.000000
v -7.964558 1.451543 2.000000
v -7.964558 1.451543 0.000000
v -8.718267 2.146430 0.000000
v -8.362592 1.889152 2.000000
v -8.362592 1.889152 4.000000
v -9.687500 -2.480392 0.000000
v -3.709515 -7.729252 4.000000
v -1.889152 -8.362592 4.000000
v -1.889152 -8.362592 2.000000
v -5.342396 -6.705269 4.000000
v -3.709515 -7.729252 2.000000
v -6.705269 -5.342396 4.000000
v -5.342396 -6.705269 2.000000
v -7.729252 -3.709515 4.000000
v -6.705269 -5.342396 2.000000
v -8.362592 -1.889152 4.000000
v -7.729252 -3.709515 2.000000
v -8.362592 -1.889152 2.000000
v -7.729252 3.709515 4.000000
v -8.362592 1.889152 4.000000
v -8.362592 1.889152 2.000000
v -6.705269 5.342396 4.000000
v -7.729252 3.709515 2.000000
v -5.342396 6.705269 4.000000
v -6.705269 5.342396 2.000000
v -3.709515 7.729252 4.000000
v -5.342396 6.705269 2.000000
v -1.889152 8.362592 4.000000
v -3.709515 7.729252 2.000000
v -1.889152 8.362592 2.000000
v 2.146430 8.718267 4.000000
v 2.480392 9.687500 4.000000
v 2.480392 9.687500 0.000000
v -2.480392 9.687500 4.000000
v -2.146430 8.718267 4.000000
v -2.146430 8.718267 0.000000
v -1.451543 7.964558 0.000000
v -1.889152 8.362592 2.000000
v -1.889152 8.362592 4.000000
v -1.451543 7.964558 2.000000
v -0.512578 7.553111 2.000000
v -0.512578 7.553111 0.000000
v 0.512578 7.553111 2.000000
v 0.512578 7.553111 0.000000
v 1.451543 7.964558 2.000000
v 1.451543 7.964558 0.000000
v 2.146430 8.718267 0.000000
v 1.889152 8.362592 2.000000
v 1.889152 8.362592 4.000000
v -2.480392 9.687500 0.000000
v 8.212770 5.705297 4.000000
v 2.146430 8.718267 4.000000
v 3.709515 7.729252 4.000000
v 9.094224 4.158736 4.000000
v 7.729252 3.709515 4.000000
v 8.718267 2.146430 4.000000
v 5.342396 6.705269 4.000000
v 6.705269 5.342396 4.000000
v 1.889152 8.362592 4.000000
v 7.071068 7.071068 4.000000
v 5.705297 8.212770 4.000000
v 8.362592 1.889152 4.000000
v 9.687500 2.480392 4.000000
v 4.158736 9.094224 4.000000
v 2.480392 9.687500 4.000000
v 3.709515 7.729252 4.000000
v 1.889152 8.362592 4.000000
v 1.889152 8.362592 2.000000
v 5.342396 6.705269 4.000000
v 3.709515 7.729252 2.000000
v 6.705269 5.342396 4.000000
v 5.342396 6.705269 2.000000
v 7.729252 3.709515 4.000000
v 6.705269 5.342396 2.000000
v 8.362592 1.889152 4.000000
v 7.729252 3.709515 2.000000
v 8.362592 1.889152 2.000000
v -7.964558 1.451543 2.000000
v -6.705269 5.342396 2.000000
v -7.729252 3.709515 2.000000
v -3.709515 7.729252 2.000000
v -5.342396 6.705269 2.000000
v -1.451543 7.964558 2.000000
v -1.889152 8.362592 2.000000
v 1.451543 7.964558 2.000000
v 5.342396 6.705269 2.000000
v 3.709515 7.729252 2.000000
v 7.729252 3.709515 2.000000
v 6.705269 5.342396 2.000000
v 7.964558 -1.451543 2.000000
v 6.705269 -5.342396 2.000000
v 7.729252 -3.709515 2.000000
v 3.709515 -7.729252 2.000000
v 5.342396 -6.705269 2.000000
v -0.512578 7.553111 2.000000
v 7.964558 1.451543 2.000000
v 8.362592 1.889152 2.000000
v 1.451543 -7.964558 2.000000
v 1.889152 -8.362592 2.000000
v -8.362592 1.889152 2.000000
v -1.451543 -7.964558 2.000000
v -5.342396 -6.705269 2.000000
v -3.709515 -7.729252 2.000000
v -7.729252 -3.709515 2.000000
v 7.553111 -0.512578 2.000000
v -7.964558 -1.451543 2.000000
v -7.553111 0.512578 2.000000
v -7.553111 -0.512578 2.000000
v 0.512578 7.553111 2.000000
v 1.889152 8.362592 2.000000
v 0.512578 -7.553111 2.000000
v -6.705269 -5.342396 2.000000
v 7.553111 0.512578 2.000000
v 8.362592 -1.889152 2.000000
v -0.512578 -7.553111 2.000000
v -1.889152 -8.362592 2.000000
v -8.362592 -1.889152 2.000000
v 8.718267 -2.146430 4.000000
v 9.687500 -2.480392 4.000000
v 9.687500 -2.480392 0.000000
v 9.687500 2.480392 4.000000
v 8.718267 2.146430 4.000000
v 8.718267 2.146430 0.000000
v 7.964558 1.451543 0.000000
v 8.362592 1.889152 2.000000
v 8.362592 1.889152 4.000000
v 7.964558 1.451543 2.000000
v 7.553111 0.512578 2.000000
v 7.553111 0.512578 0.000000
v 7.553111 -0.512578 2.000000
v 7.553111 -0.512578 0.000000
v 7.964558 -1.451543 2.000000
v 7.964558 -1.451543 0.000000
v 8.718267 -2.146430 0.000000
v 8.362592 -1.889152 2.000000
v 8.362592 -1.889152 4.000000
v 9.687500 2.480392 0.000000
v -2.146430 -8.718267 4.000000
v -2.480392 -9.687500 4.000000
v -2.480392 -9.687500 0.000000
v 2.480392 -9.687500 4.000000
v 2.146430 -8.718267 4.000000
v 2.146430 -8.718267 0.000000
v 1.451543 -7.964558 0.000000
v 1.889152 -8.362592 2.000000
v 1.889152 -8.362592 4.000000
v 1.451543 -7.964558 2.000000
v 0.512578 -7.553111 2.000000
v 0.512578 -7.553111 0.000000
v -0.512578 -7.553111 2.000000
v -0.512578 -7.553111 0.000000
v -1.451543 -7.964558 2.000000
v -1.451543 -7.964558 0.000000
v -2.146430 -8.718267 0.000000
v -1.889152 -8.362592 2.000000
v -1.889152 -8.362592 4.000000
v 2.480392 -9.687500 0.000000
v 8.718267 -2.146430 4.000000
v 6.705269 -5.342396 4.000000
v 9.094224 -4.158736 4.000000
v 8.212770 -5.705297 4.000000
v 5.342396 -6.705269 4.000000
v 3.709515 -7.729252 4.000000
v 2.146430 -8.718267 4.000000
v 9.687500 -2.480392 4.000000
v 5.705297 -8.212770 4.000000
v 7.071068 -7.071068 4.000000
v 2.480392 -9.687500 4.000000
v 4.158736 -9.094224 4.000000
v 8.362592 -1.889152 4.000000
v 7.729252 -3.709515 4.000000
v 1.889152 -8.362592 4.000000
v 7.729252 -3.709515 4.000000
v 8.362592 -1.889152 4.000000
v 8.362592 -1.889152 2.000000
v 6.705269 -5.342396 4.000000
v 7.729252 -3.709515 2.000000
v 5.342396 -6.705269 4.000000
v 6.705269 -5.342396 2.000000
v 3.709515 -7.729252 4.000000
v 5.342396 -6.705269 2.000000
v 1.889152 -8.362592 4.000000
v 3.709515 -7.729252 2.000000
v 1.889152 -8.362592 2.000000
v 9.687500 -2.480392 0.000000
v 9.687500 -2.480392 4.000000
v 9.094224 -4.158736 4.000000
v 9.094224 -4.158736 0.000000
v 8.212770 -5.705297 4.000000
v 8.212770 -5.705297 0.000000
v 7.071068 -7.071068 4.000000
v 7.071068 -7.071068 0.000000
v 5.705297 -8.212770 4.000000
v 5.705297 -8.212770 0.000000
v 4.158736 -9.094224 4.000000
v 4.158736 -9.094224 0.000000
v 2.480392 -9.687500 4.000000
v 2.480392 -9.687500 0.000000
v 0.000000 0.000000 0.000000
v -1.299038 0.750000 0.000000
v -0.750000 1.299038 0.000000
v 0.000000 1.500000 0.000000
v 0.750000 1.299038 0.000000
v 1.299038 0.750000 0.000000
v 1.500000 0.000000 0.000000
v 1.299038 -0.750000 0.000000
v 0.750000 -1.299038 0.000000
v 0.000000 -1.500000 0.000000
v -0.750000 -1.299038 0.000000
v -1.299038 -0.750000 0.000000
v -1.500000 0.000000 0.000000
v 1.299038 -0.750000 0.000000
v 1.500000 0.000000 0.000000
v 1.500000 0.000000 -16.000000
v 0.750000 -1.299038 0.000000
v 1.299038 -0.750000 -16.000000
v 0.000000 -1.500000 0.000000
v 0.750000 -1.299038 -16.000000
v -0.750000 -1.299038 0.000000
v 0.000000 -1.500000 -16.000000
v -1.299038 -0.750000 0.000000
v -0.750000 -1.299038 -16.000000
v -1.500000 0.000000 0.000000
v -1.299038 -0.750000 -16.000000
v -1.299038 0.750000 0.000000
v -1.500000 0.000000 -16.000000
v -0.750000 1.299038 0.000000
v -1.299038 0.750000 -16.000000
v 0.000000 1.500000 0.000000
v -0.750000 1.299038 -16.000000
v 0.750000 1.299038 0.000000
v 0.000000 1.500000 -16.000000
v 1.299038 0.750000 0.000000
v 0.750000 1.299038 -16.000000
v 1.299038 0.750000 -16.000000
v 0.000000 0.000000 -16.000000
v -1.299038 -0.750000 -16.000000
v -0.750000 -1.299038 -16.000000
v 0.000000 -1.500000 -16.000000
v 0.750000 -1.299038 -16.000000
v 1.299038 -0.750000 -16.000000
v 1.500000 0.000000 -16.000000
v 1.299038 0.750000 -16.000000
v 0.750000 1.299038 -16.000000
v 0.000000 1.500000 -16.000000
v -0.750000 1.299038 -16.000000
v -1.299038 0.750000 -16.000000
v -1.500000 0.000000 -16.000000
vn 0.000 0.000 -1.000
vn 0.000 0.000 -1.000
vn 0.000 0.000 -1.000
vn 0.000 0.000 -1.000
vn 0.000 0.000 -1.000
vn 0.000 0.000 -1.000
vn 0.000 0.000 -1.000
vn 0.000 0.000 -1.000
vn 0.000 0.000 -1.000
vn 0.000 0.000 -1.000
vn 0.000 0.000 -1.000
vn 0.000 0.000 -1.000
vn 0.000 0.000 -1.000
vn 0.000 0.000 -1.000
vn 0.000 0.000 -1.000
vn 0.000 0.000 -1.000
vn 0.000 0.000 -1.000
vn 0.000 0.000 -1.000
vn 0.000 0.000 -1.000
vn 0.000 0.000 -1.000
vn 0.000 0.000 -1.000
vn 0.000 0.000 -1.000
vn 0.000 0.000 -1.000
vn 0.000 0.000 -1.000
vn 0.000 0.000 -1.000
vn 0.000 0.000 -1.000
vn 0.000 0.000 -1.000
vn 0.000 0.000 -1.000
vn 0.000 0.000 -1.000
vn 0.000 0.000 -1.000
vn 0.000 0.000 -1.000
vn 0.000 0.000 -1.000
vn 0.000 0.000 -1.000
vn 0.000 0.000 -1.000
vn 0.000 0.000 -1.000
vn 0.000 0.000 -1.000
vn 0.000 0.000 -1.000
vn 0.000 0.000 -1.000
vn 0.000 0.000 -1.000
vn -1.000 0.000 0.000
vn -1.000 0.000 0.000
vn -0.986 0.165 0.000
vn -0.986 0.165 0.000
vn -0.946 0.325 0.000
vn -0.946 0.325 0.000
vn -0.879 0.476 0.000
vn -0.879 0.476 0.000
vn -0.789 0.614 0.000
vn -0.789 0.614 0.000
vn -0.677 0.736 0.000
vn -0.677 0.736 0.000
vn -0.547 0.837 0.000
vn -0.547 0.837 0.000
vn -0.402 0.916 0.000
vn -0.402 0.916 0.000
vn -0.245 0.969 0.000
vn -0.245 0.969 0.000
vn -0.083 0.997 0.000
vn -0.083 0.997 0.000
vn 0.083 0.997 0.000
vn 0.083 0.997 0.000
vn 0.245 0.969 0.000
vn 0.245 0.969 0.000
vn 0.402 0.916 0.000
vn 0.402 0.916 0.000
vn 0.547 0.837 0.000
vn 0.547 0.837 0.000
vn 0.677 0.736 0.000
vn 0.677 0.736 0.000
vn 0.789 0.614 0.000
vn 0.789 0.614 0.000
vn 0.879 0.476 0.000
vn 0.879 0.476 0.000
vn 0.946 0.325 0.000
vn 0.946 0.325 0.000
vn 0.986 0.165 0.000
vn 0.986 0.165 0.000
vn 1.000 0.000 0.000
vn 1.000 0.000 0.000
vn 0.986 -0.165 0.000
vn 0.986 -0.165 0.000
vn 0.946 -0.325 0.000
vn 0.946 -0.325 0.000
vn 0.879 -0.476 0.000
vn 0.879 -0.476 0.000
vn 0.789 -0.614 0.000
vn 0.789 -0.614 0.000
vn 0.677 -0.736 0.000
vn 0.677 -0.736 0.000
vn 0.547 -0.837 0.000
vn 0.547 -0.837 0.000
vn 0.402 -0.916 0.000
vn 0.402 -0.916 0.000
vn 0.245 -0.969 0.000
vn 0.245 -0.969 0.000
vn 0.083 -0.997 0.000
vn 0.083 -0.997 0.000
vn -0.083 -0.997 0.000
vn -0.083 -0.997 0.000
vn -0.245 -0.969 0.000
vn -0.245 -0.969 0.000
vn -0.402 -0.916 0.000
vn -0.402 -0.916 0.000
vn -0.547 -0.837 0.000
vn -0.547 -0.837 0.000
vn -0.677 -0.736 0.000
vn -0.677 -0.736 0.000
vn -0.789 -0.614 0.000
vn -0.789 -0.614 0.000
vn -0.879 -0.476 0.000
vn -0.879 -0.476 0.000
vn -0.946 -0.325 0.000
vn -0.946 -0.325 0.000
vn -0.986 -0.165 0.000
vn -0.986 -0.165 0.000
vn 0.000 0.000 1.000
vn 0.000 0.000 1.000
vn 0.000 0.000 1.000
vn 0.000 0.000 1.000
vn 0.000 0.000 1.000
vn 0.000 0.000 1.000
vn 0.000 0.000 1.000
vn 0.000 0.000 1.000
vn 0.000 0.000 1.000
vn 0.000 0.000 1.000
vn 0.000 0.000 1.000
vn 0.000 0.000 1.000
vn 0.000 0.000 1.000
vn 0.000 0.000 1.000
vn 0.000 0.000 1.000
vn 0.000 0.000 1.000
vn 0.000 0.000 1.000
vn 0.000 0.000 1.000
vn 0.000 0.000 1.000
vn 0.000 0.000 1.000
vn 0.000 0.000 1.000
vn 0.000 0.000 1.000
vn 0.000 0.000 1.000
vn 0.000 0.000 1.000
vn 0.000 0.000 1.000
vn 0.000 0.000 1.000
vn 0.000 0.000 1.000
vn 0.000 0.000 1.000
vn 0.000 0.000 1.000
vn 0.000 0.000 1.000
vn 0.000 0.000 1.000
vn 0.000 0.000 1.000
vn 0.000 0.000 1.000
vn 0.000 0.000 1.000
vn 0.000 0.000 1.000
vn 0.000 0.000 1.000
vn 0.000 0.000 1.000
vn 0.000 0.000 1.000
vn 0.000 0.000 1.000
vn 0.000 0.000 1.000
vn 0.000 0.000 1.000
vn 0.000 0.000 1.000
vn 0.000 0.000 1.000
vn 0.000 0.000 1.000
vn 0.000 0.000 1.000
vn 0.000 0.000 1.000
vn 0.000 0.000 1.000
vn 0.000 0.000 1.000
vn 0.000 0.000 1.000
vn 0.000 0.000 1.000
vn 0.000 0.000 1.000
vn 0.000 0.000 1.000
vn 0.000 0.000 1.000
vn 0.000 0.000 1.000
vn 0.000 0.000 1.000
vn 0.000 0.000 1.000
vn 0.000 0.000 1.000
vn 0.000 0.000 1.000
vn 1.000 0.000 0.000
vn 1.000 0.000 0.000
vn 0.946 0.325 0.000
vn 0.946 0.325 0.000
vn 0.789 0.614 0.000
vn 0.789 0.614 0.000
vn 0.547 0.837 0.000
vn 0.547 0.837 0.000
vn 0.245 0.969 0.000
vn 0.245 0.969 0.000
vn -0.083 0.997 0.000
vn -0.083 0.997 0.000
vn -0.402 0.916 0.000
vn -0.402 0.916 0.000
vn -0.677 0.736 0.000
vn -0.677 0.736 0.000
vn -0.879 0.476 0.000
vn -0.879 0.476 0.000
vn -0.986 0.165 0.000
vn -0.986 -0.165 0.000
vn -0.986 0.165 0.000
vn -1.000 0.000 0.000
vn -0.986 -0.165 0.000
vn -0.879 -0.476 0.000
vn -0.879 -0.476 0.000
vn -0.677 -0.736 0.000
vn -0.677 -0.736 0.000
vn -0.402 -0.916 0.000
vn -0.402 -0.916 0.000
vn -0.083 -0.997 0.000
vn -0.083 -0.997 0.000
vn 0.245 -0.969 0.000
vn 0.245 -0.969 0.000
vn 0.547 -0.837 0.000
vn 0.547 -0.837 0.000
vn 0.789 -0.614 0.000
vn 0.789 -0.614 0.000
vn 0.946 -0.325 0.000
vn 0.946 -0.325 0.000
vn 0.000 0.000 -1.000
vn 0.000 0.000 -1.000
vn 0.000 0.000 -1.000
vn 0.000 0.000 -1.000
vn 0.000 0.000 -1.000
vn 0.000 0.000 -1.000
vn 0.000 0.000 -1.000
vn 0.000 0.000 -1.000
vn 0.000 0.000 -1.000
vn 0.000 0.000 -1.000
vn 0.000 0.000 -1.000
vn 0.000 0.000 -1.000
vn 0.000 0.000 -1.000
vn 0.000 0.000 -1.000
vn 0.000 0.000 -1.000
vn 0.000 0.000 -1.000
vn 0.000 0.000 -1.000
vn 0.000 0.000 -1.000
vn 0.000 0.000 -1.000
vn 0.000 0.000 -1.000
vn 0.000 0.000 -1.000
vn 0.000 0.000 -1.000
vn 0.000 0.000 -1.000
vn 0.000 0.000 -1.000
vn 0.000 0.000 -1.000
vn 0.000 0.000 -1.000
vn 0.000 0.000 -1.000
vn 0.000 0.000 -1.000
vn 0.000 0.000 -1.000
vn 0.000 0.000 -1.000
vn 0.000 0.000 -1.000
vn 0.000 0.000 -1.000
vn 0.000 0.000 -1.000
vn 0.000 0.000 -1.000
vn 0.000 0.000 -1.000
vn 0.000 0.000 -1.000
vn 0.000 0.000 -1.000
vn 0.000 0.000 -1.000
vn 0.000 0.000 -1.000
vn 0.000 0.000 -1.000
vn 0.000 0.000 -1.000
vn 0.000 0.000 -1.000
vn 0.000 0.000 -1.000
vn 0.000 0.000 -1.000
vn 0.000 0.000 -1.000
vn 0.000 0.000 -1.000
vn 0.000 0.000 -1.000
vn 0.000 0.000 -1.000
vn 0.000 0.000 -1.000
vn 0.000 0.000 -1.000
vn 0.000 0.000 -1.000
vn 0.000 0.000 -1.000
vn 0.000 0.000 -1.000
vn 0.000 0.000 -1.000
vn 0.000 0.000 -1.000
vn 0.000 0.000 -1.000
vn 0.000 0.000 -1.000
vn 0.000 0.000 -1.000
vn 0.000 0.000 -1.000
vn 0.000 0.000 -1.000
vn 0.000 0.000 -1.000
vn 0.000 0.000 -1.000
vn 0.000 0.000 -1.000
vn 0.000 0.000 -1.000
vn 0.000 0.000 -1.000
vn 0.000 0.000 -1.000
vn 0.000 0.000 -1.000
vn 0.000 0.000 -1.000
vn 0.000 0.000 -1.000
vn 0.000 0.000 -1.000
vn 0.000 0.000 -1.000
vn -0.248 -0.969 0.000
vn -0.248 -0.969 0.000
vn -0.416 -0.909 0.000
vn -0.416 -0.909 0.000
vn -0.571 -0.821 0.000
vn -0.571 -0.821 0.000
vn -0.707 -0.707 0.000
vn -0.707 -0.707 0.000
vn -0.821 -0.571 0.000
vn -0.821 -0.571 0.000
vn -0.909 -0.416 0.000
vn -0.909 -0.416 0.000
vn -0.969 -0.248 0.000
vn -0.969 -0.248 0.000
vn -0.969 0.248 0.000
vn -0.969 0.248 0.000
vn -0.909 0.416 0.000
vn -0.909 0.416 0.000
vn -0.821 0.571 0.000
vn -0.821 0.571 0.000
vn -0.707 0.707 0.000
vn -0.707 0.707 0.000
vn -0.571 0.821 0.000
vn -0.571 0.821 0.000
vn -0.416 0.909 0.000
vn -0.416 0.909 0.000
vn -0.248 0.969 0.000
vn -0.248 0.969 0.000
vn 0.248 0.969 0.000
vn 0.248 0.969 0.000
vn 0.416 0.909 0.000
vn 0.416 0.909 0.000
vn 0.571 0.821 0.000
vn 0.571 0.821 0.000
vn 0.707 0.707 0.000
vn 0.707 0.707 0.000
vn 0.821 0.571 0.000
vn 0.821 0.571 0.000
vn 0.909 0.416 0.000
vn 0.909 0.416 0.000
vn 0.969 0.248 0.000
vn 0.969 0.248 0.000
vn 0.000 0.000 1.000
vn 0.000 0.000 1.000
vn 0.000 0.000 1.000
vn 0.000 0.000 1.000
vn 0.000 0.000 1.000
vn 0.000 0.000 1.000
vn 0.000 0.000 1.000
vn 0.000 0.000 1.000
vn 0.000 0.000 1.000
vn 0.000 0.000 1.000
vn 0.000 0.000 1.000
vn 0.000 0.000 1.000
vn 0.000 0.000 1.000
vn 0.000 0.000 1.000
vn 0.000 0.000 1.000
vn 0.000 0.000 1.000
vn 0.000 0.000 1.000
vn 0.000 0.000 1.000
vn 0.000 0.000 1.000
vn 0.000 0.000 1.000
vn 0.000 0.000 1.000
vn 0.000 0.000 1.000
vn 0.000 0.000 1.000
vn 0.000 0.000 1.000
vn 0.000 0.000 1.000
vn 0.000 0.000 1.000
vn 0.000 0.000 1.000
vn 0.000 0.000 1.000
vn 0.000 0.000 1.000
vn 0.000 0.000 1.000
vn -0.513 -0.859 0.000
vn -0.125 -0.992 0.000
vn -0.125 -0.992 0.000
vn -0.125 0.992 0.000
vn -0.513 0.859 0.000
vn -0.513 0.859 0.000
vn -0.814 0.581 0.000
vn -0.655 0.756 0.000
vn -0.655 0.756 0.000
vn -0.814 0.581 0.000
vn -0.979 0.205 0.000
vn -0.979 0.205 0.000
vn -0.979 -0.205 0.000
vn -0.979 -0.205 0.000
vn -0.814 -0.581 0.000
vn -0.814 -0.581 0.000
vn -0.513 -0.859 0.000
vn -0.655 -0.756 0.000
vn -0.655 -0.756 0.000
vn -0.125 0.992 0.000
vn 0.433 0.902 0.000
vn 0.220 0.975 0.000
vn 0.220 0.975 0.000
vn 0.623 0.782 0.000
vn 0.433 0.902 0.000
vn 0.782 0.623 0.000
vn 0.623 0.782 0.000
vn 0.902 0.433 0.000
vn 0.782 0.623 0.000
vn 0.975 0.220 0.000
vn 0.902 0.433 0.000
vn 0.975 0.220 0.000
vn 0.902 -0.433 0.000
vn 0.975 -0.220 0.000
vn 0.975 -0.220 0.000
vn 0.782 -0.623 0.000
vn 0.902 -0.433 0.000
vn 0.623 -0.782 0.000
vn 0.782 -0.623 0.000
vn 0.433 -0.902 0.000
vn 0.623 -0.782 0.000
vn 0.220 -0.975 0.000
vn 0.433 -0.902 0.000
vn 0.220 -0.975 0.000
vn -0.859 0.513 0.000
vn -0.992 0.125 0.000
vn -0.992 0.125 0.000
vn 0.992 0.125 0.000
vn 0.859 0.513 0.000
vn 0.859 0.513 0.000
vn 0.581 0.814 0.000
vn 0.756 0.655 0.000
vn 0.756 0.655 0.000
vn 0.581 0.814 0.000
vn 0.205 0.979 0.000
vn 0.205 0.979 0.000
vn -0.205 0.979 0.000
vn -0.205 0.979 0.000
vn -0.581 0.814 0.000
vn -0.581 0.814 0.000
vn -0.859 0.513 0.000
vn -0.756 0.655 0.000
vn -0.756 0.655 0.000
vn 0.992 0.125 0.000
vn 0.000 0.000 1.000
vn 0.000 0.000 1.000
vn 0.000 0.000 1.000
vn 0.000 0.000 1.000
vn 0.000 0.000 1.000
vn 0.000 0.000 1.000
vn 0.000 0.000 1.000
vn 0.000 0.000 1.000
vn 0.000 0.000 1.000
vn 0.000 0.000 1.000
vn 0.000 0.000 1.000
vn 0.000 0.000 1.000
vn 0.000 0.000 1.000
vn 0.000 0.000 1.000
vn 0.000 0.000 1.000
vn -0.433 -0.902 0.000
vn -0.220 -0.975 0.000
vn -0.220 -0.975 0.000
vn -0.623 -0.782 0.000
vn -0.433 -0.902 0.000
vn -0.782 -0.623 0.000
vn -0.623 -0.782 0.000
vn -0.902 -0.433 0.000
vn -0.782 -0.623 0.000
vn -0.975 -0.220 0.000
vn -0.902 -0.433 0.000
vn -0.975 -0.220 0.000
vn 0.000 0.000 1.000
vn 0.000 0.000 1.000
vn 0.000 0.000 1.000
vn 0.000 0.000 1.000
vn 0.000 0.000 1.000
vn 0.000 0.000 1.000
vn 0.000 0.000 1.000
vn 0.000 0.000 1.000
vn 0.000 0.000 1.000
vn 0.000 0.000 1.000
vn 0.000 0.000 1.000
vn 0.000 0.000 1.000
vn 0.000 0.000 1.000
vn 0.000 0.000 1.000
vn 0.000 0.000 1.000
vn 0.000 0.000 1.000
vn 0.000 0.000 1.000
vn 0.000 0.000 1.000
vn 0.000 0.000 1.000
vn 0.000 0.000 1.000
vn 0.000 0.000 1.000
vn 0.000 0.000 1.000
vn 0.000 0.000 1.000
vn 0.000 0.000 1.000
vn 0.000 0.000 1.000
vn 0.000 0.000 1.000
vn 0.000 0.000 1.000
vn 0.000 0.000 1.000
vn 0.000 0.000 1.000
vn 0.000 0.000 1.000
vn 0.000 0.000 1.000
vn 0.000 0.000 1.000
vn 0.000 0.000 1.000
vn 0.000 0.000 1.000
vn 0.000 0.000 1.000
vn 0.000 0.000 1.000
vn 0.000 0.000 1.000
vn 0.000 0.000 1.000
vn 0.000 0.000 1.000
vn 0.000 0.000 1.000
vn 0.513 0.859 0.000
vn 0.125 0.992 0.000
vn 0.125 0.992 0.000
vn 0.125 -0.992 0.000
vn 0.513 -0.859 0.000
vn 0.513 -0.859 0.000
vn 0.814 -0.581 0.000
vn 0.655 -0.756 0.000
vn 0.655 -0.756 0.000
vn 0.814 -0.581 0.000
vn 0.979 -0.205 0.000
vn 0.979 -0.205 0.000
vn 0.979 0.205 0.000
vn 0.979 0.205 0.000
vn 0.814 0.581 0.000
vn 0.814 0.581 0.000
vn 0.513 0.859 0.000
vn 0.655 0.756 0.000
vn 0.655 0.756 0.000
vn 0.125 -0.992 0.000
vn 0.859 -0.513 0.000
vn 0.992 -0.125 0.000
vn 0.992 -0.125 0.000
vn -0.992 -0.125 0.000
vn -0.859 -0.513 0.000
vn -0.859 -0.513 0.000
vn -0.581 -0.814 0.000
vn -0.756 -0.655 0.000
vn -0.756 -0.655 0.000
vn -0.581 -0.814 0.000
vn -0.205 -0.979 0.000
vn -0.205 -0.979 0.000
vn 0.205 -0.979 0.000
vn 0.205 -0.979 0.000
vn 0.581 -0.814 0.000
vn 0.581 -0.814 0.000
vn 0.859 -0.513 0.000
vn 0.756 -0.655 0.000
vn 0.756 -0.655 0.000
vn -0.992 -0.125 0.000
vn 0.000 0.000 1.000
vn 0.000 0.000 1.000
vn 0.000 0.000 1.000
vn 0.000 0.000 1.000
vn 0.000 0.000 1.000
vn 0.000 0.000 1.000
vn 0.000 0.000 1.000
vn 0.000 0.000 1.000
vn 0.000 0.000 1.000
vn 0.000 0.000 1.000
vn 0.000 0.000 1.000
vn 0.000 0.000 1.000
vn 0.000 0.000 1.000
vn 0.000 0.000 1.000
vn 0.000 0.000 1.000
vn -0.902 0.433 0.000
vn -0.975 0.220 0.000
vn -0.975 0.220 0.000
vn -0.782 0.623 0.000
vn -0.902 0.433 0.000
vn -0.623 0.782 0.000
vn -0.782 0.623 0.000
vn -0.433 0.902 0.000
vn -0.623 0.782 0.000
vn -0.220 0.975 0.000
vn -0.433 0.902 0.000
vn -0.220 0.975 0.000
vn 0.969 -0.248 0.000
vn 0.969 -0.248 0.000
vn 0.909 -0.416 0.000
vn 0.909 -0.416 0.000
vn 0.821 -0.571 0.000
vn 0.821 -0.571 0.000
vn 0.707 -0.707 0.000
vn 0.707 -0.707 0.000
vn 0.571 -0.821 0.000
vn 0.571 -0.821 0.000
vn 0.416 -0.909 0.000
vn 0.416 -0.909 0.000
vn 0.248 -0.969 0.000
vn 0.248 -0.969 0.000
vn 0.000 0.000 -1.000
vn 0.000 0.000 -1.000
vn 0.000 0.000 -1.000
vn 0.000 0.000 -1.000
vn 0.000 0.000 -1.000
vn 0.000 0.000 -1.000
vn 0.000 0.000 -1.000
vn 0.000 0.000 -1.000
vn 0.000 0.000 -1.000
vn 0.000 0.000 -1.000
vn 0.000 0.000 -1.000
vn 0.000 0.000 -1.000
vn 0.000 0.000 -1.000
vn -0.866 0.500 0.000
vn -1.000 0.000 0.000
vn -1.000 0.000 0.000
vn -0.500 0.866 0.000
vn -0.866 0.500 0.000
vn 0.000 1.000 0.000
vn -0.500 0.866 0.000
vn 0.500 0.866 0.000
vn 0.000 1.000 0.000
vn 0.866 0.500 0.000
vn 0.500 0.866 0.000
vn 1.000 0.000 0.000
vn 0.866 0.500 0.000
vn 0.866 -0.500 0.000
vn 1.000 0.000 0.000
vn 0.500 -0.866 0.000
vn 0.866 -0.500 0.000
vn 0.000 -1.000 0.000
vn 0.500 -0.866 0.000
vn -0.500 -0.866 0.000
vn 0.000 -1.000 0.000
vn -0.866 -0.500 0.000
vn -0.500 -0.866 0.000
vn -0.866 -0.500 0.000
vn 0.000 0.000 1.000
vn 0.000 0.000 1.000
vn 0.000 0.000 1.000
vn 0.000 0.000 1.000
vn 0.000 0.000 1.000
vn 0.000 0.000 1.000
vn 0.000 0.000 1.000
vn 0.000 0.000 1.000
vn 0.000 0.000 1.000
vn 0.000 0.000 1.000
vn 0.000 0.000 1.000
vn 0.000 0.000 1.000
vn 0.000 0.000 1.000
vt -0.0164 0.0000 0
vt -0.0002 0.0027 0
vt -0.0009 0.0053 0
vt -0.0020 0.0078 0
vt -0.0035 0.0101 0
vt -0.0053 0.0121 0
vt -0.0074 0.0137 0
vt -0.0098 0.0150 0
vt -0.0124 0.0159 0
vt -0.0150 0.0163 0
vt -0.0178 0.0163 0
vt -0.0204 0.0159 0
vt -0.0230 0.0150 0
vt -0.0254 0.0137 0
vt -0.0275 0.0121 0
vt -0.0293 0.0101 0
vt -0.0308 0.0078 0
vt -0.0319 0.0053 0
vt -0.0326 0.0027 0
vt -0.0328 0.0000 0
vt -0.0326 -0.0027 0
vt -0.0319 -0.0053 0
vt -0.0308 -0.0078 0
vt -0.0293 -0.0101 0
vt -0.0275 -0.0121 0
vt -0.0254 -0.0137 0
vt -0.0230 -0.0150 0
vt -0.0204 -0.0159 0
vt -0.0178 -0.0163 0
vt -0.0150 -0.0163 0
vt -0.0124 -0.0159 0
vt -0.0098 -0.0150 0
vt -0.0074 -0.0137 0
vt -0.0053 -0.0121 0
vt -0.0035 -0.0101 0
vt -0.0020 -0.0078 0
vt -0.0009 -0.0053 0
vt -0.0002 -0.0027 0
vt 0.0000 0.0000 0
vt 6.2832 0.0000 0
vt 6.2832 -0.0548 0
vt 6.4485 -0.0548 0
vt 6.4485 0.0000 0
vt 6.6139 -0.0548 0
vt 6.6139 0.0000 0
vt 0.4960 -0.0548 0
vt 0.4960 0.0000 0
vt 0.6614 -0.0548 0
vt 0.6614 0.0000 0
vt 0.8267 -0.0548 0
vt 0.8267 0.0000 0
vt 0.9921 -0.0548 0
vt 0.9921 0.0000 0
vt 1.1574 -0.0548 0
vt 1.1574 0.0000 0
vt 1.3228 -0.0548 0
vt 1.3228 0.0000 0
vt 1.4881 -0.0548 0
vt 1.4881 0.0000 0
vt 1.6535 -0.0548 0
vt 1.6535 0.0000 0
vt 1.8188 -0.0548 0
vt 1.8188 0.0000 0
vt 1.9842 -0.0548 0
vt 1.9842 0.0000 0
vt 2.1495 -0.0548 0
vt 2.1495 0.0000 0
vt 2.3149 -0.0548 0
vt 2.3149 0.0000 0
vt 2.4802 -0.0548 0
vt 2.4802 0.0000 0
vt 2.6456 -0.0548 0
vt 2.6456 0.0000 0
vt 2.8109 -0.0548 0
vt 2.8109 0.0000 0
vt 2.9762 -0.0548 0
vt 2.9762 0.0000 0
vt 3.1416 -0.0548 0
vt 3.1416 0.0000 0
vt 3.3069 -0.0548 0
vt 3.3069 0.0000 0
vt 3.4723 -0.0548 0
vt 3.4723 0.0000 0
vt 3.6376 -0.0548 0
vt 3.6376 0.0000 0
vt 3.8030 -0.0548 0
vt 3.8030 0.0000 0
vt 3.9683 -0.0548 0
vt 3.9683 0.0000 0
vt 4.1337 -0.0548 0
vt 4.1337 0.0000 0
vt 4.2990 -0.0548 0
vt 4.2990 0.0000 0
vt 4.4644 -0.0548 0
vt 4.4644 0.0000 0
vt 4.6297 -0.0548 0
vt 4.6297 0.0000 0
vt 4.7951 -0.0548 0
vt 4.7951 0.0000 0
vt 4.9604 -0.0548 0
vt 4.9604 0.0000 0
vt 5.1258 -0.0548 0
vt 5.1258 0.0000 0
vt 5.2911 -0.0548 0
vt 5.2911 0.0000 0
vt 5.4565 -0.0548 0
vt 5.4565 0.0000 0
vt 5.6218 -0.0548 0
vt 5.6218 0.0000 0
vt 5.7871 -0.0548 0
vt 5.7871 0.0000 0
vt 5.9525 -0.0548 0
vt 5.9525 0.0000 0
vt 6.1178 -0.0548 0
vt 6.1178 0.0000 0
vt -0.0155 0.0053 0
vt -0.0162 0.0027 0
vt -0.0039 0.0007 0
vt -0.0164 0.0000 0
vt -0.0040 0.0000 0
vt -0.0162 -0.0027 0
vt -0.0039 -0.0007 0
vt -0.0035 0.0019 0
vt -0.0144 0.0078 0
vt -0.0155 -0.0053 0
vt -0.0035 -0.0019 0
vt 0.0162 0.0027 0
vt 0.0038 0.0013 0
vt 0.0040 0.0000 0
vt 0.0144 0.0078 0
vt 0.0129 0.0101 0
vt 0.0032 0.0025 0
vt 0.0111 0.0121 0
vt 0.0090 0.0137 0
vt 0.0022 0.0033 0
vt 0.0066 0.0150 0
vt 0.0040 0.0159 0
vt 0.0010 0.0039 0
vt -0.0129 -0.0101 0
vt -0.0027 -0.0029 0
vt -0.0040 -0.0159 0
vt -0.0003 -0.0040 0
vt -0.0016 -0.0037 0
vt 0.0014 -0.0163 0
vt 0.0010 -0.0039 0
vt 0.0164 0.0000 0
vt 0.0155 0.0053 0
vt 0.0014 0.0163 0
vt -0.0014 0.0163 0
vt -0.0003 0.0040 0
vt -0.0040 0.0159 0
vt -0.0066 0.0150 0
vt -0.0016 0.0037 0
vt -0.0144 -0.0078 0
vt -0.0090 -0.0137 0
vt -0.0066 -0.0150 0
vt -0.0014 -0.0163 0
vt 0.0066 -0.0150 0
vt 0.0022 -0.0033 0
vt 0.0111 -0.0121 0
vt 0.0032 -0.0025 0
vt 0.0144 -0.0078 0
vt 0.0038 -0.0013 0
vt -0.0090 0.0137 0
vt -0.0111 0.0121 0
vt -0.0027 0.0029 0
vt -0.0129 0.0101 0
vt -0.0111 -0.0121 0
vt 0.0040 -0.0159 0
vt 0.0090 -0.0137 0
vt 0.0129 -0.0101 0
vt 0.0162 -0.0027 0
vt 0.0155 -0.0053 0
vt 6.2832 0.0180 0
vt 6.2832 0.0000 0
vt 6.6139 0.0000 0
vt 6.6139 0.0180 0
vt 6.9446 0.0000 0
vt 6.9446 0.0180 0
vt 0.9921 0.0000 0
vt 0.9921 0.0180 0
vt 1.3228 0.0000 0
vt 1.3228 0.0180 0
vt 1.6535 0.0000 0
vt 1.6535 0.0180 0
vt 1.9842 0.0000 0
vt 1.9842 0.0180 0
vt 2.3149 0.0000 0
vt 2.3149 0.0180 0
vt 2.6456 0.0000 0
vt 2.6456 0.0180 0
vt 2.9762 0.0000 0
vt 3.3069 0.0180 0
vt 2.9762 0.0180 0
vt 3.1416 0.0000 0
vt 3.3069 0.0000 0
vt 3.6376 0.0000 0
vt 3.6376 0.0180 0
vt 3.9683 0.0000 0
vt 3.9683 0.0180 0
vt 4.2990 0.0000 0
vt 4.2990 0.0180 0
vt 4.6297 0.0000 0
vt 4.6297 0.0180 0
vt 4.9604 0.0000 0
vt 4.9604 0.0180 0
vt 5.2911 0.0000 0
vt 5.2911 0.0180 0
vt 5.6218 0.0000 0
vt 5.6218 0.0180 0
vt 5.9525 0.0000 0
vt 5.9525 0.0180 0
vt 0.0080 0.0015 0
vt 0.0015 -0.0080 0
vt 0.0032 -0.0025 0
vt 0.0015 0.0080 0
vt 0.0038 0.0013 0
vt 0.0022 -0.0033 0
vt 0.0010 -0.0039 0
vt 0.0005 -0.0076 0
vt 0.0040 0.0000 0
vt 0.0038 -0.0013 0
vt -0.0003 -0.0040 0
vt -0.0080 -0.0015 0
vt -0.0027 -0.0029 0
vt -0.0039 -0.0007 0
vt -0.0035 -0.0019 0
vt -0.0016 -0.0037 0
vt -0.0076 -0.0005 0
vt -0.0039 0.0007 0
vt 0.0005 0.0076 0
vt 0.0010 0.0039 0
vt -0.0003 0.0040 0
vt 0.0032 0.0025 0
vt -0.0080 0.0015 0
vt -0.0015 0.0080 0
vt -0.0027 0.0029 0
vt -0.0005 0.0076 0
vt -0.0016 0.0037 0
vt 0.0021 0.0087 0
vt 0.0087 0.0021 0
vt 0.0022 0.0033 0
vt -0.0076 0.0005 0
vt -0.0035 0.0019 0
vt 0.0091 0.0042 0
vt -0.0087 0.0021 0
vt -0.0021 0.0087 0
vt -0.0071 0.0071 0
vt -0.0057 0.0082 0
vt -0.0091 0.0042 0
vt -0.0082 0.0057 0
vt 0.0097 0.0025 0
vt 0.0087 -0.0021 0
vt 0.0082 -0.0057 0
vt 0.0071 -0.0071 0
vt 0.0071 0.0071 0
vt 0.0082 0.0057 0
vt 0.0042 0.0091 0
vt 0.0057 0.0082 0
vt -0.0042 0.0091 0
vt -0.0021 -0.0087 0
vt -0.0087 -0.0021 0
vt -0.0091 -0.0042 0
vt 0.0091 -0.0042 0
vt -0.0097 0.0025 0
vt -0.0025 0.0097 0
vt -0.0097 -0.0025 0
vt 0.0097 -0.0025 0
vt 0.0021 -0.0087 0
vt 0.0042 -0.0091 0
vt -0.0071 -0.0071 0
vt -0.0082 -0.0057 0
vt -0.0042 -0.0091 0
vt -0.0057 -0.0082 0
vt 0.0025 0.0097 0
vt -0.0005 -0.0076 0
vt -0.0015 -0.0080 0
vt 0.0057 -0.0082 0
vt 0.0025 -0.0097 0
vt 0.0080 -0.0015 0
vt -0.0025 -0.0097 0
vt 0.0076 -0.0005 0
vt 0.0076 0.0005 0
vt 4.9630 0.0040 0
vt 4.9630 0.0000 0
vt 5.1413 0.0000 0
vt 5.1413 0.0040 0
vt 5.3195 0.0000 0
vt 5.3195 0.0040 0
vt 5.4978 0.0000 0
vt 5.4978 0.0040 0
vt 5.6760 0.0000 0
vt 5.6760 0.0040 0
vt 5.8543 0.0000 0
vt 5.8543 0.0040 0
vt 6.0325 0.0000 0
vt 6.0325 0.0040 0
vt 0.2507 0.0040 0
vt 0.2507 0.0000 0
vt 0.4289 0.0000 0
vt 0.4289 0.0040 0
vt 0.6072 0.0000 0
vt 0.6072 0.0040 0
vt 0.7854 0.0000 0
vt 0.7854 0.0040 0
vt 0.9636 0.0000 0
vt 0.9636 0.0040 0
vt 1.1419 0.0000 0
vt 1.1419 0.0040 0
vt 1.3201 0.0000 0
vt 1.3201 0.0040 0
vt 1.8215 0.0040 0
vt 1.8215 0.0000 0
vt 1.9997 0.0000 0
vt 1.9997 0.0040 0
vt 2.1779 0.0000 0
vt 2.1779 0.0040 0
vt 2.3562 0.0000 0
vt 2.3562 0.0040 0
vt 2.5344 0.0000 0
vt 2.5344 0.0040 0
vt 2.7127 0.0000 0
vt 2.7127 0.0040 0
vt 2.8909 0.0000 0
vt 2.8909 0.0040 0
vt -0.0087 0.0021 0
vt -0.0067 0.0053 0
vt -0.0091 0.0042 0
vt -0.0082 0.0057 0
vt -0.0053 0.0067 0
vt -0.0037 0.0077 0
vt -0.0021 0.0087 0
vt -0.0097 0.0025 0
vt -0.0057 0.0082 0
vt -0.0071 0.0071 0
vt -0.0025 0.0097 0
vt -0.0042 0.0091 0
vt -0.0084 0.0019 0
vt -0.0077 0.0037 0
vt -0.0019 0.0084 0
vt -0.0091 -0.0042 0
vt -0.0077 -0.0037 0
vt -0.0087 -0.0021 0
vt -0.0082 -0.0057 0
vt -0.0067 -0.0053 0
vt -0.0053 -0.0067 0
vt -0.0021 -0.0087 0
vt -0.0037 -0.0077 0
vt -0.0071 -0.0071 0
vt -0.0057 -0.0082 0
vt -0.0019 -0.0084 0
vt -0.0084 -0.0019 0
vt -0.0097 -0.0025 0
vt -0.0042 -0.0091 0
vt -0.0025 -0.0097 0
vt 7.3157 0.0220 0
vt 7.7287 0.0220 0
vt 7.7287 0.0180 0
vt 4.8377 0.0220 0
vt 5.2507 0.0220 0
vt 5.2507 0.0180 0
vt 5.6637 0.0180 0
vt 5.4265 0.0200 0
vt 5.4265 0.0220 0
vt 5.6637 0.0200 0
vt 6.0767 0.0200 0
vt 6.0767 0.0180 0
vt 6.4897 0.0200 0
vt 6.4897 0.0180 0
vt 6.9027 0.0200 0
vt 6.9027 0.0180 0
vt 7.3157 0.0180 0
vt 7.1398 0.0200 0
vt 7.1398 0.0220 0
vt 4.8377 0.0180 0
vt 4.2649 0.0020 0
vt 4.4902 0.0020 0
vt 4.4902 0.0000 0
vt 4.0396 0.0020 0
vt 4.2649 0.0000 0
vt 3.8143 0.0020 0
vt 4.0396 0.0000 0
vt 3.5891 0.0020 0
vt 3.8143 0.0000 0
vt 3.3638 0.0020 0
vt 3.5891 0.0000 0
vt 3.3638 0.0000 0
vt 2.6941 0.0020 0
vt 2.9194 0.0020 0
vt 2.9194 0.0000 0
vt 2.4688 0.0020 0
vt 2.6941 0.0000 0
vt 2.2435 0.0020 0
vt 2.4688 0.0000 0
vt 2.0183 0.0020 0
vt 2.2435 0.0000 0
vt 1.7930 0.0020 0
vt 2.0183 0.0000 0
vt 1.7930 0.0000 0
vt 5.7449 0.0220 0
vt 6.1579 0.0220 0
vt 6.1579 0.0180 0
vt 3.2669 0.0220 0
vt 3.6799 0.0220 0
vt 3.6799 0.0180 0
vt 4.0929 0.0180 0
vt 3.8557 0.0200 0
vt 3.8557 0.0220 0
vt 4.0929 0.0200 0
vt 4.5059 0.0200 0
vt 4.5059 0.0180 0
vt 4.9189 0.0200 0
vt 4.9189 0.0180 0
vt 5.3319 0.0200 0
vt 5.3319 0.0180 0
vt 5.7449 0.0180 0
vt 5.5691 0.0200 0
vt 5.5691 0.0220 0
vt 3.2669 0.0180 0
vt 0.0082 0.0057 0
vt 0.0021 0.0087 0
vt 0.0037 0.0077 0
vt 0.0091 0.0042 0
vt 0.0077 0.0037 0
vt 0.0087 0.0021 0
vt 0.0053 0.0067 0
vt 0.0067 0.0053 0
vt 0.0019 0.0084 0
vt 0.0071 0.0071 0
vt 0.0057 0.0082 0
vt 0.0084 0.0019 0
vt 0.0097 0.0025 0
vt 0.0042 0.0091 0
vt 0.0025 0.0097 0
vt 1.1233 0.0020 0
vt 1.3486 0.0020 0
vt 1.3486 0.0000 0
vt 0.8980 0.0020 0
vt 1.1233 0.0000 0
vt 0.6728 0.0020 0
vt 0.8980 0.0000 0
vt 0.4475 0.0020 0
vt 0.6728 0.0000 0
vt 0.2222 0.0020 0
vt 0.4475 0.0000 0
vt 0.2222 0.0000 0
vt -0.0080 0.0015 0
vt -0.0067 0.0053 0
vt -0.0077 0.0037 0
vt -0.0037 0.0077 0
vt -0.0053 0.0067 0
vt -0.0015 0.0080 0
vt -0.0019 0.0084 0
vt 0.0015 0.0080 0
vt 0.0053 0.0067 0
vt 0.0037 0.0077 0
vt 0.0077 0.0037 0
vt 0.0067 0.0053 0
vt 0.0080 -0.0015 0
vt 0.0067 -0.0053 0
vt 0.0077 -0.0037 0
vt 0.0037 -0.0077 0
vt 0.0053 -0.0067 0
vt -0.0005 0.0076 0
vt 0.0080 0.0015 0
vt 0.0084 0.0019 0
vt 0.0015 -0.0080 0
vt 0.0019 -0.0084 0
vt -0.0084 0.0019 0
vt -0.0015 -0.0080 0
vt -0.0053 -0.0067 0
vt -0.0037 -0.0077 0
vt -0.0077 -0.0037 0
vt 0.0076 -0.0005 0
vt -0.0080 -0.0015 0
vt -0.0076 0.0005 0
vt -0.0076 -0.0005 0
vt 0.0005 0.0076 0
vt 0.0019 0.0084 0
vt 0.0005 -0.0076 0
vt -0.0067 -0.0053 0
vt 0.0076 0.0005 0
vt 0.0084 -0.0019 0
vt -0.0005 -0.0076 0
vt -0.0019 -0.0084 0
vt -0.0084 -0.0019 0
vt 4.1741 0.0220 0
vt 4.5871 0.0220 0
vt 4.5871 0.0180 0
vt 1.6961 0.0220 0
vt 2.1091 0.0220 0
vt 2.1091 0.0180 0
vt 2.5221 0.0180 0
vt 2.2849 0.0200 0
vt 2.2849 0.0220 0
vt 2.5221 0.0200 0
vt 2.9351 0.0200 0
vt 2.9351 0.0180 0
vt 3.3481 0.0200 0
vt 3.3481 0.0180 0
vt 3.7611 0.0200 0
vt 3.7611 0.0180 0
vt 4.1741 0.0180 0
vt 3.9983 0.0200 0
vt 3.9983 0.0220 0
vt 1.6961 0.0180 0
vt 2.6033 0.0220 0
vt 3.0163 0.0220 0
vt 3.0163 0.0180 0
vt 0.1253 0.0220 0
vt 0.5383 0.0220 0
vt 0.5383 0.0180 0
vt 0.9513 0.0180 0
vt 0.7141 0.0200 0
vt 0.7141 0.0220 0
vt 0.9513 0.0200 0
vt 1.3643 0.0200 0
vt 1.3643 0.0180 0
vt 1.7773 0.0200 0
vt 1.7773 0.0180 0
vt 2.1903 0.0200 0
vt 2.1903 0.0180 0
vt 2.6033 0.0180 0
vt 2.4275 0.0200 0
vt 2.4275 0.0220 0
vt 0.1253 0.0180 0
vt 0.0087 -0.0021 0
vt 0.0067 -0.0053 0
vt 0.0091 -0.0042 0
vt 0.0082 -0.0057 0
vt 0.0053 -0.0067 0
vt 0.0037 -0.0077 0
vt 0.0021 -0.0087 0
vt 0.0097 -0.0025 0
vt 0.0057 -0.0082 0
vt 0.0071 -0.0071 0
vt 0.0025 -0.0097 0
vt 0.0042 -0.0091 0
vt 0.0084 -0.0019 0
vt 0.0077 -0.0037 0
vt 0.0019 -0.0084 0
vt 5.8357 0.0020 0
vt 6.0610 0.0020 0
vt 6.0610 0.0000 0
vt 5.6104 0.0020 0
vt 5.8357 0.0000 0
vt 5.3851 0.0020 0
vt 5.6104 0.0000 0
vt 5.1599 0.0020 0
vt 5.3851 0.0000 0
vt 4.9346 0.0020 0
vt 5.1599 0.0000 0
vt 4.9346 0.0000 0
vt 3.3922 0.0040 0
vt 3.3922 0.0000 0
vt 3.5705 0.0000 0
vt 3.5705 0.0040 0
vt 3.7487 0.0000 0
vt 3.7487 0.0040 0
vt 3.9270 0.0000 0
vt 3.9270 0.0040 0
vt 4.1052 0.0000 0
vt 4.1052 0.0040 0
vt 4.2835 0.0000 0
vt 4.2835 0.0040 0
vt 4.4617 0.0000 0
vt 4.4617 0.0040 0
vt 0.0000 0.0000 0
vt -0.0013 0.0008 0
vt -0.0008 0.0013 0
vt 0.0000 0.0015 0
vt 0.0008 0.0013 0
vt 0.0013 0.0008 0
vt 0.0015 0.0000 0
vt 0.0013 -0.0008 0
vt 0.0007 -0.0013 0
vt 0.0000 -0.0015 0
vt -0.0008 -0.0013 0
vt -0.0013 -0.0007 0
vt -0.0015 0.0000 0
vt -0.5236 0.0180 0
vt 0.0000 0.0180 0
vt 0.0000 0.0020 0
vt 5.2360 0.0180 0
vt -0.5236 0.0020 0
vt 4.7124 0.0180 0
vt 5.2360 0.0020 0
vt 4.1888 0.0180 0
vt 4.7124 0.0020 0
vt 3.6652 0.0180 0
vt 4.1888 0.0020 0
vt 3.1416 0.0180 0
vt 3.6652 0.0020 0
vt 2.6180 0.0180 0
vt 3.1416 0.0020 0
vt 2.0944 0.0180 0
vt 2.6180 0.0020 0
vt 1.5708 0.0180 0
vt 2.0944 0.0020 0
vt 1.0472 0.0180 0
vt 1.5708 0.0020 0
vt 0.5236 0.0180 0
vt 1.0472 0.0020 0
vt 0.5236 0.0020 0
vt 0.0000 0.0000 0
vt 0.0013 -0.0007 0
vt 0.0008 -0.0013 0
vt 0.0000 -0.0015 0
vt -0.0007 -0.0013 0
vt -0.0013 -0.0008 0
vt -0.0015 0.0000 0
vt -0.0013 0.0008 0
vt -0.0008 0.0013 0
vt 0.0000 0.0015 0
vt 0.0008 0.0013 0
vt 0.0013 0.0008 0
vt 0.0015 0.0000 0
f 284/284/284 286/286/286 287/287/287
f 287/287/287 288/288/288 289/289/289
f 289/289/289 290/290/290 291/291/291
f 291/291/291 292/292/292 293/293/293
f 293/293/293 294/294/294 295/295/295
f 295/295/295 296/296/296 297/297/297
f 296/296/296 295/295/295 294/294/294
f 294/294/294 293/293/293 292/292/292
f 292/292/292 291/291/291 290/290/290
f 290/290/290 289/289/289 288/288/288
f 288/288/288 287/287/287 286/286/286
f 286/286/286 284/284/284 285/285/285
f 300/300/300 298/298/298 299/299/299
f 298/298/298 300/300/300 301/301/301
f 301/301/301 302/302/302 303/303/303
f 303/303/303 304/304/304 305/305/305
f 305/305/305 306/306/306 307/307/307
f 307/307/307 308/308/308 309/309/309
f 309/309/309 310/310/310 311/311/311
f 310/310/310 309/309/309 308/308/308
f 308/308/308 307/307/307 306/306/306
f 306/306/306 305/305/305 304/304/304
f 304/304/304 303/303/303 302/302/302
f 302/302/302 301/301/301 300/300/300
f 315/315/315 316/316/316 317/317/317
f 317/317/317 318/318/318 319/319/319
f 319/319/319 320/320/320 321/321/321
f 321/321/321 322/322/322 323/323/323
f 323/323/323 324/324/324 325/325/325
f 324/324/324 323/323/323 322/322/322
f 322/322/322 321/321/321 320/320/320
f 312/312/312 314/314/314 315/315/315
f 320/320/320 319/319/319 318/318/318
f 318/318/318 317/317/317 316/316/316
f 314/314/314 312/312/312 313/313/313
f 316/316/316 315/315/315 314/314/314
f 533/533/533 536/536/536 530/530/530
f 538/538/538 533/533/533 537/537/537
f 533/533/533 532/532/532 541/541/541
f 533/533/533 538/538/538 535/535/535
f 530/530/530 528/528/528 531/531/531
f 529/529/529 527/527/527 528/528/528
f 540/540/540 527/527/527 539/539/539
f 529/529/529 528/528/528 530/530/530
f 530/530/530 532/532/532 533/533/533
f 527/527/527 529/529/529 534/534/534
f 536/536/536 533/533/533 535/535/535
f 527/527/527 540/540/540 528/528/528
f 532/532/532 530/530/530 531/531/531
f 328/328/328 327/327/327 329/329/329
f 329/329/329 331/331/331 332/332/332
f 326/326/326 328/328/328 333/333/333
f 335/335/335 332/332/332 334/334/334
f 337/337/337 332/332/332 336/336/336
f 339/339/339 326/326/326 338/338/338
f 329/329/329 327/327/327 330/330/330
f 332/332/332 337/337/337 334/334/334
f 332/332/332 331/331/331 340/340/340
f 326/326/326 339/339/339 327/327/327
f 332/332/332 335/335/335 329/329/329
f 331/331/331 329/329/329 330/330/330
f 328/328/328 326/326/326 327/327/327
f 347/347/347 354/354/354 355/355/355
f 347/347/347 350/350/350 354/354/354
f 341/341/341 343/343/343 353/353/353
f 343/343/343 342/342/342 352/352/352
f 349/349/349 347/347/347 344/344/344
f 348/348/348 347/347/347 351/351/351
f 350/350/350 347/347/347 349/349/349
f 344/344/344 348/348/348 346/346/346
f 348/348/348 344/344/344 347/347/347
f 345/345/345 344/344/344 346/346/346
f 342/342/342 344/344/344 345/345/345
f 344/344/344 342/342/342 341/341/341
f 343/343/343 341/341/341 342/342/342
f 547/547/547 548/548/548 550/550/550
f 542/542/542 544/544/544 546/546/546
f 551/551/551 552/552/552 553/553/553
f 552/552/552 551/551/551 549/549/549
f 550/550/550 549/549/549 547/547/547
f 548/548/548 547/547/547 545/545/545
f 549/549/549 550/550/550 552/552/552
f 546/546/546 545/545/545 542/542/542
f 544/544/544 542/542/542 543/543/543
f 545/545/545 546/546/546 548/548/548
f 384/384/384 383/383/383 381/381/381
f 376/376/376 378/378/378 380/380/380
f 379/379/379 380/380/380 382/382/382
f 385/385/385 386/386/386 387/387/387
f 386/386/386 385/385/385 383/383/383
f 382/382/382 381/381/381 379/379/379
f 380/380/380 379/379/379 376/376/376
f 378/378/378 376/376/376 377/377/377
f 381/381/381 382/382/382 384/384/384
f 383/383/383 384/384/384 386/386/386
f 396/396/396 395/395/395 393/393/393
f 392/392/392 391/391/391 388/388/388
f 394/394/394 393/393/393 391/391/391
f 398/398/398 397/397/397 395/395/395
f 397/397/397 398/398/398 399/399/399
f 395/395/395 396/396/396 398/398/398
f 393/393/393 394/394/394 396/396/396
f 391/391/391 392/392/392 394/394/394
f 388/388/388 390/390/390 392/392/392
f 390/390/390 388/388/388 389/389/389
f 554/554/554 556/556/556 557/557/557
f 559/559/559 560/560/560 561/561/561
f 557/557/557 558/558/558 559/559/559
f 563/563/563 564/564/564 565/565/565
f 565/565/565 566/566/566 567/567/567
f 566/566/566 565/565/565 564/564/564
f 564/564/564 563/563/563 562/562/562
f 562/562/562 561/561/561 560/560/560
f 560/560/560 559/559/559 558/558/558
f 558/558/558 557/557/557 556/556/556
f 556/556/556 554/554/554 555/555/555
f 561/561/561 562/562/562 563/563/563
f 425/425/425 423/423/423 424/424/424
f 420/420/420 424/424/424 423/423/423
f 420/420/420 422/422/422 426/426/426
f 424/424/424 420/420/420 427/427/427
f 422/422/422 421/421/421 428/428/428
f 430/430/430 421/421/421 429/429/429
f 420/420/420 426/426/426 427/427/427
f 429/429/429 421/421/421 420/420/420
f 425/425/425 424/424/424 431/431/431
f 423/423/423 425/425/425 432/432/432
f 421/421/421 430/430/430 433/433/433
f 421/421/421 433/433/433 434/434/434
f 422/422/422 420/420/420 421/421/421
f 269/269/269 270/270/270 279/279/279
f 261/261/261 274/274/274 271/271/271
f 246/246/246 249/249/249 260/260/260
f 276/276/276 224/224/224 220/220/220
f 253/253/253 214/214/214 280/280/280
f 273/273/273 261/261/261 281/281/281
f 261/261/261 224/224/224 277/277/277
f 280/280/280 214/214/214 282/282/282
f 283/283/283 214/214/214 213/213/213
f 240/240/240 257/257/257 245/245/245
f 214/214/214 283/283/283 282/282/282
f 253/253/253 278/278/278 270/270/270
f 261/261/261 272/272/272 263/263/263
f 219/219/219 220/220/220 223/223/223
f 225/225/225 220/220/220 224/224/224
f 227/227/227 224/224/224 226/226/226
f 215/215/215 213/213/213 214/214/214
f 217/217/217 216/216/216 213/213/213
f 215/215/215 214/214/214 218/218/218
f 220/220/220 219/219/219 214/214/214
f 217/217/217 213/213/213 221/221/221
f 213/213/213 215/215/215 222/222/222
f 253/253/253 255/255/255 278/278/278
f 213/213/213 222/222/222 221/221/221
f 223/223/223 220/220/220 228/228/228
f 277/277/277 224/224/224 276/276/276
f 230/230/230 243/243/243 235/235/235
f 258/258/258 240/240/240 275/275/275
f 274/274/274 261/261/261 273/273/273
f 272/272/272 261/261/261 271/271/271
f 270/270/270 269/269/269 253/253/253
f 214/214/214 253/253/253 269/269/269
f 264/264/264 253/253/253 268/268/268
f 262/262/262 263/263/263 267/267/267
f 247/247/247 260/260/260 266/266/266
f 250/250/250 246/246/246 265/265/265
f 240/240/240 259/259/259 256/256/256
f 254/254/254 253/253/253 264/264/264
f 263/263/263 262/262/262 261/261/261
f 224/224/224 261/261/261 262/262/262
f 260/260/260 247/247/247 246/246/246
f 238/238/238 233/233/233 239/239/239
f 246/246/246 251/251/251 248/248/248
f 259/259/259 240/240/240 258/258/258
f 257/257/257 240/240/240 256/256/256
f 255/255/255 253/253/253 254/254/254
f 246/246/246 236/236/236 235/235/235
f 241/241/241 245/245/245 252/252/252
f 251/251/251 246/246/246 250/250/250
f 224/224/224 227/227/227 225/225/225
f 249/249/249 246/246/246 248/248/248
f 236/236/236 246/246/246 247/247/247
f 235/235/235 244/244/244 230/230/230
f 245/245/245 241/241/241 240/240/240
f 240/240/240 213/213/213 216/216/216
f 235/235/235 237/237/237 244/244/244
f 216/216/216 217/217/217 231/231/231
f 243/243/243 230/230/230 229/229/229
f 236/236/236 239/239/239 237/237/237
f 231/231/231 242/242/242 232/232/232
f 231/231/231 234/234/234 242/242/242
f 231/231/231 233/233/233 238/238/238
f 229/229/229 226/226/226 224/224/224
f 214/214/214 219/219/219 218/218/218
f 226/226/226 229/229/229 230/230/230
f 233/233/233 231/231/231 232/232/232
f 234/234/234 231/231/231 217/217/217
f 237/237/237 235/235/235 236/236/236
f 239/239/239 236/236/236 238/238/238
f 213/213/213 240/240/240 241/241/241
f 220/220/220 225/225/225 228/228/228
f 445/445/445 444/444/444 442/442/442
f 442/442/442 443/443/443 445/445/445
f 440/440/440 441/441/441 443/443/443
f 438/438/438 439/439/439 441/441/441
f 435/435/435 437/437/437 439/439/439
f 437/437/437 435/435/435 436/436/436
f 439/439/439 438/438/438 435/435/435
f 441/441/441 440/440/440 438/438/438
f 444/444/444 445/445/445 446/446/446
f 443/443/443 442/442/442 440/440/440
f 449/449/449 447/447/447 448/448/448
f 451/451/451 447/447/447 450/450/450
f 447/447/447 451/451/451 448/448/448
f 450/450/450 452/452/452 453/453/453
f 452/452/452 450/450/450 447/447/447
f 456/456/456 454/454/454 455/455/455
f 458/458/458 454/454/454 457/457/457
f 481/481/481 470/470/470 473/473/473
f 461/461/461 459/459/459 460/460/460
f 452/452/452 447/447/447 464/464/464
f 454/454/454 458/458/458 455/455/455
f 457/457/457 465/465/465 466/466/466
f 459/459/459 463/463/463 460/460/460
f 462/462/462 467/467/467 468/468/468
f 447/447/447 449/449/449 469/469/469
f 465/465/465 457/457/457 454/454/454
f 467/467/467 462/462/462 459/459/459
f 472/472/472 470/470/470 471/471/471
f 475/475/475 473/473/473 474/474/474
f 464/464/464 447/447/447 476/476/476
f 478/478/478 477/477/477 474/474/474
f 454/454/454 456/456/456 479/479/479
f 467/467/467 459/459/459 480/480/480
f 471/471/471 470/470/470 481/481/481
f 475/475/475 474/474/474 477/477/477
f 477/477/477 478/478/478 464/464/464
f 465/465/465 478/478/478 482/482/482
f 459/459/459 461/461/461 483/483/483
f 484/484/484 474/474/474 473/473/473
f 473/473/473 475/475/475 486/486/486
f 480/480/480 459/459/459 474/474/474
f 473/473/473 470/470/470 484/484/484
f 465/465/465 454/454/454 478/478/478
f 470/470/470 472/472/472 485/485/485
f 474/474/474 484/484/484 480/480/480
f 482/482/482 478/478/478 474/474/474
f 464/464/464 476/476/476 477/477/477
f 463/463/463 459/459/459 462/462/462
f 192/192/192 191/191/191 190/190/190
f 190/190/190 189/189/189 188/188/188
f 188/188/188 187/187/187 186/186/186
f 176/176/176 174/174/174 175/175/175
f 178/178/178 177/177/177 176/176/176
f 180/180/180 179/179/179 178/178/178
f 182/182/182 181/181/181 180/180/180
f 184/184/184 183/183/183 182/182/182
f 199/199/199 198/198/198 197/197/197
f 195/195/195 193/193/193 194/194/194
f 195/195/195 194/194/194 192/192/192
f 197/197/197 193/193/193 196/196/196
f 174/174/174 176/176/176 177/177/177
f 177/177/177 178/178/178 179/179/179
f 179/179/179 180/180/180 181/181/181
f 181/181/181 182/182/182 183/183/183
f 183/183/183 184/184/184 185/185/185
f 185/185/185 186/186/186 187/187/187
f 187/187/187 188/188/188 189/189/189
f 189/189/189 190/190/190 191/191/191
f 191/191/191 192/192/192 194/194/194
f 193/193/193 195/195/195 196/196/196
f 193/193/193 197/197/197 198/198/198
f 198/198/198 199/199/199 200/200/200
f 200/200/200 201/201/201 202/202/202
f 202/202/202 203/203/203 204/204/204
f 204/204/204 205/205/205 206/206/206
f 206/206/206 207/207/207 208/208/208
f 208/208/208 209/209/209 210/210/210
f 186/186/186 185/185/185 184/184/184
f 210/210/210 211/211/211 212/212/212
f 212/212/212 175/175/175 174/174/174
f 175/175/175 212/212/212 211/211/211
f 211/211/211 210/210/210 209/209/209
f 209/209/209 208/208/208 207/207/207
f 207/207/207 206/206/206 205/205/205
f 205/205/205 204/204/204 203/203/203
f 203/203/203 202/202/202 201/201/201
f 201/201/201 200/200/200 199/199/199
f 491/491/491 494/494/494 492/492/492
f 490/490/490 492/492/492 506/506/506
f 493/493/493 494/494/494 496/496/496
f 496/496/496 498/498/498 493/493/493
f 497/497/497 500/500/500 498/498/498
f 499/499/499 502/502/502 500/500/500
f 487/487/487 504/504/504 505/505/505
f 502/502/502 504/504/504 503/503/503
f 504/504/504 502/502/502 501/501/501
f 489/489/489 487/487/487 488/488/488
f 492/492/492 490/490/490 491/491/491
f 494/494/494 493/493/493 492/492/492
f 494/494/494 491/491/491 495/495/495
f 487/487/487 489/489/489 503/503/503
f 498/498/498 496/496/496 497/497/497
f 500/500/500 497/497/497 499/499/499
f 502/502/502 499/499/499 501/501/501
f 504/504/504 487/487/487 503/503/503
f 402/402/402 400/400/400 401/401/401
f 405/405/405 403/403/403 404/404/404
f 407/407/407 406/406/406 405/405/405
f 407/407/407 404/404/404 408/408/408
f 404/404/404 407/407/407 405/405/405
f 411/411/411 409/409/409 410/410/410
f 413/413/413 410/410/410 412/412/412
f 415/415/415 412/412/412 414/414/414
f 417/417/417 400/400/400 416/416/416
f 417/417/417 415/415/415 414/414/414
f 415/415/415 417/417/417 416/416/416
f 400/400/400 417/417/417 418/418/418
f 412/412/412 415/415/415 413/413/413
f 410/410/410 413/413/413 411/411/411
f 409/409/409 411/411/411 406/406/406
f 406/406/406 407/407/407 409/409/409
f 400/400/400 402/402/402 416/416/416
f 403/403/403 405/405/405 419/419/419
f 356/356/356 358/358/358 372/372/372
f 359/359/359 361/361/361 375/375/375
f 362/362/362 363/363/363 365/365/365
f 365/365/365 367/367/367 362/362/362
f 366/366/366 369/369/369 367/367/367
f 368/368/368 371/371/371 369/369/369
f 356/356/356 373/373/373 374/374/374
f 371/371/371 373/373/373 372/372/372
f 373/373/373 371/371/371 370/370/370
f 373/373/373 356/356/356 372/372/372
f 371/371/371 368/368/368 370/370/370
f 369/369/369 366/366/366 368/368/368
f 367/367/367 365/365/365 366/366/366
f 360/360/360 363/363/363 361/361/361
f 363/363/363 360/360/360 364/364/364
f 363/363/363 362/362/362 361/361/361
f 361/361/361 359/359/359 360/360/360
f 358/358/358 356/356/356 357/357/357
f 509/509/509 507/507/507 508/508/508
f 512/512/512 510/510/510 511/511/511
f 514/514/514 513/513/513 512/512/512
f 514/514/514 511/511/511 515/515/515
f 511/511/511 514/514/514 512/512/512
f 518/518/518 516/516/516 517/517/517
f 520/520/520 517/517/517 519/519/519
f 522/522/522 519/519/519 521/521/521
f 524/524/524 507/507/507 523/523/523
f 524/524/524 522/522/522 521/521/521
f 522/522/522 524/524/524 523/523/523
f 507/507/507 524/524/524 525/525/525
f 519/519/519 522/522/522 520/520/520
f 517/517/517 520/520/520 518/518/518
f 516/516/516 518/518/518 513/513/513
f 513/513/513 514/514/514 516/516/516
f 510/510/510 512/512/512 526/526/526
f 507/507/507 509/509/509 523/523/523
f 118/118/118 116/116/116 117/117/117
f 120/120/120 117/117/117 119/119/119
f 122/122/122 119/119/119 121/121/121
f 116/116/116 123/123/123 124/124/124
f 119/119/119 122/122/122 120/120/120
f 122/122/122 125/125/125 126/126/126
f 129/129/129 127/127/127 128/128/128
f 132/132/132 130/130/130 131/131/131
f 135/135/135 133/133/133 134/134/134
f 138/138/138 136/136/136 137/137/137
f 117/117/117 120/120/120 118/118/118
f 125/125/125 122/122/122 121/121/121
f 126/126/126 139/139/139 140/140/140
f 143/143/143 141/141/141 142/142/142
f 142/142/142 144/144/144 145/145/145
f 127/127/127 129/129/129 146/146/146
f 130/130/130 128/128/128 147/147/147
f 133/133/133 132/132/132 131/131/131
f 136/136/136 135/135/135 134/134/134
f 150/150/150 148/148/148 149/149/149
f 153/153/153 151/151/151 152/152/152
f 126/126/126 125/125/125 154/154/154
f 139/139/139 126/126/126 154/154/154
f 140/140/140 155/155/155 143/143/143
f 141/141/141 143/143/143 156/156/156
f 144/144/144 142/142/142 157/157/157
f 145/145/145 158/158/158 159/159/159
f 159/159/159 160/160/160 161/161/161
f 161/161/161 162/162/162 163/163/163
f 130/130/130 132/132/132 128/128/128
f 136/136/136 138/138/138 135/135/135
f 148/148/148 138/138/138 137/137/137
f 151/151/151 150/150/150 149/149/149
f 166/166/166 164/164/164 165/165/165
f 123/123/123 167/167/167 124/124/124
f 140/140/140 139/139/139 168/168/168
f 155/155/155 140/140/140 168/168/168
f 145/145/145 144/144/144 169/169/169
f 158/158/158 145/145/145 169/169/169
f 160/160/160 159/159/159 170/170/170
f 162/162/162 161/161/161 171/171/171
f 129/129/129 172/172/172 146/146/146
f 133/133/133 135/135/135 132/132/132
f 151/151/151 153/153/153 150/150/150
f 164/164/164 153/153/153 152/152/152
f 167/167/167 166/166/166 165/165/165
f 143/143/143 155/155/155 156/156/156
f 159/159/159 158/158/158 170/170/170
f 163/163/163 162/162/162 173/173/173
f 172/172/172 163/163/163 173/173/173
f 148/148/148 150/150/150 138/138/138
f 167/167/167 123/123/123 166/166/166
f 142/142/142 141/141/141 157/157/157
f 172/172/172 129/129/129 163/163/163
f 164/164/164 166/166/166 153/153/153
f 161/161/161 160/160/160 171/171/171
f 116/116/116 118/118/118 123/123/123
f 128/128/128 127/127/127 147/147/147
f 95/95/95 96/96/96 97/97/97
f 43/43/43 44/44/44 45/45/45
f 45/45/45 46/46/46 47/47/47
f 47/47/47 48/48/48 49/49/49
f 49/49/49 50/50/50 51/51/51
f 51/51/51 52/52/52 53/53/53
f 53/53/53 54/54/54 55/55/55
f 55/55/55 56/56/56 57/57/57
f 57/57/57 58/58/58 59/59/59
f 59/59/59 60/60/60 61/61/61
f 61/61/61 62/62/62 63/63/63
f 63/63/63 64/64/64 65/65/65
f 65/65/65 66/66/66 67/67/67
f 67/67/67 68/68/68 69/69/69
f 69/69/69 70/70/70 71/71/71
f 71/71/71 72/72/72 73/73/73
f 73/73/73 74/74/74 75/75/75
f 75/75/75 76/76/76 77/77/77
f 77/77/77 78/78/78 79/79/79
f 79/79/79 80/80/80 81/81/81
f 81/81/81 82/82/82 83/83/83
f 83/83/83 84/84/84 85/85/85
f 85/85/85 86/86/86 87/87/87
f 87/87/87 88/88/88 89/89/89
f 89/89/89 90/90/90 91/91/91
f 91/91/91 92/92/92 93/93/93
f 93/93/93 94/94/94 95/95/95
f 97/97/97 98/98/98 99/99/99
f 99/99/99 100/100/100 101/101/101
f 101/101/101 102/102/102 103/103/103
f 103/103/103 104/104/104 105/105/105
f 105/105/105 106/106/106 107/107/107
f 107/107/107 108/108/108 109/109/109
f 109/109/109 110/110/110 111/111/111
f 111/111/111 112/112/112 113/113/113
f 113/113/113 114/114/114 115/115/115
f 115/115/115 41/41/41 40/40/40
f 41/41/41 115/115/115 114/114/114
f 42/42/42 40/40/40 41/41/41
f 44/44/44 43/43/43 42/42/42
f 46/46/46 45/45/45 44/44/44
f 48/48/48 47/47/47 46/46/46
f 50/50/50 49/49/49 48/48/48
f 52/52/52 51/51/51 50/50/50
f 54/54/54 53/53/53 52/52/52
f 56/56/56 55/55/55 54/54/54
f 58/58/58 57/57/57 56/56/56
f 60/60/60 59/59/59 58/58/58
f 62/62/62 61/61/61 60/60/60
f 64/64/64 63/63/63 62/62/62
f 66/66/66 65/65/65 64/64/64
f 68/68/68 67/67/67 66/66/66
f 70/70/70 69/69/69 68/68/68
f 72/72/72 71/71/71 70/70/70
f 74/74/74 73/73/73 72/72/72
f 76/76/76 75/75/75 74/74/74
f 78/78/78 77/77/77 76/76/76
f 80/80/80 79/79/79 78/78/78
f 82/82/82 81/81/81 80/80/80
f 84/84/84 83/83/83 82/82/82
f 86/86/86 85/85/85 84/84/84
f 88/88/88 87/87/87 86/86/86
f 90/90/90 89/89/89 88/88/88
f 92/92/92 91/91/91 90/90/90
f 94/94/94 93/93/93 92/92/92
f 96/96/96 95/95/95 94/94/94
f 98/98/98 97/97/97 96/96/96
f 100/100/100 99/99/99 98/98/98
f 102/102/102 101/101/101 100/100/100
f 104/104/104 103/103/103 102/102/102
f 106/106/106 105/105/105 104/104/104
f 108/108/108 107/107/107 106/106/106
f 110/110/110 109/109/109 108/108/108
f 112/112/112 111/111/111 110/110/110
f 114/114/114 113/113/113 112/112/112
f 40/40/40 42/42/42 43/43/43
f 1/1/1 38/38/38 39/39/39
f 1/1/1 37/37/37 38/38/38
f 1/1/1 36/36/36 37/37/37
f 1/1/1 35/35/35 36/36/36
f 1/1/1 34/34/34 35/35/35
f 1/1/1 33/33/33 34/34/34
f 1/1/1 32/32/32 33/33/33
f 1/1/1 31/31/31 32/32/32
f 1/1/1 30/30/30 31/31/31
f 1/1/1 29/29/29 30/30/30
f 3/3/3 1/1/1 2/2/2
f 1/1/1 28/28/28 29/29/29
f 1/1/1 27/27/27 28/28/28
f 1/1/1 26/26/26 27/27/27
f 1/1/1 25/25/25 26/26/26
f 1/1/1 24/24/24 25/25/25
f 1/1/1 23/23/23 24/24/24
f 1/1/1 22/22/22 23/23/23
f 1/1/1 21/21/21 22/22/22
f 1/1/1 20/20/20 21/21/21
f 1/1/1 19/19/19 20/20/20
f 1/1/1 18/18/18 19/19/19
f 1/1/1 17/17/17 18/18/18
f 1/1/1 16/16/16 17/17/17
f 1/1/1 15/15/15 16/16/16
f 1/1/1 14/14/14 15/15/15
f 1/1/1 13/13/13 14/14/14
f 1/1/1 12/12/12 13/13/13
f 1/1/1 11/11/11 12/12/12
f 1/1/1 10/10/10 11/11/11
f 1/1/1 9/9/9 10/10/10
f 1/1/1 8/8/8 9/9/9
f 1/1/1 7/7/7 8/8/8
f 1/1/1 6/6/6 7/7/7
f 1/1/1 5/5/5 6/6/6
f 1/1/1 4/4/4 5/5/5
f 1/1/1 3/3/3 4/4/4
f 1/1/1 39/39/39 2/2/2
f 568/568/568 577/577/577 578/578/578
f 568/568/568 579/579/579 580/580/580
f 568/568/568 576/576/576 577/577/577
f 568/568/568 575/575/575 576/576/576
f 568/568/568 574/574/574 575/575/575
f 568/568/568 573/573/573 574/574/574
f 568/568/568 572/572/572 573/573/573
f 568/568/568 571/571/571 572/572/572
f 568/568/568 570/570/570 571/571/571
f 568/568/568 578/578/578 579/579/579
f 570/570/570 568/568/568 569/569/569
f 568/568/568 580/580/580 569/569/569
f 583/583/583 581/581/581 582/582/582
f 585/585/585 584/584/584 581/581/581
f 587/587/587 586/586/586 584/584/584
f 589/589/589 588/588/588 586/586/586
f 591/591/591 590/590/590 588/588/588
f 593/593/593 592/592/592 590/590/590
f 601/601/601 600/600/600 598/598/598
f 603/603/603 602/602/602 600/600/600
f 604/604/604 582/582/582 602/602/602
f 582/582/582 604/604/604 583/583/583
f 602/602/602 603/603/603 604/604/604
f 600/600/600 601/601/601 603/603/603
f 598/598/598 599/599/599 601/601/601
f 596/596/596 597/597/597 599/599/599
f 594/594/594 595/595/595 597/597/597
f 592/592/592 593/593/593 595/595/595
f 590/590/590 591/591/591 593/593/593
f 588/588/588 589/589/589 591/591/591
f 586/586/586 587/587/587 589/589/589
f 584/584/584 585/585/585 587/587/587
f 595/595/595 594/594/594 592/592/592
f 597/597/597 596/596/596 594/594/594
f 599/599/599 598/598/598 596/596/596
f 581/581/581 583/583/583 585/585/585
f 607/607/607 605/605/605 606/606/606
f 605/605/605 607/607/607 608/608/608
f 605/605/605 608/608/608 609/609/609
f 605/605/605 609/609/609 610/610/610
f 605/605/605 610/610/610 611/611/611
f 605/605/605 611/611/611 612/612/612
f 605/605/605 612/612/612 613/613/613
f 605/605/605 613/613/613 614/614/614
f 605/605/605 614/614/614 615/615/615
f 605/605/605 615/615/615 616/616/616
f 605/605/605 616/616/616 617/617/617
f 605/605/605 617/617/617 606/606/606
